<svg width="303" height="343" viewBox="0 0 303 343" fill="none" xmlns="http://www.w3.org/2000/svg">
<path d="M0.686759 62.4728C3.72559 140.31 5.74523 182.715 12.3207 246.718C17.883 271.193 23.7669 281.32 42.8597 288.228C118.897 309.932 172.237 327.31 234.092 342.118C259.277 341.514 268.255 334.953 276.265 320.271C289.953 268.485 292.512 211.783 302.442 139.667C303.773 111.855 298.267 100.559 276.265 88.6895C195.658 54.8404 78.4886 8.58279 78.4886 8.58279C78.4886 8.58279 56.0918 -2.1937 42.8597 0.572119C27.3842 5.4251 20.6517 10.7986 12.3207 21.6912C2.70946 34.5436 0.192144 43.4806 0.686759 62.4728Z" fill="#F1F1F1"/>
</svg>
