<svg width="345" height="405" viewBox="0 0 345 405" fill="none" xmlns="http://www.w3.org/2000/svg">
<g filter="url(#filter0_d_1_1457)">
<path d="M32.8197 76.9439C25.8797 154.53 22.4599 196.846 20.7966 261.164C23.1834 286.15 27.724 296.946 45.7766 306.239C118.414 337.488 169.093 361.544 228.548 384.141C253.602 386.763 263.346 381.404 273.168 367.867C293.365 318.256 303.155 262.347 322.225 192.093C327.102 164.679 323.087 152.772 302.783 138.187C227.166 94.3074 116.874 33.4458 116.874 33.4458C116.874 33.4458 96.0395 19.8937 82.5624 20.9446C66.5933 23.7787 59.2289 28.2471 49.5733 37.9849C38.3974 49.5028 34.7579 58.0444 32.8197 76.9439Z" fill="#FBC108"/>
</g>
<defs>
<filter id="filter0_d_1_1457" x="0.796631" y="0.886719" width="343.303" height="403.9" filterUnits="userSpaceOnUse" color-interpolation-filters="sRGB">
<feFlood flood-opacity="0" result="BackgroundImageFix"/>
<feColorMatrix in="SourceAlpha" type="matrix" values="0 0 0 0 0 0 0 0 0 0 0 0 0 0 0 0 0 0 127 0" result="hardAlpha"/>
<feOffset/>
<feGaussianBlur stdDeviation="10"/>
<feComposite in2="hardAlpha" operator="out"/>
<feColorMatrix type="matrix" values="0 0 0 0 0 0 0 0 0 0 0 0 0 0 0 0 0 0 0.1 0"/>
<feBlend mode="normal" in2="BackgroundImageFix" result="effect1_dropShadow_1_1457"/>
<feBlend mode="normal" in="SourceGraphic" in2="effect1_dropShadow_1_1457" result="shape"/>
</filter>
</defs>
</svg>
