<svg width="124" height="162" viewBox="0 0 124 162" fill="none" xmlns="http://www.w3.org/2000/svg">
<g clip-path="url(#clip0_1_1497)">
<path fill-rule="evenodd" clip-rule="evenodd" d="M83.3931 119.75L5.69653 140.569L6.38032 143.121L84.0769 122.302L83.3931 119.75Z" fill="#C7C3C2"/>
<path fill-rule="evenodd" clip-rule="evenodd" d="M84.312 123.179L6.61548 143.998L7.30231 146.561L84.9989 125.743L84.312 123.179Z" fill="#C7C3C2"/>
<path fill-rule="evenodd" clip-rule="evenodd" d="M85.2307 126.609L7.53418 147.427L8.22101 149.991L85.9176 129.172L85.2307 126.609Z" fill="#C7C3C2"/>
<path fill-rule="evenodd" clip-rule="evenodd" d="M82.4744 116.321L4.77783 137.14L5.46161 139.692L83.1582 118.873L82.4744 116.321Z" fill="#C7C3C2"/>
<path fill-rule="evenodd" clip-rule="evenodd" d="M90.0018 117.528C88.2815 117.989 87.2557 119.765 87.7167 121.486L90.0305 130.121L11.6732 151.117C6.93394 152.387 2.0501 149.654 0.598754 145.012C0.577387 144.932 0.578802 144.846 0.554382 144.755C0.51775 144.619 0.459751 144.402 0.372043 144.12C-0.593893 139.422 2.25938 134.713 6.95307 133.456L87.6572 111.831C87.9079 111.764 88.1266 111.669 88.3505 111.548C88.3619 111.545 88.3847 111.538 88.4075 111.532C90.1278 111.071 91.1566 109.306 90.6926 107.574L77.1299 56.9577L67.4475 85.3038L50.4085 106.61L47.932 80.1419L67.7623 22.0429L67.0358 19.3314C66.5749 17.6112 64.7981 16.5854 63.0779 17.0463L-18.3896 38.8755C-26.7061 41.1039 -31.6516 49.6698 -29.4232 57.9863C-29.3927 58.1002 -29.3425 58.1966 -29.3005 58.3075L-28.6137 60.8708C-26.3623 69.3643 -20.0532 93.047 -14.6043 113.383L-13.2856 118.304C-9.75371 131.485 -6.80185 142.502 -5.88852 145.773C-5.83968 145.956 -5.81667 146.133 -5.76478 146.326C-5.40152 147.682 -4.86514 148.955 -4.18758 150.116C-0.89643 155.792 5.75352 158.918 12.3882 157.568C12.5538 157.548 12.7111 157.542 12.882 157.497L94.8279 135.539C96.5482 135.078 97.574 133.302 97.1131 131.581L93.9628 119.824C93.5018 118.104 91.7251 117.078 90.0048 117.539L90.0018 117.528Z" fill="#03AEA5"/>
<path fill-rule="evenodd" clip-rule="evenodd" d="M4.10864 134.779L-21.2951 39.9714C-27.8151 43.2081 -31.3769 50.695 -29.4233 57.9862C-29.3927 58.1001 -29.3425 58.1966 -29.3006 58.3074L-28.6137 60.8707C-26.3623 69.3642 -20.0532 93.0469 -14.6043 113.382L-13.2856 118.304C-9.75373 131.485 -6.80187 142.502 -5.88854 145.773C-5.8397 145.956 -5.8167 146.133 -5.7648 146.326C-5.40154 147.682 -4.86516 148.955 -4.1876 150.116C-1.24134 155.188 4.38286 158.223 10.2902 157.849L8.56238 151.401C4.95249 151.098 1.72977 148.641 0.59873 145.012L0.554358 144.755C0.517726 144.619 0.459727 144.402 0.372021 144.12C-0.373091 140.474 1.18455 136.808 4.10864 134.779Z" fill="#038D86"/>
<path fill-rule="evenodd" clip-rule="evenodd" d="M90.0306 130.121L11.6733 151.117C10.6251 151.398 9.21896 151.482 8.19321 151.39L9.92098 157.838C10.6184 157.798 11.6811 157.708 12.3852 157.556C12.5508 157.537 12.7081 157.531 12.879 157.485L94.8249 135.528C96.5452 135.067 97.571 133.29 97.1101 131.57L93.9598 119.813C93.4988 118.093 91.7221 117.067 90.0018 117.528C88.2816 117.989 87.2558 119.765 87.7167 121.486L90.0306 130.121Z" fill="#038D86"/>
<path fill-rule="evenodd" clip-rule="evenodd" d="M78.7835 3.88773L52.4277 81.0618L55.8332 81.9687L82.1889 4.79459C82.3116 4.43204 82.3659 4.08782 82.3746 3.7558L79.3217 2.88879C79.1063 3.17851 78.9175 3.52214 78.7865 3.89913L78.7835 3.88773Z" fill="#73253B"/>
<path fill-rule="evenodd" clip-rule="evenodd" d="M89.9178 6.75297L63.5378 84.019L66.0351 84.6808L91.0304 11.4977C91.8049 9.23886 91.3927 7.01712 90.1478 5.97092L90.0961 5.96035C90.066 6.21262 90.0162 6.48239 89.9292 6.74992L89.9178 6.75297Z" fill="#5E1E30"/>
<path fill-rule="evenodd" clip-rule="evenodd" d="M52.4278 81.0618L78.7835 3.88773C78.9145 3.51074 79.1032 3.16711 79.3186 2.87739L79.172 2.83122C77.4016 2.69507 75.4153 4.35064 74.5947 6.7562L49.4965 80.2843L52.2552 81.0104L52.4391 81.0588L52.4278 81.0618Z" fill="#5E1E30"/>
<path fill-rule="evenodd" clip-rule="evenodd" d="M86.4833 5.82948L60.1034 83.0955L63.6411 84.0402L90.021 6.77416C90.1081 6.50662 90.0659 6.21266 90.0846 5.96344L86.8995 5.0586C86.7433 5.29583 86.5787 5.5475 86.4864 5.84087L86.4833 5.82948Z" fill="#73253B"/>
<path fill-rule="evenodd" clip-rule="evenodd" d="M60.1324 83.1123L86.5124 5.84629C86.6161 5.54986 86.7404 5.28457 86.908 5.04429L82.3746 3.75588C82.3773 4.08484 82.2516 4.43599 82.1259 4.78714L55.7702 81.9612L60.1211 83.1154L60.1324 83.1123Z" fill="#5E1E30"/>
<path fill-rule="evenodd" clip-rule="evenodd" d="M51.0356 94.9152L54.9362 83.5888L48.8929 81.9968L50.4725 94.773L51.0356 94.9152Z" fill="#EFBB86"/>
<path fill-rule="evenodd" clip-rule="evenodd" d="M60.4796 85.0463L56.5737 96.3984L56.9157 96.49L65.4081 86.3509L60.4796 85.0463Z" fill="#EFBB86"/>
<path fill-rule="evenodd" clip-rule="evenodd" d="M54.9362 83.5889L51.0356 94.9152L56.5736 96.3984L60.4795 85.0463L54.9362 83.5889Z" fill="#F2C89D"/>
<path fill-rule="evenodd" clip-rule="evenodd" d="M54.5477 95.8545L52.9131 101.238L56.9158 96.4899L56.5738 96.3984L54.5477 95.8545Z" fill="#1A1A1A"/>
<path fill-rule="evenodd" clip-rule="evenodd" d="M52.9129 101.238L54.6281 95.8817L52.9956 95.4399L51.2457 100.94L51.4882 102.938L52.9129 101.238Z" fill="#2B2B2B"/>
<path fill-rule="evenodd" clip-rule="evenodd" d="M50.6345 96.0606L51.0502 94.9236L50.4726 94.7731L50.6345 96.0606Z" fill="#1A1A1A"/>
<path fill-rule="evenodd" clip-rule="evenodd" d="M51.2465 100.988L53.0245 95.4568L51.0356 94.9152L50.6343 96.0606L51.2465 100.988Z" fill="#1A1A1A"/>
<path fill-rule="evenodd" clip-rule="evenodd" d="M-14.71 37.8894L-4.0747 77.5807L7.46763 62.0089L24.7368 69.8607L14.1016 30.1694L7.26609 32.0009L-14.71 37.8894Z" fill="#F49C17"/>
</g>
<defs>
<clipPath id="clip0_1_1497">
<rect width="129.561" height="132.38" fill="white" transform="translate(-36 33.5327) rotate(-15)"/>
</clipPath>
</defs>
</svg>
