<svg width="161" height="146" viewBox="0 0 161 146" fill="none" xmlns="http://www.w3.org/2000/svg">
<g clip-path="url(#clip0_1_1619)">
<path d="M77.97 31.6926C77.97 26.0647 78.5509 20.3461 80.3323 14.8868C82.1137 9.45347 85.1344 4.26651 89.588 0.363317C90.1818 -0.168347 91.0983 -0.10351 91.6276 0.492991C92.1569 1.08949 92.0923 2.01018 91.4985 2.54184C91.4856 2.55481 91.4598 2.58074 91.434 2.59371C87.2773 5.84853 84.1792 10.4909 82.217 15.5611C80.2419 20.6573 79.3512 26.1814 79.0672 31.7185C79.0543 32.0168 78.7961 32.2502 78.4863 32.2372C78.1894 32.2242 77.97 31.9779 77.97 31.6926Z" fill="#1C1A49"/>
<path d="M111.197 78.2197C103.71 84.8201 94.0157 88.2953 84.1791 89.1253C74.6523 89.9292 64.919 88.1916 56.9542 83.7049C50.2545 79.9314 44.8069 74.2127 41.7604 66.4453C37.3326 55.0988 39.9144 40.1992 50.0221 32.6652C59.0454 25.9481 69.4371 26.8039 78.951 31.6278C79.1963 31.7575 83.3917 28.8657 84.0242 28.5415C86.2058 27.4523 88.4649 26.5835 90.8014 25.961C103.388 22.5636 116.309 27.582 120.828 40.4586C121.822 43.2595 122.377 46.255 122.557 49.3024C123.177 59.9745 119.007 71.3469 111.185 78.2197H111.197Z" fill="#FF4D63"/>
<path opacity="0.24" d="M111.197 78.2198C103.71 84.8202 94.0156 88.2955 84.179 89.1254C74.6522 89.9294 64.9189 88.1918 56.9541 83.705C60.4395 84.3534 64.0024 84.5868 67.5007 84.4571C81.4165 83.9385 94.958 78.3365 105.685 69.415C112.45 63.8001 118.129 56.9144 122.57 49.2896C123.19 59.9617 119.02 71.3341 111.197 78.2069V78.2198Z" fill="#1C1A49"/>
<path d="M48.9893 40.1214C48.3568 41.5218 47.9308 43.0909 48.1631 44.621C48.3955 46.1512 49.4024 47.6295 50.874 48.0704C51.5065 48.2649 52.1907 48.2649 52.862 48.2C57.0315 47.7721 60.7751 44.5562 61.8595 40.4844C62.3629 38.5912 62.2855 36.4516 61.214 34.8047C57.4059 28.9953 50.732 36.3219 49.0022 40.1214H48.9893Z" fill="white"/>
<path d="M43.4514 54.3596C43.2707 55.812 43.8128 57.3681 44.9488 58.2758C46.6915 59.6633 49.5444 59.1446 50.874 57.3292C52.2036 55.5137 51.9454 52.8165 50.4996 51.1178C47.6855 47.8241 43.9032 50.8844 43.4514 54.3726V54.3596Z" fill="white"/>
<path d="M161 129.428V146H10.8307C10.8307 146 6.95802 143.627 6.73857 137.584C6.51912 131.541 10.8307 129.428 10.8307 129.428H161Z" fill="#1C1A49"/>
<path d="M17.6983 146H16.3687C14.613 143.044 12.3282 136.949 16.7301 129.428H18.0726C13.4383 137.104 15.9943 143.264 17.6983 146Z" fill="white"/>
<path d="M24.1526 146H22.823C21.2223 143.018 19.0149 136.819 22.5906 129.428H23.8944C20.1767 136.936 22.5906 143.212 24.1526 146Z" fill="white"/>
<path d="M117.691 146H116.361C114.76 143.018 112.553 136.819 116.116 129.428H117.432C113.702 136.936 116.129 143.212 117.691 146Z" fill="white"/>
<path d="M111.056 146H109.726C108.125 143.018 105.918 136.819 109.481 129.428H110.785C107.054 136.949 109.494 143.212 111.056 146Z" fill="white"/>
<path d="M161 131.023V144.911H131.064C131.064 144.911 130.277 144.742 129.322 144.159C129.218 144.107 129.128 144.042 129.025 143.977C128.612 143.705 128.186 143.355 127.786 142.914C127.721 142.849 127.669 142.797 127.618 142.719C127.334 142.408 127.088 142.058 126.869 141.656C126.83 141.591 126.792 141.539 126.766 141.461C126.585 141.137 126.43 140.787 126.301 140.398C126.301 140.333 126.262 140.268 126.249 140.203C126.146 139.866 126.056 139.516 125.991 139.14C125.991 139.075 125.991 139.023 125.965 138.946C125.927 138.66 125.888 138.375 125.875 138.077C125.875 138.012 125.875 137.947 125.875 137.882C125.875 137.817 125.875 137.753 125.875 137.688C125.875 137.312 125.875 136.962 125.927 136.624C125.927 136.56 125.927 136.495 125.952 136.43C126.004 136.054 126.082 135.691 126.172 135.367C126.198 135.302 126.211 135.237 126.236 135.172C126.366 134.783 126.52 134.433 126.701 134.109C126.727 134.044 126.766 133.979 126.804 133.914C127.05 133.512 127.308 133.162 127.605 132.851C127.669 132.786 127.721 132.721 127.786 132.656C128.25 132.19 128.754 131.84 129.193 131.593C129.322 131.515 129.438 131.463 129.541 131.399C130.148 131.087 130.587 130.971 130.587 130.971H161.013L161 131.023Z" fill="white"/>
<path d="M161 131.451V131.645H129.18C129.309 131.567 129.425 131.516 129.528 131.451H160.987H161Z" fill="#1C1A49"/>
<path d="M161 132.708V132.903H127.605C127.669 132.838 127.721 132.773 127.785 132.708H161.013H161Z" fill="#FFB18A"/>
<path d="M161 132.708V132.903H127.605C127.669 132.838 127.721 132.773 127.785 132.708H161.013H161Z" fill="#1C1A49"/>
<path d="M161 133.953V134.148H126.701C126.727 134.083 126.766 134.018 126.804 133.953H161Z" fill="#FFB18A"/>
<path d="M161 133.953V134.148H126.701C126.727 134.083 126.766 134.018 126.804 133.953H161Z" fill="#1C1A49"/>
<path d="M161 135.211V135.405H126.172C126.198 135.341 126.211 135.276 126.236 135.211H161.013H161Z" fill="#1C1A49"/>
<path d="M161 136.469V136.663H125.927C125.927 136.598 125.927 136.534 125.952 136.469H161Z" fill="#1C1A49"/>
<path d="M161 137.714V137.908H125.888C125.888 137.844 125.888 137.779 125.888 137.714H161.013H161Z" fill="#1C1A49"/>
<path d="M161 138.972V139.166H126.004C126.004 139.166 126.004 139.049 125.978 138.972H161Z" fill="#1C1A49"/>
<path d="M161 140.229V140.424H126.301C126.301 140.424 126.262 140.294 126.249 140.229H161Z" fill="#1C1A49"/>
<path d="M161 141.474V141.669H126.882C126.882 141.669 126.804 141.552 126.779 141.474H161Z" fill="#1C1A49"/>
<path d="M161 142.732V142.926H127.785C127.785 142.926 127.669 142.81 127.618 142.732H160.987H161Z" fill="#1C1A49"/>
<path d="M161 143.99V144.171H129.322C129.218 144.119 129.128 144.055 129.025 143.99H161Z" fill="#1C1A49"/>
<path d="M152.441 86.7388V113.14H10.5983C10.5983 113.14 6.93215 109.354 6.7256 99.7321C6.51906 90.1103 10.5983 86.7388 10.5983 86.7388H152.441Z" fill="#7897DD"/>
<path d="M17.0915 113.14H15.8393C14.1741 108.433 12.0183 98.7336 16.1879 86.7388H17.453C13.0768 98.967 15.4908 108.77 17.0915 113.14Z" fill="white"/>
<path d="M23.1844 113.14H21.9323C20.4219 108.394 18.3436 98.5132 21.7128 86.7388H22.9521C19.4409 98.7077 21.7128 108.693 23.1973 113.14H23.1844Z" fill="white"/>
<path d="M111.533 113.14H110.281C108.77 108.394 106.692 98.5132 110.048 86.7388H111.288C107.764 98.7077 110.048 108.693 111.533 113.14Z" fill="white"/>
<path d="M105.272 113.14H104.02C102.51 108.394 100.431 98.5132 103.788 86.7388H105.027C101.503 98.7207 103.801 108.693 105.272 113.14Z" fill="white"/>
<path d="M152.441 89.2935V111.416H124.158C124.158 111.416 123.422 111.156 122.518 110.223C122.428 110.132 122.338 110.041 122.247 109.938C121.847 109.51 121.46 108.952 121.073 108.239C121.008 108.148 120.969 108.044 120.918 107.941C120.66 107.448 120.414 106.877 120.208 106.242C120.169 106.151 120.13 106.047 120.117 105.944C119.95 105.425 119.808 104.867 119.678 104.245C119.678 104.154 119.64 104.037 119.627 103.947C119.536 103.415 119.446 102.857 119.382 102.248C119.382 102.157 119.382 102.053 119.356 101.95C119.317 101.509 119.278 101.042 119.278 100.562C119.278 100.458 119.278 100.342 119.278 100.251C119.278 100.147 119.278 100.043 119.278 99.9527C119.278 99.3562 119.278 98.7856 119.33 98.2539C119.33 98.1502 119.33 98.0465 119.356 97.9557C119.407 97.3592 119.472 96.7757 119.562 96.257C119.588 96.1532 119.601 96.0495 119.627 95.9587C119.743 95.3492 119.885 94.7787 120.066 94.26C120.092 94.1562 120.13 94.0525 120.156 93.9617C120.388 93.3134 120.634 92.7558 120.905 92.263C120.969 92.1593 121.008 92.0555 121.073 91.9647C121.512 91.2256 121.976 90.668 122.402 90.266C122.518 90.1493 122.635 90.0456 122.738 89.9678C123.319 89.475 123.719 89.2935 123.719 89.2935H152.454H152.441Z" fill="white"/>
<path d="M152.441 89.9678V90.266H122.389C122.506 90.1493 122.622 90.0456 122.725 89.9678H152.441Z" fill="#1C1A49"/>
<path d="M152.441 91.9648V92.2631H120.892C120.956 92.1594 120.995 92.0556 121.06 91.9648H152.441Z" fill="#FFB18A"/>
<path d="M152.441 91.9648V92.2631H120.892C120.956 92.1594 120.995 92.0556 121.06 91.9648H152.441Z" fill="#1C1A49"/>
<path d="M152.441 93.9619V94.2602H120.04C120.066 94.1564 120.105 94.0527 120.13 93.9619H152.429H152.441Z" fill="#FFB18A"/>
<path d="M152.441 93.9619V94.2602H120.04C120.066 94.1564 120.105 94.0527 120.13 93.9619H152.429H152.441Z" fill="#1C1A49"/>
<path d="M152.441 95.9585V96.2568H119.536C119.562 96.153 119.575 96.0493 119.601 95.9585H152.441Z" fill="#1C1A49"/>
<path d="M152.441 97.9556V98.2538H119.317C119.317 98.1501 119.317 98.0463 119.343 97.9556H152.441Z" fill="#1C1A49"/>
<path d="M152.441 99.9526V100.251H119.278C119.278 100.147 119.278 100.043 119.278 99.9526H152.454H152.441Z" fill="#1C1A49"/>
<path d="M152.441 101.95V102.248H119.382C119.382 102.157 119.382 102.053 119.356 101.95H152.441Z" fill="#1C1A49"/>
<path d="M152.441 103.947V104.245H119.679C119.679 104.154 119.64 104.038 119.627 103.947H152.441Z" fill="#1C1A49"/>
<path d="M152.441 105.943V106.242H120.208C120.169 106.151 120.13 106.047 120.117 105.943H152.441Z" fill="#1C1A49"/>
<path d="M152.441 107.94V108.239H121.073C121.008 108.148 120.969 108.044 120.918 107.94H152.441Z" fill="#1C1A49"/>
<path d="M152.441 109.938V110.223H122.518C122.428 110.132 122.338 110.041 122.247 109.938H152.441Z" fill="#1C1A49"/>
<path d="M154.275 112.842V129.415H4.10508C4.10508 129.415 0.219497 127.042 4.5144e-05 120.999C-0.219406 114.956 4.09217 112.842 4.09217 112.842H154.275Z" fill="#FF4D63"/>
<path d="M10.9727 129.428H9.64307C7.88746 126.471 5.60258 120.377 10.0045 112.855H11.3471C6.71275 120.532 9.26872 126.692 10.9727 129.428Z" fill="white"/>
<path d="M17.427 129.428H16.0974C14.4967 126.445 12.2893 120.247 15.865 112.855H17.1688C13.4511 120.364 15.865 126.64 17.427 129.428Z" fill="white"/>
<path d="M110.965 129.428H109.635C108.035 126.445 105.827 120.247 109.39 112.855H110.707C106.976 120.364 109.403 126.64 110.965 129.428Z" fill="white"/>
<path d="M104.33 129.428H103C101.399 126.445 99.192 120.247 102.755 112.855H104.059C100.328 120.377 102.768 126.64 104.33 129.428Z" fill="white"/>
<path d="M154.275 114.45V128.338H124.339C124.339 128.338 123.551 128.17 122.596 127.586C122.493 127.534 122.402 127.47 122.299 127.405C121.886 127.132 121.46 126.782 121.06 126.341C120.995 126.277 120.944 126.225 120.892 126.147C120.608 125.836 120.363 125.486 120.143 125.084C120.105 125.019 120.066 124.967 120.04 124.889C119.859 124.565 119.704 124.215 119.575 123.826C119.575 123.761 119.537 123.696 119.524 123.631C119.42 123.294 119.33 122.944 119.266 122.568C119.266 122.503 119.266 122.451 119.24 122.373C119.201 122.088 119.162 121.803 119.149 121.505C119.149 121.44 119.149 121.375 119.149 121.31C119.149 121.245 119.149 121.18 119.149 121.116C119.149 120.739 119.149 120.389 119.201 120.052C119.201 119.987 119.201 119.923 119.227 119.858C119.279 119.482 119.356 119.119 119.446 118.794C119.472 118.73 119.485 118.665 119.511 118.6C119.64 118.211 119.795 117.861 119.976 117.537C120.001 117.472 120.04 117.407 120.079 117.342C120.324 116.94 120.582 116.59 120.879 116.279C120.944 116.214 120.995 116.149 121.06 116.084C121.525 115.617 122.028 115.267 122.467 115.021C122.596 114.943 122.712 114.891 122.816 114.826C123.422 114.515 123.861 114.398 123.861 114.398H154.287L154.275 114.45Z" fill="white"/>
<path d="M154.275 114.865V115.06H122.454C122.583 114.982 122.699 114.93 122.803 114.865H154.262H154.275Z" fill="#1C1A49"/>
<path d="M154.275 116.123V116.318H120.879C120.944 116.253 120.995 116.188 121.06 116.123H154.287H154.275Z" fill="#FFB18A"/>
<path d="M154.275 116.123V116.318H120.879C120.944 116.253 120.995 116.188 121.06 116.123H154.287H154.275Z" fill="#1C1A49"/>
<path d="M154.275 117.381V117.575H119.976C120.001 117.511 120.04 117.446 120.079 117.381H154.275Z" fill="#FFB18A"/>
<path d="M154.275 117.381V117.575H119.976C120.001 117.511 120.04 117.446 120.079 117.381H154.275Z" fill="#1C1A49"/>
<path d="M154.275 118.626V118.82H119.446C119.472 118.756 119.485 118.691 119.511 118.626H154.287H154.275Z" fill="#1C1A49"/>
<path d="M154.274 119.884V120.078H119.201C119.201 120.013 119.201 119.949 119.227 119.884H154.274Z" fill="#1C1A49"/>
<path d="M154.275 121.142V121.336H119.162C119.162 121.271 119.162 121.206 119.162 121.142H154.288H154.275Z" fill="#1C1A49"/>
<path d="M154.275 122.386V122.581H119.279C119.279 122.581 119.279 122.464 119.253 122.386H154.275Z" fill="#1C1A49"/>
<path d="M154.274 123.644V123.839H119.575C119.575 123.839 119.537 123.709 119.524 123.644H154.274Z" fill="#1C1A49"/>
<path d="M154.275 124.902V125.096H120.156C120.156 125.096 120.079 124.98 120.053 124.902H154.275Z" fill="#1C1A49"/>
<path d="M154.275 126.147V126.341H121.06C121.06 126.341 120.944 126.225 120.892 126.147H154.275Z" fill="#1C1A49"/>
<path d="M154.274 127.405V127.586H122.596C122.493 127.534 122.402 127.47 122.299 127.405H154.274Z" fill="#1C1A49"/>
</g>
<defs>
<clipPath id="clip0_1_1619">
<rect width="161" height="146" fill="white"/>
</clipPath>
</defs>
</svg>
