<svg width="73" height="58" viewBox="0 0 73 58" fill="none" xmlns="http://www.w3.org/2000/svg">
<g clip-path="url(#clip0_1_149)">
<path d="M8.02898 7.5798C7.89108 3.63637 10.9645 0 15.1169 0H57.673C61.8254 0 64.8988 3.63637 64.7609 7.5798C64.6287 11.3683 64.8007 16.2755 66.0347 20.2758C67.2729 24.2889 69.3626 26.8264 72.7843 27.152V30.848C69.3626 31.1736 67.2729 33.7111 66.0347 37.7242C64.7993 41.7245 64.6287 46.6317 64.7609 50.4202C64.8988 54.3636 61.8254 58 57.673 58H15.1169C10.9645 58 7.89108 54.3636 8.02898 50.4202C8.16118 46.6317 7.98917 41.7245 6.75383 37.7242C5.51564 33.7111 3.42025 31.1736 -0.00146484 30.848V27.152C3.42025 26.8264 5.51422 24.2889 6.75383 20.2758C7.98917 16.2741 8.15976 11.3683 8.02898 7.5798Z" fill="url(#paint0_linear_1_149)"/>
<path d="M37.9702 44.4184C44.6942 44.4184 48.7457 41.126 48.7457 35.697C48.7457 31.593 45.8542 28.6205 41.5625 28.1499V27.9793C44.7155 27.4661 47.1905 24.5377 47.1905 21.2667C47.1905 16.6068 43.5115 13.5703 37.9048 13.5703H25.2898V44.4184H37.9702ZM30.1956 17.4825H36.7221C40.2703 17.4825 42.2847 19.0647 42.2847 21.9291C42.2847 24.9869 39.9419 26.6971 35.6928 26.6971H30.1956V17.4825ZM30.1956 40.5062V30.3519H36.678C41.3208 30.3519 43.7304 32.0621 43.7304 35.3971C43.7304 38.7321 41.3876 40.5062 36.9623 40.5062H30.1956Z" fill="url(#paint1_linear_1_149)" stroke="white"/>
</g>
<defs>
<linearGradient id="paint0_linear_1_149" x1="7.32814" y1="5.92794" x2="70.9291" y2="56.4135" gradientUnits="userSpaceOnUse">
<stop stop-color="#9013FE"/>
<stop offset="1" stop-color="#6610F2"/>
</linearGradient>
<linearGradient id="paint1_linear_1_149" x1="26.8891" y1="15.9671" x2="41.1047" y2="40.0101" gradientUnits="userSpaceOnUse">
<stop stop-color="white"/>
<stop offset="1" stop-color="#F1E5FC"/>
</linearGradient>
<clipPath id="clip0_1_149">
<rect width="72.7843" height="58" fill="white"/>
</clipPath>
</defs>
</svg>
