<svg width="40" height="40" viewBox="0 0 40 40" fill="none" xmlns="http://www.w3.org/2000/svg">
<circle cx="20" cy="20" r="20" fill="#072F53"/>
<path d="M33 13.875C33 12.7326 32.2224 11.756 31.1101 11.4993L20.5371 9.05931C20.3599 9.0195 20.1796 9 20 9C19.8204 9 19.6401 9.0195 19.4516 9.06175L8.88987 11.4993C7.77675 11.756 7 12.7326 7 13.875C7 15.0174 7.77756 15.994 8.88906 16.2507L11.0625 16.7521V23.625C11.0625 25.7814 13.5309 27.6875 20 27.6875C26.4691 27.6875 28.9375 25.7814 28.9375 23.625V16.7521L31.1101 16.2507C32.2224 15.994 33 15.0174 33 13.875ZM27.3125 23.625C27.3125 24.5228 24.875 26.0625 20 26.0625C15.125 26.0625 12.6875 24.5228 12.6875 23.625V17.1274L19.4621 18.6907C19.6392 18.7305 19.8204 18.75 20 18.75C20.1796 18.75 20.3608 18.7305 20.5476 18.6882L27.3125 17.1274V23.625ZM20.1828 17.1047C20.1219 17.1177 20.0609 17.125 20 17.125C19.9391 17.125 19.8773 17.1177 19.8172 17.1047L9.25469 14.6672C8.88581 14.5819 8.625 14.2536 8.625 13.875C8.625 13.4964 8.88581 13.1681 9.25469 13.0828L19.8172 10.6453C19.8773 10.6323 19.9382 10.625 20 10.625C20.0618 10.625 20.1227 10.6323 20.1828 10.6453L30.7453 13.0828C31.1134 13.1681 31.375 13.4964 31.375 13.875C31.375 14.2536 31.1134 14.5819 30.7453 14.6672L20.1828 17.1047Z" fill="#FBC108"/>
<path d="M30.5625 17.9375V25.25C30.5625 25.6993 30.9257 26.0625 31.375 26.0625C31.8235 26.0625 32.1875 25.6993 32.1875 25.25V17.9375C32.1875 17.4882 31.8235 17.125 31.375 17.125C30.9257 17.125 30.5625 17.4882 30.5625 17.9375Z" fill="#FBC108"/>
<path d="M31.375 26.875C30.4772 26.875 29.75 29.228 29.75 30.125C29.75 31.022 30.4772 31.75 31.375 31.75C32.272 31.75 33 31.022 33 30.125C33 29.228 32.272 26.875 31.375 26.875Z" fill="#FBC108"/>
</svg>
