<svg width="76" height="70" viewBox="0 0 76 70" fill="none" xmlns="http://www.w3.org/2000/svg">
<path d="M55.2504 63.3934H57.6119C57.6209 63.5967 57.6363 63.7812 57.6363 63.9658C57.6387 65.0366 57.646 66.1065 57.6322 67.1773C57.6282 67.4878 57.7159 67.6049 58.0448 67.5984C59.0599 67.5789 60.075 67.5919 61.0901 67.5895C61.1949 67.5895 61.2997 67.5699 61.4247 67.5569V49.4866H55.2138C55.2138 48.7077 55.2081 47.9817 55.2228 47.2557C55.2244 47.189 55.3413 47.1053 55.4225 47.067C55.4891 47.0353 55.5817 47.0581 55.6629 47.0581C57.8962 47.0581 60.1294 47.0573 62.3627 47.0581C63.4265 47.0589 63.8569 47.4971 63.8569 48.5695C63.8569 54.7217 63.8569 60.873 63.8569 67.0252V67.561C64.0218 67.5716 64.1631 67.5878 64.3052 67.5886C65.3877 67.5911 66.4719 67.6171 67.5536 67.5813C68.5045 67.5496 68.9341 68.1716 68.9553 68.7708C68.9804 69.4944 68.4038 69.9911 67.539 69.9928C64.5074 69.9968 61.4751 69.9952 58.4435 69.9952C39.806 69.9952 21.1693 69.9952 2.53176 69.9936C2.36934 69.9936 2.20611 69.9976 2.04532 69.9781C1.32499 69.8911 0.893772 69.3822 0.937625 68.6797C0.977417 68.0464 1.47442 67.5943 2.17119 67.5927C4.47185 67.5862 6.77332 67.5903 9.07398 67.5903C10.0079 67.5903 10.9426 67.5724 11.8757 67.5984C12.2712 67.6098 12.4157 67.5203 12.4044 67.0886C12.3719 65.8715 12.393 64.6536 12.393 63.404H14.7968V67.5618H18.0744V63.3975H20.4977V67.5911C20.6893 67.5911 20.8339 67.5911 20.9793 67.5911C21.9132 67.5911 22.8479 67.5659 23.7802 67.6017C24.2146 67.6187 24.2893 67.4642 24.2869 67.0716C24.2707 64.4561 24.2788 61.8414 24.2788 59.2258C24.2788 45.6759 24.2788 32.1252 24.2788 18.5753C24.2788 18.4396 24.2731 18.3038 24.2845 18.1688C24.3478 17.4623 24.7896 17.0241 25.5002 17.0086C26.3797 16.9891 27.2592 17.0029 28.1395 16.9997C28.2978 16.9997 28.4562 16.9859 28.6511 16.9769C28.6511 16.7501 28.6511 16.5623 28.6511 16.3745C28.6511 15.0468 28.6478 13.7183 28.6527 12.3906C28.656 11.5191 29.1432 11.0321 30.017 11.0313C33.4822 11.028 36.9466 11.0296 40.4118 11.0296C40.584 11.0296 40.7553 11.0296 40.9527 11.0296V8.28079C40.7789 8.27184 40.6205 8.25558 40.4622 8.25558C38.1477 8.25396 35.8332 8.25558 33.5188 8.24989C33.2914 8.24989 33.0526 8.24095 32.8407 8.17103C32.3274 8.00355 31.9937 7.4393 32.0635 6.92547C32.1415 6.35554 32.5703 5.90187 33.1363 5.88155C34.0556 5.84984 34.9765 5.86528 35.8966 5.86122C36.0834 5.86041 36.2701 5.86122 36.4935 5.86122C36.5024 5.66935 36.5146 5.52625 36.5146 5.38235C36.5162 4.02703 36.5138 2.67253 36.517 1.31721C36.5186 0.537521 36.9978 0.0090539 37.7002 0.000110608C38.4189 -0.00883269 38.92 0.525326 38.9233 1.32534C38.9289 2.66684 38.9249 4.00833 38.9249 5.34983V5.83439C39.097 5.84415 39.2408 5.85878 39.3845 5.85878C40.2372 5.86122 41.0899 5.85797 41.9426 5.86203C42.9366 5.86691 43.3816 6.31082 43.3833 7.29784C43.3849 8.51656 43.3833 9.73529 43.3833 11.028C43.5847 11.028 43.7666 11.028 43.9485 11.028C44.3951 11.028 44.8418 11.028 45.2884 11.028C46.3442 11.0288 46.7835 11.4735 46.7843 12.5427C46.7859 13.8573 46.7843 15.1712 46.7851 16.4859C46.7851 16.633 46.7851 16.7802 46.7851 16.9672C46.9622 16.9794 47.1059 16.9964 47.2488 16.9972C48.0203 16.9997 48.7918 16.9972 49.5633 16.9972C50.7717 16.9972 51.1477 17.3664 51.1485 18.5672C51.1501 24.0958 51.1485 29.6244 51.1485 35.1529C51.1485 45.7621 51.1485 56.3713 51.1485 66.9805C51.1485 67.5895 51.1501 67.5895 51.7657 67.5895C52.754 67.5895 53.7423 67.5708 54.7298 67.5984C55.1302 67.6098 55.2731 67.5122 55.2609 67.0846C55.2301 66.0146 55.2504 64.9439 55.2504 63.8731C55.2504 63.726 55.2504 63.5788 55.2504 63.391V63.3934ZM26.6785 43.4832C26.6785 51.3265 26.6785 59.1698 26.6785 67.0138C26.6785 67.3981 26.8677 67.5905 27.2462 67.5911C34.2415 67.5911 41.2369 67.5911 48.2331 67.5911C48.5839 67.5911 48.7593 67.4117 48.7593 67.0529C48.7593 51.3663 48.7593 35.679 48.7593 19.9924C48.7593 19.593 48.5628 19.393 48.1697 19.3924C41.1874 19.3924 34.2058 19.3924 27.2234 19.3924C26.8602 19.3924 26.6785 19.5791 26.6785 19.9526C26.6785 27.7959 26.6785 35.6399 26.6785 43.4832ZM37.7197 13.4386C35.6367 13.4386 33.5537 13.4435 31.4707 13.4329C31.1653 13.4313 31.0403 13.4988 31.0484 13.8354C31.0711 14.7557 31.0654 15.6769 31.0508 16.5972C31.046 16.885 31.1117 17.0062 31.4285 17.0054C35.6213 16.9972 39.8141 16.9972 44.007 17.0054C44.3196 17.0054 44.3943 16.8899 44.3886 16.5989C44.3732 15.6915 44.3643 14.7842 44.3911 13.8777C44.4024 13.5061 44.2725 13.4281 43.9274 13.4305C41.8582 13.4451 39.7889 13.4378 37.7189 13.4378L37.7197 13.4386Z" fill="white"/>
<path d="M20.4783 37.4896V39.8547C20.3118 39.8637 20.1429 39.8807 19.9748 39.8807C16.2132 39.8824 12.4515 39.8824 8.68993 39.8824C8.33964 39.8824 8.1645 40.0615 8.1645 40.4198C8.1645 48.1956 8.1645 55.9705 8.1645 63.7463C8.1645 63.9195 8.1645 64.0919 8.1645 64.291H5.78751C5.77939 64.1366 5.76477 63.9927 5.76477 63.8479C5.76396 55.5713 5.76396 47.2947 5.76477 39.0173C5.76477 37.8994 6.16919 37.4904 7.27364 37.4896C11.4949 37.4888 15.717 37.4896 19.9382 37.4896H20.4791H20.4783Z" fill="white"/>
<path d="M8.2333 11.1711C8.78796 11.1711 9.34343 11.1524 9.89728 11.1776C10.214 11.1922 10.3602 11.0995 10.4779 10.7841C11.6173 7.72302 15.4796 6.83275 17.8509 9.07264C18.382 9.57428 18.7726 10.1727 19.0008 10.8654C19.0788 11.1011 19.1909 11.1841 19.4345 11.1768C19.9615 11.1605 20.4902 11.167 21.0173 11.1743C21.6783 11.1841 22.1721 11.6361 22.211 12.2573C22.2541 12.9329 21.8578 13.5012 21.1886 13.5345C20.0964 13.5882 18.9976 13.5866 17.9053 13.5345C17.2459 13.5036 16.9024 13.0158 16.8577 12.2638C16.796 11.2231 16.0083 10.3637 15.0143 10.2532C13.9017 10.1288 12.9532 10.7515 12.6673 11.8093C12.608 12.0288 12.6089 12.2638 12.5731 12.4906C12.4724 13.124 12.0729 13.5467 11.4354 13.5565C9.77141 13.5833 8.10662 13.5849 6.44264 13.5581C5.7548 13.5467 5.25942 12.9817 5.2781 12.3426C5.29759 11.667 5.81164 11.1808 6.52629 11.1727C7.09475 11.1662 7.66321 11.1711 8.23087 11.1711H8.2333Z" fill="white"/>
<path d="M57.9214 32.6293C57.124 32.6293 56.3257 32.6317 55.5282 32.6277C54.7827 32.6236 54.254 32.1407 54.2386 31.4585C54.2232 30.7894 54.7502 30.2479 55.486 30.2349C56.6213 30.2154 57.7582 30.2154 58.8935 30.2366C59.2338 30.2431 59.4027 30.1528 59.5578 29.826C60.266 28.3341 61.4638 27.5267 63.1213 27.5243C64.7804 27.521 65.9782 28.3292 66.6872 29.8211C66.8431 30.1488 67.0055 30.2634 67.3498 30.2349C67.7129 30.2049 68.0799 30.2187 68.4445 30.2325C69.1795 30.2609 69.7098 30.7837 69.6968 31.4528C69.6838 32.1366 69.1576 32.6236 68.4129 32.6277C67.5748 32.6326 66.7359 32.6334 65.8978 32.6277C65.1978 32.6228 64.769 32.2399 64.6594 31.5415C64.6277 31.3415 64.6188 31.1341 64.5571 30.9447C64.3272 30.2431 63.6638 29.8463 62.9028 29.9341C62.2174 30.0138 61.6758 30.5951 61.5978 31.335C61.4963 32.296 61.1276 32.6277 60.1531 32.6301C59.4092 32.6317 58.6653 32.6301 57.9223 32.6301L57.9214 32.6293Z" fill="white"/>
<path d="M69.946 37.1758C69.0795 37.1758 68.2138 37.1791 67.3473 37.175C66.5856 37.1718 66.0748 36.7035 66.0634 36.0091C66.0521 35.2896 66.5547 34.775 67.3246 34.7701C69.0974 34.7579 70.8702 34.7571 72.643 34.7701C73.3796 34.7758 73.9074 35.3107 73.8993 35.9864C73.8912 36.6717 73.3625 37.1701 72.6243 37.1742C71.731 37.1799 70.8377 37.1758 69.9444 37.1758H69.946Z" fill="white"/>
<path d="M73.0969 67.5919C73.6508 67.5919 74.2038 67.5854 74.7576 67.5943C75.4455 67.6057 75.9392 68.0602 75.9717 68.6968C76.0058 69.3805 75.5908 69.9171 74.8908 69.9667C74.125 70.0212 73.3535 69.9911 72.5845 69.9952C72.2199 69.9976 71.8552 70.0058 71.4914 69.9928C70.7134 69.9667 70.2083 69.4781 70.2132 68.7708C70.2189 68.0634 70.7305 67.5984 71.5182 67.5919C72.0444 67.5878 72.5715 67.5911 73.0977 67.5919H73.0969Z" fill="white"/>
<path d="M18.1084 44.402H20.4756V49.0809H18.1084V44.402Z" fill="white"/>
<path d="M14.7783 49.0899H12.4192V44.4036H14.7783V49.0899Z" fill="white"/>
<path d="M12.4077 58.5543V53.9014H14.7733V58.5543H12.4077Z" fill="white"/>
<path d="M18.1345 53.8892H20.4669V58.5519H18.1345V53.8892Z" fill="white"/>
<path d="M55.2519 53.8908H57.6046C57.616 54.0315 57.6363 54.1616 57.6363 54.2908C57.6387 55.577 57.6289 56.8641 57.6436 58.1503C57.6476 58.473 57.568 58.6153 57.2172 58.5991C56.6642 58.5739 56.1087 58.5893 55.5541 58.5926C55.364 58.5942 55.2487 58.5454 55.2495 58.3218C55.2544 56.8608 55.2519 55.399 55.2519 53.89V53.8908Z" fill="white"/>
<path d="M60.814 35.892C61.1925 35.892 61.5717 35.8822 61.9501 35.8944C62.5884 35.9148 63.0733 36.392 63.1163 37.0237C63.1553 37.6018 62.7549 38.1945 62.1515 38.2384C61.2387 38.3051 60.3146 38.3091 59.4026 38.24C58.7676 38.1921 58.3802 37.5774 58.446 36.9465C58.5085 36.3505 59.0039 35.9066 59.6373 35.8928C60.0295 35.8839 60.4218 35.8912 60.814 35.892Z" fill="white"/>
<path d="M44.78 24.0479V26.4032H30.6602V24.0479H44.78Z" fill="white"/>
<path d="M30.6278 33.6579C30.6278 32.918 30.6278 32.2155 30.6278 31.5139C30.6278 31.2041 30.8616 31.2757 31.0362 31.2757C33.0104 31.2724 34.9838 31.2732 36.958 31.2732C39.4325 31.2732 41.9069 31.2798 44.3806 31.2667C44.7184 31.2651 44.8264 31.3594 44.8142 31.6985C44.7898 32.3432 44.8069 32.9895 44.8069 33.6587H30.627L30.6278 33.6579Z" fill="white"/>
<path d="M44.7768 45.854V48.1988C44.6152 48.2061 44.4828 48.2183 44.3513 48.2183C39.9302 48.2191 35.5092 48.2134 31.0882 48.228C30.7024 48.2297 30.5993 48.1077 30.6172 47.7459C30.6423 47.2191 30.6326 46.6906 30.6212 46.163C30.6155 45.9101 30.6878 45.806 30.9639 45.806C35.4791 45.8133 39.9952 45.8109 44.5104 45.8133C44.5998 45.8133 44.6891 45.8402 44.7768 45.854Z" fill="white"/>
<path d="M44.7743 55.4681H44.3171C39.9082 55.4681 35.4986 55.4632 31.0897 55.477C30.7097 55.4778 30.6016 55.3672 30.6163 55.0006C30.6414 54.3688 30.6236 53.7355 30.6236 53.0802H44.7743V55.4673V55.4681Z" fill="white"/>
<path d="M30.6285 40.9393C30.6285 40.1888 30.6171 39.488 30.6431 38.788C30.6463 38.7051 30.8493 38.5652 30.9647 38.5612C31.5859 38.5384 32.2096 38.549 32.8317 38.549C36.6477 38.549 40.4637 38.549 44.2797 38.549C44.6306 38.549 44.8065 38.7276 44.8076 39.0847C44.8084 39.5587 44.7897 40.0344 44.8141 40.5067C44.8311 40.8409 44.7223 40.949 44.3821 40.9458C42.515 40.9311 40.6472 40.9401 38.7802 40.9401C36.223 40.9401 33.6649 40.9401 31.1076 40.9393C30.9622 40.9393 30.8177 40.9393 30.6301 40.9393H30.6285Z" fill="white"/>
<path d="M30.6449 62.7235V60.3584C30.8 60.3487 30.9421 60.3332 31.085 60.3332C35.4833 60.3316 39.8824 60.3324 44.2807 60.3332C44.8061 60.3332 44.8069 60.3348 44.8077 60.8723C44.8077 61.3462 44.7891 61.8219 44.8134 62.2942C44.8313 62.63 44.7209 62.7341 44.3814 62.7316C42.1888 62.7178 39.9961 62.7243 37.8035 62.7243C35.597 62.7243 33.3914 62.7243 31.1849 62.7243C31.0249 62.7243 30.8641 62.7243 30.644 62.7243L30.6449 62.7235Z" fill="white"/>
</svg>
