<svg width="19" height="19" viewBox="0 0 19 19" fill="none" xmlns="http://www.w3.org/2000/svg">
<path fill-rule="evenodd" clip-rule="evenodd" d="M9.72299 0.692871C4.58202 0.692871 0.446045 4.80959 0.446045 9.92664C0.446045 14.0049 3.11317 17.4675 6.78529 18.6987C7.24914 18.7757 7.40375 18.5063 7.40375 18.237C7.40375 18.0062 7.40375 17.4291 7.40375 16.6596C4.81394 17.2367 4.27278 15.4284 4.27278 15.4284C3.84759 14.3512 3.22913 14.0818 3.22913 14.0818C2.37874 13.5047 3.30644 13.5047 3.30644 13.5047C4.23413 13.5817 4.73663 14.4666 4.73663 14.4666C5.54836 15.8901 6.90125 15.4669 7.44241 15.2361C7.51971 14.6205 7.75164 14.2357 8.02221 14.0049C5.97356 13.774 3.80894 12.9661 3.80894 9.42647C3.80894 8.42615 4.15682 7.57972 4.77528 6.96414C4.69798 6.73329 4.35009 5.80992 4.85259 4.5018C4.85259 4.5018 5.62567 4.27096 7.40375 5.46365C8.13818 5.27128 8.94991 5.15586 9.72299 5.15586C10.4961 5.15586 11.3078 5.27128 12.0422 5.46365C13.8203 4.27096 14.5934 4.5018 14.5934 4.5018C15.0959 5.77144 14.7867 6.69482 14.6707 6.96414C15.2505 7.6182 15.637 8.42615 15.637 9.42647C15.637 12.9661 13.4724 13.7356 11.3851 13.9664C11.733 14.2357 12.0036 14.8128 12.0036 15.6593C12.0036 16.8904 12.0036 17.8908 12.0036 18.1986C12.0036 18.4294 12.1582 18.7372 12.6607 18.6602C16.3328 17.4675 18.9999 14.0049 18.9999 9.92664C18.9999 4.80959 14.864 0.692871 9.72299 0.692871Z" fill="#131313"/>
</svg>
