<svg width="105" height="179" viewBox="0 0 105 179" fill="none" xmlns="http://www.w3.org/2000/svg">
<g clip-path="url(#clip0_1_1531)">
<path d="M-5.55133 144.967C-0.358245 138.066 12.1459 124.241 12.7439 123.014C14.3873 119.624 17.2533 113.641 19.3643 108.699C22.5005 101.361 33.6936 82.8473 43.721 74.9432C54.1688 66.7066 83.8781 50.4521 86.5696 53.9686C89.2709 57.4876 71.2981 111.465 65.7424 118.29C60.1868 125.114 51.7814 130.327 47.1794 133.09C44.082 134.951 38.4831 139.735 35.1519 142.663C34.2284 143.482 25.782 152.865 18.8295 159.958C9.63608 157.794 1.27145 152.075 -5.56099 144.964L-5.55133 144.967Z" fill="#DB7D71"/>
<path d="M50.5407 117.571L62.0744 121.779L62.3263 121.226L91.5227 55.5754L92.0575 54.3521L92.5119 40.1767L81.0989 50.277L80.444 51.7165L50.8255 116.933L50.5407 117.571Z" fill="#FFF69F"/>
<path d="M89.5713 53.1992L59.3446 119.102" stroke="#492A51" stroke-linecap="round" stroke-linejoin="round"/>
<path d="M83.572 50.6289L54.5389 116.52" stroke="#492A51" stroke-linecap="round" stroke-linejoin="round"/>
<path d="M50.5407 117.571L53.5856 118.687L58.9716 120.648L62.0841 121.782L62.3386 121.218C61.1303 118.928 58.9377 117.181 56.4134 116.556C54.58 116.096 52.6029 116.249 50.8378 116.926L50.5503 117.573L50.5407 117.571Z" fill="#EFC1BD"/>
<path d="M59.0901 121.094C59.0901 121.094 59.092 121.125 59.0991 121.138C59.1236 121.123 59.1068 121.109 59.0901 121.094Z" fill="#5D3080"/>
<path d="M53.576 118.684L58.962 120.645C58.627 119.654 57.8331 118.831 56.8499 118.443C55.7991 118.037 54.57 118.143 53.5786 118.674L53.576 118.684Z" fill="black"/>
<path d="M83.6206 50.9113L85.1328 55.4679L89.5712 53.1993L91.5227 55.5754L92.0575 54.3521L92.364 44.7855L92.5119 40.1767L88.9292 43.3475L81.0989 50.277L80.444 51.7165L83.6206 50.9113Z" fill="white"/>
<path d="M88.9293 43.3476C89.2273 44.09 89.9184 44.679 90.713 44.8815C91.3435 45.0401 91.9046 44.9937 92.3712 44.7978L92.5217 40.1794L88.9363 43.3598L88.9293 43.3476Z" fill="#5D3080"/>
<path d="M32.8462 95.0124C32.8462 95.0124 70.2982 60.0235 77.0659 66.7959C84.2892 74.032 62.0399 90.805 60.6214 93.0855C59.2028 95.3661 53.9205 110.598 45.465 120.517L32.8488 95.0028L32.8462 95.0124Z" fill="#DB7D71"/>
<path d="M39.097 90.8484C39.097 90.8484 49.6573 79.5258 57.8685 74.0339C66.0797 68.542 74.6875 62.6904 77.9787 67.9101C81.2699 73.1298 71.7274 82.199 70.4336 83.5502C69.1302 84.8988 62.6006 90.6446 61.569 91.9832C60.5373 93.3218 56.1442 98.667 56.1442 98.667C56.1442 98.667 54.4208 113.444 44.9138 119.831" stroke="#492A51" stroke-linecap="round" stroke-linejoin="round"/>
<path d="M77.1322 71.2237C77.1691 72.6312 76.5016 73.8086 75.7538 74.8609C74.8892 76.0786 73.8572 77.148 72.6877 78.0355C71.7883 78.7263 70.6648 79.3259 69.5379 78.9722C68.6306 78.6877 67.963 77.8566 67.3552 77.0726C66.9327 76.5245 66.5101 75.9765 66.1295 75.3879C65.5952 74.5615 65.1331 73.6198 65.1955 72.653C65.2907 71.1773 66.4602 70.2898 67.5439 69.607C69.3334 68.4922 71.9744 66.3632 74.299 67.0378C74.9339 67.2183 75.5016 67.6499 75.9415 68.1716C76.6433 68.9911 77.0691 70.068 77.1213 71.1483C77.1161 71.1677 77.1206 71.1896 77.1251 71.2115L77.1322 71.2237Z" fill="#EFC1BD"/>
<path d="M78.4642 104.078C78.4642 104.078 80.8772 111.03 72.5293 114.559C64.1813 118.089 59.1633 114.291 59.2149 110.505C59.2594 106.707 63.9937 104.725 63.9937 104.725L78.4642 104.078Z" fill="#DB7D71"/>
<path d="M82.7736 92.3232C82.7736 92.3232 85.076 99.2242 80.324 102.972C75.5624 106.717 64.2039 109.544 62.5761 104.646C61.2533 100.657 63.4323 97.5866 69.6865 94.8004C75.9382 92.0238 80.2194 90.3033 80.2194 90.3033L82.7762 92.3135L82.7736 92.3232Z" fill="#DB7D71"/>
<path d="M69.4286 98.738C71.1601 98.7671 72.9608 99.5809 73.7236 101.1C73.9042 101.469 74.0261 101.864 74.0507 102.275C74.0941 103.156 73.6524 104.032 73.0088 104.656C72.3652 105.281 71.5286 105.699 70.6747 105.988C69.5792 106.367 68.404 106.58 67.2615 106.44C66.1189 106.299 65.0019 105.793 64.2744 104.914C63.2594 103.68 63.2528 101.618 64.341 100.377C65.4021 99.1602 67.9252 98.7078 69.4312 98.7283L69.4286 98.738Z" fill="#EFC1BD"/>
<path d="M81.1342 78.8911L79.5007 83.1329C79.5007 83.1329 72.8916 86.9731 76.0902 91.4951C79.2791 96.0144 85.5677 91.4775 87.2144 89.6204C88.8612 87.7633 89.8877 83.7006 87.0925 81.1502C84.6268 78.9159 82.278 78.5247 81.1368 78.8815L81.1342 78.8911Z" fill="#DB7D71"/>
<path d="M85.8816 86.5198C85.0006 85.2485 83.2504 84.7485 81.7664 85.148C81.3424 85.2621 80.9293 85.4517 80.5426 85.6586C79.2205 86.3811 78.0275 87.5108 77.6489 88.9623C77.2581 90.4208 77.9124 92.1905 79.3173 92.7429C81.1632 93.4653 83.7145 92.0576 85.1876 91.003C86.5305 90.048 86.8198 87.8479 85.8964 86.5031L85.8816 86.5198Z" fill="#EFC1BD"/>
<path d="M81.1608 81.9213C81.1608 81.9213 76.2184 84.4483 75.297 87.887C74.3756 91.3256 77.8478 93.8607 80.3753 93.4302C82.0563 93.1456 82.9695 92.7898 82.9695 92.7898" stroke="#492A51" stroke-linecap="round" stroke-linejoin="round"/>
<path d="M78.575 104.284C78.1585 104.525 77.6559 104.7 77.3504 104.836C74.9309 105.906 72.7784 106.831 70.1511 107.131C69.0843 107.249 67.9976 107.248 66.9323 107.128C65.4747 106.965 63.7749 106.354 62.7494 105.313" stroke="#492A51" stroke-linecap="round" stroke-linejoin="round"/>
<path d="M67.2495 115.95C67.0884 116.011 66.9113 116.015 66.7367 116.009C65.5824 115.99 64.3894 115.96 63.3174 115.518" stroke="#492A51" stroke-linecap="round" stroke-linejoin="round"/>
<path d="M61.2755 108.418C62.0664 107.977 63.0115 107.889 63.9236 107.885C64.62 107.875 65.3324 107.921 66.0111 108.092C67.3827 108.46 68.6151 109.463 69.0483 110.821C69.484 112.17 68.9809 113.816 67.7774 114.56C66.9245 115.077 65.8687 115.115 64.8633 115.042C63.6955 114.957 62.4867 114.716 61.5774 113.975C61.1681 113.648 60.8427 113.24 60.5417 112.818C60.3378 112.535 60.1392 112.233 59.9991 111.906C59.5585 110.846 59.8596 109.529 60.7166 108.765" fill="#EFC1BD"/>
<path d="M19.9004 161.911L27.5244 152.97L1.90399 132.791L-8.60015 144.522L16.9629 165.803L19.9004 161.911Z" fill="#7897DD"/>
<path d="M1.51665 140.535C1.03377 141.41 1.35002 142.509 2.22485 142.992C3.09969 143.475 4.199 143.158 4.68188 142.284C5.16475 141.409 4.8485 140.309 3.97367 139.827C3.09884 139.344 1.99952 139.66 1.51665 140.535Z" fill="white"/>
<path d="M90.024 37.0978C84.8616 29.6271 78.2119 23.1866 70.591 18.2458C68.0068 16.5699 65.1002 15.0146 62.0325 15.2589C57.3593 15.6218 53.8986 20.1918 53.1851 24.825C52.4717 29.4582 53.8388 34.1313 55.1822 38.622C56.0715 41.5624 57.0289 44.6349 59.1726 46.8347C61.3163 49.0345 65.0351 50.0309 67.5064 48.1877C69.3684 46.8024 69.9873 44.1834 69.543 41.9006C69.0987 39.6178 67.7961 37.602 66.4082 35.7497C60.3158 27.6157 52.0391 21.1429 42.6694 17.2037C37.6352 15.0887 31.9316 13.695 26.7602 15.4151C21.0668 17.306 17.0504 22.752 15.6327 28.5838C14.2054 34.413 15.0283 40.576 16.5609 46.3701C17.9178 51.5063 20.0198 56.7594 24.2371 59.991C28.4544 63.2226 35.268 63.5264 38.6096 59.4007C40.8862 56.584 40.9801 52.4473 39.5637 49.1173C38.1473 45.7872 35.4308 43.1751 32.4999 41.0543C23.2565 34.364 11.0752 31.8765 -0.0504759 34.4134" stroke="#7897DD" stroke-miterlimit="10"/>
</g>
<defs>
<clipPath id="clip0_1_1531">
<rect width="99.48" height="158.07" fill="white" transform="matrix(-0.965926 -0.258819 -0.258819 0.965926 105.002 25.7476)"/>
</clipPath>
</defs>
</svg>
