<svg width="598" height="523" viewBox="0 0 598 523" fill="none" xmlns="http://www.w3.org/2000/svg">
<g clip-path="url(#clip0_1_244)">
<path d="M0 299.068C0 385.399 36.58 463.19 95.0768 517.793C96.9683 519.546 98.8771 521.282 100.803 523H497.197C499.123 521.282 501.032 519.546 502.923 517.793C561.42 463.19 598 385.399 598 299.068C598 133.905 464.122 0 298.991 0C133.861 0 0 133.905 0 299.068Z" fill="white" fill-opacity="0.13"/>
<path d="M42.6708 523H572.266C575.632 523 575.372 517.793 572.04 517.793H42.4279C39.0787 517.793 39.3217 523 42.6708 523Z" fill="#FBC108"/>
<path d="M513.89 127.326L372.533 157.926L214.17 29.8703L45.8464 214.438L108.144 368.615L122.46 268.312L433.268 210.793L515.469 300.647L513.89 127.326Z" stroke="#F2DBB5" stroke-width="0.5" stroke-miterlimit="10"/>
<path d="M433.268 210.793L372.533 157.926L159.717 125.99L122.46 268.312L45.8464 214.438" stroke="#F2DBB5" stroke-width="0.5" stroke-miterlimit="10"/>
<path d="M372.533 157.926L377.774 58.6472L214.17 29.8703" stroke="#F2DBB5" stroke-width="0.5" stroke-miterlimit="10"/>
<path d="M159.717 125.99L433.268 210.793L513.89 127.326" stroke="#F2DBB5" stroke-width="0.5" stroke-miterlimit="10"/>
<path d="M380.516 112.14C404.044 112.14 423.117 93.0625 423.117 69.5297C423.117 45.9969 404.044 26.9198 380.516 26.9198C356.987 26.9198 337.914 45.9969 337.914 69.5297C337.914 93.0625 356.987 112.14 380.516 112.14Z" fill="#FCA311"/>
<path d="M410.606 63.8021H395.075V65.5377H410.606V63.8021Z" fill="#072F53"/>
<path d="M386.398 63.8021H350.426V65.5377H386.398V63.8021Z" fill="#072F53"/>
<path d="M410.606 76.4202H400.003V78.1558H410.606V76.4202Z" fill="#072F53"/>
<path d="M377.67 76.4202H350.426V78.1558H377.67V76.4202Z" fill="#072F53"/>
<path d="M410.606 89.0382H388.186V90.7739H410.606V89.0382Z" fill="#072F53"/>
<path d="M385.652 89.0382H350.426V90.7739H385.652V89.0382Z" fill="#072F53"/>
<path d="M385.461 95.7378V90.5656C380.498 89.6284 376.923 85.6538 376.785 80.5857C376.715 78.1558 378.017 75.3267 379.943 73.7126C381.661 72.272 383.57 71.4736 385.461 71.3695V57.8141C381.8 54.6032 378.746 51.4096 378.78 47.3309C378.815 43.7381 381.366 39.5899 386.155 38.5659L387.196 38.3403V56.9984C387.63 57.3802 388.081 57.7621 388.533 58.1439C394.311 63.0558 400.853 68.6098 400.853 77.9996C400.853 85.1504 395.092 90.7392 387.752 90.7392C387.561 90.7392 387.37 90.7392 387.196 90.7392V95.7031C387.196 97.3693 388.55 98.7231 390.216 98.7231C391.726 98.7231 392.298 97.3867 392.316 97.3346L393.929 97.9768C393.895 98.0809 392.923 100.459 390.216 100.459C387.509 100.459 385.461 98.3239 385.461 95.7031V95.7378ZM387.196 71.4736C387.63 71.543 388.064 71.6645 388.481 71.8207C390.875 72.7059 392.593 74.7366 393.01 77.1491L391.292 77.4442C390.997 75.6391 389.678 74.1118 387.873 73.4522C387.648 73.3654 387.422 73.296 387.179 73.244V89.0383C387.37 89.0383 387.543 89.0383 387.734 89.0383C394.103 89.0383 399.101 84.1958 399.101 78.0343C399.101 69.4429 392.888 64.1666 387.405 59.4977C387.335 59.4283 387.266 59.3762 387.179 59.3068V71.4736H387.196ZM381.071 75.049C379.544 76.3334 378.485 78.6418 378.52 80.551C378.624 84.7165 381.435 87.9275 385.461 88.8126V73.1225C383.969 73.2266 382.442 73.8861 381.071 75.049ZM380.516 47.3656C380.481 50.3335 382.581 52.8676 385.461 55.5057V40.5792C381.886 41.8462 380.533 45.2134 380.516 47.3656Z" fill="#072F53"/>
<path d="M390.32 95.7378C390.32 94.1931 391.587 92.9261 393.131 92.9261C394.675 92.9261 395.942 94.1931 395.942 95.7378C395.942 97.2825 394.675 98.5496 393.131 98.5496C391.587 98.5496 390.32 97.2825 390.32 95.7378ZM392.055 95.7378C392.055 96.3279 392.541 96.8139 393.131 96.8139C393.721 96.8139 394.207 96.3279 394.207 95.7378C394.207 95.1477 393.721 94.6617 393.131 94.6617C392.541 94.6617 392.055 95.1477 392.055 95.7378Z" fill="#072F53"/>
<path d="M433.268 253.178C456.797 253.178 475.87 234.101 475.87 210.568C475.87 187.035 456.797 167.958 433.268 167.958C409.74 167.958 390.667 187.035 390.667 210.568C390.667 234.101 409.74 253.178 433.268 253.178Z" fill="#FCA311"/>
<path d="M412.983 240.664H414.718V235.804C414.718 229.382 417.79 223.255 422.909 219.419L428.601 215.15L427.559 213.761L421.868 218.031C416.297 222.214 412.983 228.861 412.983 235.804V240.664Z" fill="#072F53"/>
<path d="M438.96 207.374L444.652 203.104C450.222 198.922 453.537 192.274 453.537 185.332V180.472H451.802V185.332C451.802 191.753 448.73 197.88 443.611 201.716L437.919 205.986L438.96 207.374Z" fill="#072F53"/>
<path d="M451.819 240.664H453.554V235.804C453.554 228.844 450.222 222.196 444.669 218.031L422.926 201.716C417.79 197.863 414.736 191.736 414.736 185.332V180.472H413V185.332C413 192.291 416.315 198.939 421.885 203.104L443.628 219.419C448.765 223.273 451.819 229.399 451.819 235.804V240.664Z" fill="#072F53"/>
<path d="M452.687 183.492H421.625V185.227H452.687V183.492Z" fill="#072F53"/>
<path d="M450.743 191.25H422.596V192.986H450.743V191.25Z" fill="#072F53"/>
<path d="M446.856 199.026H428.41V200.761H446.856V199.026Z" fill="#072F53"/>
<path d="M444.912 235.908H413.851V237.644H444.912V235.908Z" fill="#072F53"/>
<path d="M443.941 228.15H415.794V229.885H443.941V228.15Z" fill="#072F53"/>
<path d="M438.127 220.374H419.681V222.11H438.127V220.374Z" fill="#072F53"/>
<path d="M159.716 161.709C183.245 161.709 202.318 142.632 202.318 119.1C202.318 95.5667 183.245 76.4896 159.716 76.4896C136.188 76.4896 117.115 95.5667 117.115 119.1C117.115 142.632 136.188 161.709 159.716 161.709Z" fill="#FCA311"/>
<path d="M133.826 141.142H144.134V139.406H133.826C133.323 139.406 132.906 138.99 132.906 138.487V95.6337C132.906 95.1303 133.323 94.7138 133.826 94.7138H185.607C186.11 94.7138 186.527 95.1303 186.527 95.6337V138.487C186.527 138.99 186.11 139.406 185.607 139.406H175.299V141.142H185.607C187.065 141.142 188.262 139.945 188.262 138.487V95.6337C188.262 94.1757 187.065 92.9781 185.607 92.9781H133.826C132.368 92.9781 131.171 94.1757 131.171 95.6337V138.487C131.171 139.945 132.368 141.142 133.826 141.142Z" fill="#072F53"/>
<path d="M140.993 135.779H142.745V134.043H142.659C142.294 131.804 140.507 130.017 138.268 129.652V104.468C140.507 104.104 142.294 102.316 142.659 100.077H176.774C177.139 102.316 178.926 104.104 181.165 104.468V129.652C178.926 130.017 177.139 131.804 176.774 134.043H169.816V135.779H178.44V134.911C178.44 132.933 180.054 131.318 182.032 131.318H182.9V102.802H182.032C180.054 102.802 178.44 101.188 178.44 99.2091V98.3413H140.993V99.2091C140.993 101.188 139.379 102.802 137.401 102.802H136.533V131.318H137.401C139.379 131.318 140.993 132.933 140.993 134.911V135.779Z" fill="#072F53"/>
<path d="M165.946 106.377H153.452V108.113H165.946V106.377Z" fill="#072F53"/>
<path d="M171.308 112.626H148.107V114.361H171.308V112.626Z" fill="#072F53"/>
<path d="M156.576 142.062L156.454 141.941C155.951 141.437 155.257 141.142 154.545 141.142H154.372C151.925 141.142 149.929 139.146 149.929 136.699V136.525C149.929 135.796 149.652 135.119 149.149 134.616L149.027 134.495C147.292 132.759 147.292 129.947 149.027 128.212L149.149 128.09C149.652 127.587 149.947 126.893 149.947 126.181V126.007C149.947 123.56 151.942 121.564 154.389 121.564H154.563C155.291 121.564 155.968 121.286 156.471 120.766L156.593 120.644C158.328 118.909 161.139 118.909 162.875 120.644L162.996 120.766C163.499 121.269 164.176 121.564 164.905 121.564H165.079C167.525 121.564 169.521 123.56 169.521 126.007V126.181C169.521 126.91 169.799 127.587 170.319 128.09L170.441 128.212C172.176 129.947 172.176 132.759 170.441 134.495L170.319 134.616C169.816 135.119 169.521 135.814 169.521 136.525V136.699C169.521 139.146 167.525 141.142 165.079 141.142H164.905C164.176 141.142 163.499 141.42 162.996 141.941L162.875 142.062C162.007 142.93 160.879 143.364 159.734 143.364C158.589 143.364 157.461 142.93 156.593 142.062H156.576ZM164.888 123.282C163.708 123.282 162.58 122.814 161.747 121.981L161.625 121.859C160.567 120.8 158.849 120.8 157.808 121.859L157.686 121.981C156.853 122.814 155.743 123.282 154.545 123.282H154.372C152.879 123.282 151.665 124.497 151.665 125.99V126.164C151.665 127.344 151.196 128.472 150.363 129.305L150.242 129.427C149.183 130.485 149.183 132.204 150.242 133.245L150.363 133.366C151.196 134.2 151.665 135.328 151.665 136.508V136.682C151.665 138.174 152.879 139.389 154.372 139.389H154.545C155.725 139.389 156.853 139.858 157.686 140.691L157.808 140.812C158.866 141.871 160.567 141.871 161.625 140.812L161.747 140.691C162.58 139.858 163.69 139.389 164.888 139.389H165.061C166.554 139.389 167.768 138.174 167.768 136.682V136.508C167.768 135.328 168.237 134.2 169.07 133.366L169.191 133.245C170.25 132.186 170.25 130.468 169.191 129.427L169.07 129.305C168.237 128.472 167.768 127.344 167.768 126.164V125.99C167.768 124.497 166.554 123.282 165.061 123.282H164.888Z" fill="#072F53"/>
<path d="M151.474 150.931L157.721 142.583L156.333 141.541L151.873 147.477L149.6 142.166L144.342 141.42L148.732 135.779H151.248L149.045 132.551L147.882 134.043H141.86V135.779H146.528L141.149 142.704L148.385 143.746L151.474 150.931Z" fill="#072F53"/>
<path d="M167.942 150.931L171.031 143.746L178.267 142.704L171.1 133.488L169.729 134.564L175.057 141.42L169.816 142.166L167.543 147.477L163.083 141.541L161.695 142.583L167.942 150.931Z" fill="#072F53"/>
<path d="M153.487 131.353C153.487 127.917 156.281 125.122 159.717 125.122C163.152 125.122 165.946 127.917 165.946 131.353C165.946 134.79 163.152 137.584 159.717 137.584C156.281 137.584 153.487 134.79 153.487 131.353ZM155.222 131.353C155.222 133.835 157.235 135.848 159.717 135.848C162.198 135.848 164.211 133.835 164.211 131.353C164.211 128.871 162.198 126.858 159.717 126.858C157.235 126.858 155.222 128.871 155.222 131.353Z" fill="#072F53"/>
<path d="M124.386 309.968C147.914 309.968 166.987 290.891 166.987 267.358C166.987 243.825 147.914 224.748 124.386 224.748C100.858 224.748 81.7844 243.825 81.7844 267.358C81.7844 290.891 100.858 309.968 124.386 309.968Z" fill="#FCA311"/>
<path d="M337.046 69.5297C337.046 45.5605 356.551 26.0519 380.516 26.0519C404.48 26.0519 423.985 45.5605 423.985 69.5297C423.985 93.4989 404.48 113.007 380.516 113.007C356.551 113.007 337.046 93.4989 337.046 69.5297ZM338.782 69.5297C338.782 92.5443 357.506 111.272 380.516 111.272C403.526 111.272 422.249 92.5443 422.249 69.5297C422.249 46.5151 403.526 27.7876 380.516 27.7876C357.506 27.7876 338.782 46.5151 338.782 69.5297Z" fill="#DB6E00"/>
<path d="M389.799 210.568C389.799 186.599 409.304 167.09 433.268 167.09C457.233 167.09 476.738 186.599 476.738 210.568C476.738 234.537 457.233 254.045 433.268 254.045C409.304 254.045 389.799 234.537 389.799 210.568ZM391.535 210.568C391.535 233.582 410.258 252.31 433.268 252.31C456.278 252.31 475.002 233.582 475.002 210.568C475.002 187.553 456.278 168.826 433.268 168.826C410.258 168.826 391.535 187.553 391.535 210.568Z" fill="#DB6E00"/>
<path d="M116.247 119.1C116.247 95.1304 135.752 75.6218 159.716 75.6218C183.681 75.6218 203.186 95.1304 203.186 119.1C203.186 143.069 183.681 162.577 159.716 162.577C135.752 162.577 116.247 143.069 116.247 119.1ZM117.983 119.1C117.983 142.114 136.706 160.842 159.716 160.842C182.726 160.842 201.45 142.114 201.45 119.1C201.45 96.085 182.726 77.3574 159.716 77.3574C136.706 77.3574 117.983 96.085 117.983 119.1Z" fill="#DB6E00"/>
<path d="M80.9167 267.358C80.9167 243.389 100.421 223.88 124.386 223.88C148.35 223.88 167.855 243.389 167.855 267.358C167.855 291.327 148.35 310.836 124.386 310.836C100.421 310.836 80.9167 291.327 80.9167 267.358ZM82.652 267.358C82.652 290.372 101.376 309.1 124.386 309.1C147.396 309.1 166.12 290.372 166.12 267.358C166.12 244.343 147.396 225.616 124.386 225.616C101.376 225.616 82.652 244.343 82.652 267.358Z" fill="#DB6E00"/>
<path d="M98.6687 296.985C98.6687 293.878 101.202 291.344 104.308 291.344H144.428C147.535 291.344 150.068 293.878 150.068 296.985V297.853H98.6687V296.985ZM144.428 293.08H104.308C102.452 293.08 100.89 294.382 100.491 296.117H148.229C147.83 294.382 146.268 293.08 144.411 293.08H144.428Z" fill="#072F53"/>
<path d="M121.592 292.351H123.327V285.513C123.327 282.302 125.93 279.698 129.141 279.698C132.351 279.698 134.954 282.302 134.954 285.513V292.351H136.689V285.513C136.689 281.347 133.305 277.963 129.141 277.963C124.976 277.963 121.592 281.347 121.592 285.513V292.351Z" fill="#072F53"/>
<path d="M114.911 256.857C114.911 252.692 118.295 249.307 122.46 249.307C126.624 249.307 130.008 252.692 130.008 256.857C130.008 261.023 126.624 264.407 122.46 264.407C118.295 264.407 114.911 261.023 114.911 256.857ZM116.646 256.857C116.646 260.068 119.249 262.672 122.46 262.672C125.67 262.672 128.273 260.068 128.273 256.857C128.273 253.646 125.67 251.043 122.46 251.043C119.249 251.043 116.646 253.646 116.646 256.857Z" fill="#072F53"/>
<path d="M119.683 256.857C119.683 255.33 120.933 254.08 122.46 254.08C123.987 254.08 125.236 255.33 125.236 256.857C125.236 258.385 123.987 259.634 122.46 259.634C120.933 259.634 119.683 258.385 119.683 256.857ZM121.418 256.857C121.418 257.43 121.887 257.899 122.46 257.899C123.032 257.899 123.501 257.43 123.501 256.857C123.501 256.284 123.032 255.816 122.46 255.816C121.887 255.816 121.418 256.284 121.418 256.857Z" fill="#072F53"/>
<path d="M136.03 287.838C144.168 285.964 150.068 278.57 150.068 270.222C150.068 260.641 142.572 252.709 133.01 252.188H127.96V253.924H132.958C141.565 254.41 148.333 261.561 148.333 270.222C148.333 277.754 142.988 284.454 135.63 286.137L136.012 287.821L136.03 287.838Z" fill="#072F53"/>
<path d="M133.062 280.601C138.32 280.08 142.45 275.515 142.45 270.239C142.45 264.494 137.782 259.825 132.038 259.825H128.221V261.561H132.038C136.828 261.561 140.715 265.466 140.715 270.239C140.715 274.647 137.279 278.449 132.906 278.882L133.08 280.601H133.062Z" fill="#072F53"/>
<path d="M103.458 292.212H105.193V287.439C105.193 286.866 105.662 286.398 106.234 286.398H122.477V284.662H106.234C104.707 284.662 103.458 285.912 103.458 287.439V292.212Z" fill="#072F53"/>
<path d="M126.381 285.513C126.381 283.985 127.631 282.736 129.158 282.736C130.685 282.736 131.934 283.985 131.934 285.513C131.934 287.04 130.685 288.29 129.158 288.29C127.631 288.29 126.381 287.04 126.381 285.513ZM128.117 285.513C128.117 286.085 128.585 286.554 129.158 286.554C129.73 286.554 130.199 286.085 130.199 285.513C130.199 284.94 129.73 284.471 129.158 284.471C128.585 284.471 128.117 284.94 128.117 285.513Z" fill="#072F53"/>
<path d="M118.642 270.135H121.505C122.512 270.135 123.327 269.319 123.327 268.312V263.539H121.592V268.312L118.642 268.399V270.135Z" fill="#072F53"/>
<path d="M105.28 270.135H118.659V268.399H105.28L105.193 245.385C105.193 244.812 105.662 244.343 106.234 244.343H120.568C121.141 244.343 121.609 244.812 121.609 245.385V250.158H123.344V245.385C123.344 243.857 122.095 242.608 120.568 242.608H106.234C104.707 242.608 103.458 243.857 103.458 245.385V268.312C103.458 269.319 104.274 270.135 105.28 270.135Z" fill="#072F53"/>
<path d="M109.185 243.475H110.92V238.616H115.865V243.475H117.601V236.88H109.185V243.475Z" fill="#072F53"/>
<path d="M118.642 236.88H108.143V238.616H118.642V236.88Z" fill="#072F53"/>
<path d="M106.321 274.925H120.464V269.267H118.729V273.19H108.057V269.267H106.321V274.925Z" fill="#072F53"/>
<path d="M109.185 281.607H117.601V274.057H115.865V279.872H110.92V274.057H109.185V281.607Z" fill="#072F53"/>
<path d="M62.0803 221.111C65.7683 212.139 61.4864 201.875 52.5162 198.186C43.546 194.498 33.2844 198.781 29.5963 207.752C25.9082 216.724 30.1902 226.988 39.1604 230.677C48.1306 234.366 58.3922 230.083 62.0803 221.111Z" fill="#F2DBB5"/>
<path d="M506.689 300.647C506.689 305.49 510.628 309.43 515.469 309.43C520.311 309.43 524.25 305.49 524.25 300.647C524.25 295.805 520.311 291.865 515.469 291.865C510.628 291.865 506.689 295.805 506.689 300.647Z" fill="#F2DBB5"/>
<path d="M372.533 172.332C380.488 172.332 386.936 165.882 386.936 157.926C386.936 149.97 380.488 143.52 372.533 143.52C364.579 143.52 358.13 149.97 358.13 157.926C358.13 165.882 364.579 172.332 372.533 172.332Z" fill="#F2DBB5"/>
<path d="M218.05 43.7389C225.71 41.5927 230.18 33.6422 228.034 25.981C225.888 18.3199 217.939 13.8492 210.28 15.9954C202.62 18.1417 198.15 26.0921 200.296 33.7533C202.442 41.4144 210.391 45.8851 218.05 43.7389Z" fill="#F2DBB5"/>
<path d="M100.942 368.615C100.942 372.59 104.17 375.818 108.144 375.818C112.117 375.818 115.345 372.59 115.345 368.615C115.345 364.64 112.117 361.412 108.144 361.412C104.17 361.412 100.942 364.64 100.942 368.615Z" fill="#F2DBB5"/>
<path d="M506.689 127.326C506.689 131.301 509.916 134.529 513.89 134.529C517.864 134.529 521.092 131.301 521.092 127.326C521.092 123.352 517.864 120.124 513.89 120.124C509.916 120.124 506.689 123.352 506.689 127.326Z" fill="#F2DBB5"/>
<path d="M320.856 465.412V457.185H456.001V465.412H448.73H320.856Z" fill="#225EC9"/>
<path d="M448.73 510.556H456.001V518.782H320.856V510.556H448.73Z" fill="#225EC9"/>
<path d="M320.856 510.556H170.18V518.782H320.856V510.556Z" fill="#001FAF"/>
<path d="M320.856 457.185H170.18V465.412H320.856V457.185Z" fill="#001FAF"/>
<path d="M456.001 465.412H448.73V510.573H456.001V465.412Z" fill="#225EC9"/>
<path d="M448.747 465.412H325.836V510.573H448.747V465.412Z" fill="#FFE8D6"/>
<path d="M325.836 465.412H179.273V510.573H325.836V465.412Z" fill="#EBD5C5"/>
<path d="M287 403.796V395.569H422.163V403.796H414.892H287Z" fill="#072F53"/>
<path d="M414.892 448.958H422.163V457.185H287V448.958H414.892Z" fill="#072F53"/>
<path d="M287 448.958H136.325V457.185H287V448.958Z" fill="#27293B"/>
<path d="M287 395.569H136.325V403.796H287V395.569Z" fill="#27293B"/>
<path d="M422.162 403.796H414.892V448.958H422.162V403.796Z" fill="#072F53"/>
<path d="M414.892 403.796H291.981V448.958H414.892V403.796Z" fill="#FFE8D6"/>
<path d="M291.981 403.796H145.418V448.958H291.981V403.796Z" fill="#EBD5C5"/>
<path d="M306.175 342.719V334.492H441.337V342.719H434.067H306.175Z" fill="#FCA311"/>
<path d="M434.067 387.881H441.337V396.107H306.175V387.881H434.067Z" fill="#FCA311"/>
<path d="M306.193 387.881H155.517V396.107H306.193V387.881Z" fill="#DB6E00"/>
<path d="M306.193 334.492H155.517V342.719H306.193V334.492Z" fill="#DB6E00"/>
<path d="M441.338 342.719H434.067V387.881H441.338V342.719Z" fill="#FCA311"/>
<path d="M434.067 342.719H311.156V387.881H434.067V342.719Z" fill="#FFE8D6"/>
<path d="M311.156 342.719H164.593V387.881H311.156V342.719Z" fill="#EBD5C5"/>
<path d="M433.268 478.897V496.514L426.709 491.811L420.167 496.514V478.897H433.268Z" fill="#225EC9"/>
<path d="M425.078 367.869V385.485L418.518 380.782L411.959 385.485V367.869H425.078Z" fill="#FCA311"/>
<path d="M348.933 477.804H439.515C440.47 477.804 440.539 479.297 439.585 479.297H349.002C348.048 479.297 347.979 477.804 348.933 477.804Z" fill="#EBD5C5"/>
<path d="M336.508 366.255H429.069C430.023 366.255 430.093 367.747 429.139 367.747H336.578C335.623 367.747 335.554 366.255 336.508 366.255Z" fill="#EBD5C5"/>
<path d="M264.962 167.611C264.962 155.479 272.892 145.655 282.697 145.655C292.484 145.655 300.431 155.479 300.431 167.611V205.465H266.315L264.962 167.611Z" fill="#DB6E00"/>
<path d="M300.431 205.465V262.585L268.224 258.645L266.315 205.465H300.431Z" fill="#EE9F87"/>
<path d="M347.007 271.888V259.409L299.824 245.819C291.72 245.819 268.224 250.487 268.224 257.916C268.554 281.364 347.007 271.888 347.007 271.888Z" fill="#EE9F87"/>
<path d="M359.709 264.268C362.364 262.932 365.626 262.255 368.594 262.307C371.44 262.359 374.216 263.14 376.472 264.928C378.381 266.438 379.717 268.764 380.168 271.141C380.394 272.339 380.567 273.554 380.498 274.769C380.463 275.463 380.411 276.262 380.238 276.956C379.995 277.928 379.439 278.605 378.693 279.247C377.721 280.063 376.09 279.507 375.466 278.553C374.771 277.477 374.841 276.366 374.771 275.151C374.754 274.717 374.737 274.266 374.685 273.832C374.667 273.589 374.615 273.363 374.598 273.12C374.667 273.832 374.598 273.12 374.563 272.964C374.459 272.513 374.32 272.061 374.164 271.627C374.095 271.454 374.025 271.298 373.973 271.124C373.938 271.072 373.921 271.02 373.886 270.968C373.713 270.673 373.522 270.395 373.331 270.117C373.418 270.256 373.14 269.892 373.053 269.805C372.88 269.631 372.689 269.475 372.498 269.319C372.463 269.284 372.429 269.267 372.411 269.25C372.377 269.25 372.342 269.215 372.273 269.18C372.082 269.093 371.908 268.972 371.717 268.885C371.665 268.868 371.37 268.746 371.249 268.677C371.127 268.642 370.936 268.573 370.902 268.573C370.398 268.434 369.895 268.347 369.392 268.26C369.34 268.26 369.305 268.26 369.271 268.243C369.236 268.243 369.201 268.243 369.149 268.243C368.889 268.243 368.628 268.243 368.386 268.243C367.813 268.243 367.24 268.295 366.685 268.364C366.425 268.399 366.164 268.434 365.921 268.469C365.8 268.486 365.731 268.503 365.696 268.503C365.678 268.503 365.609 268.521 365.47 268.555C364.117 268.868 362.746 269.215 361.358 269.302C360.212 269.371 358.963 268.555 358.651 267.427C358.356 266.351 358.668 264.858 359.761 264.303L359.709 264.268Z" fill="#EE9F87"/>
<path d="M352.612 265.119C355.267 263.782 358.529 263.105 361.497 263.158C364.342 263.21 367.119 263.991 369.375 265.778C371.284 267.288 372.62 269.614 373.071 271.992C373.297 273.19 373.47 274.405 373.401 275.619C373.366 276.314 373.314 277.112 373.14 277.806C372.897 278.778 372.342 279.455 371.596 280.097C370.624 280.913 368.993 280.358 368.368 279.403C367.674 278.327 367.744 277.216 367.674 276.001C367.657 275.567 367.64 275.116 367.587 274.682C367.57 274.439 367.518 274.214 367.501 273.971C367.57 274.682 367.501 273.971 367.466 273.814C367.362 273.363 367.223 272.912 367.067 272.478C366.997 272.304 366.928 272.148 366.876 271.975C366.841 271.923 366.824 271.87 366.789 271.818C366.616 271.523 366.425 271.246 366.234 270.968C366.321 271.107 366.043 270.742 365.956 270.656C365.783 270.482 365.592 270.326 365.401 270.17C365.366 270.135 365.332 270.117 365.314 270.1C365.28 270.1 365.245 270.065 365.175 270.031C364.985 269.944 364.811 269.822 364.62 269.736C364.568 269.718 364.273 269.597 364.152 269.527C364.03 269.493 363.839 269.423 363.805 269.406C363.301 269.267 362.798 269.18 362.295 269.093C362.243 269.093 362.208 269.093 362.173 269.076C362.139 269.076 362.104 269.076 362.052 269.076C361.792 269.076 361.531 269.076 361.288 269.076C360.716 269.076 360.143 269.128 359.588 269.198C359.327 269.232 359.067 269.267 358.824 269.302C358.703 269.319 358.633 269.336 358.599 269.336C358.581 269.336 358.512 269.354 358.373 269.389C357.02 269.701 355.649 270.048 354.26 270.135C353.115 270.204 351.866 269.388 351.553 268.26C351.258 267.184 351.571 265.692 352.664 265.136L352.612 265.119Z" fill="#EE9F87"/>
<path d="M345.879 265.969C348.534 264.633 351.796 263.956 354.763 264.008C357.609 264.06 360.386 264.841 362.642 266.629C364.55 268.139 365.887 270.465 366.338 272.842C366.563 274.04 366.737 275.255 366.668 276.47C366.633 277.164 366.581 277.963 366.407 278.657C366.164 279.629 365.609 280.306 364.863 280.948C363.891 281.764 362.26 281.208 361.635 280.254C360.941 279.177 361.01 278.067 360.941 276.852C360.924 276.418 360.906 275.967 360.854 275.533C360.837 275.29 360.785 275.064 360.768 274.821C360.837 275.533 360.768 274.821 360.733 274.665C360.629 274.214 360.49 273.762 360.334 273.328C360.264 273.155 360.195 272.999 360.143 272.825C360.108 272.773 360.091 272.721 360.056 272.669C359.883 272.374 359.692 272.096 359.501 271.818C359.588 271.957 359.31 271.593 359.223 271.506C359.05 271.332 358.859 271.176 358.668 271.02C358.633 270.985 358.598 270.968 358.581 270.951C358.546 270.951 358.512 270.916 358.442 270.881C358.251 270.794 358.078 270.673 357.887 270.586C357.835 270.569 357.54 270.447 357.418 270.378C357.297 270.343 357.106 270.274 357.071 270.256C356.568 270.117 356.065 270.031 355.562 269.944C355.51 269.944 355.475 269.944 355.44 269.927C355.405 269.927 355.371 269.927 355.319 269.927C355.058 269.927 354.798 269.927 354.555 269.927C353.983 269.927 353.41 269.979 352.855 270.048C352.594 270.083 352.334 270.117 352.091 270.152C351.97 270.17 351.9 270.187 351.865 270.187C351.848 270.187 351.779 270.204 351.64 270.239C350.286 270.551 348.915 270.899 347.527 270.985C346.382 271.055 345.133 270.239 344.82 269.111C344.525 268.035 344.838 266.542 345.931 265.987L345.879 265.969Z" fill="#EE9F87"/>
<path d="M369.514 269.666C367.171 271.541 361.479 273.658 358.668 274.647C353.046 276.609 346.226 274.214 343.068 269.163L347.024 259.409L375.83 260.224L369.514 269.684V269.666Z" fill="#EE9F87"/>
<path d="M366.945 262.168C369.6 260.832 372.863 260.155 375.83 260.207C378.676 260.276 381.452 261.04 383.708 262.828C385.617 264.338 386.953 266.664 387.404 269.041C387.63 270.239 387.804 271.454 387.734 272.669C387.699 273.363 387.647 274.161 387.474 274.856C387.231 275.828 386.676 276.505 385.929 277.147C384.958 277.963 383.327 277.407 382.702 276.453C382.008 275.376 382.077 274.266 382.008 273.051C381.99 272.617 381.973 272.166 381.921 271.732C381.904 271.489 381.852 271.263 381.834 271.02C381.904 271.732 381.834 271.02 381.799 270.864C381.695 270.413 381.557 269.961 381.4 269.527C381.331 269.354 381.262 269.198 381.209 269.024C381.175 268.972 381.157 268.92 381.123 268.868C380.949 268.573 380.758 268.295 380.567 268.017C380.654 268.156 380.377 267.792 380.29 267.705C380.116 267.531 379.925 267.375 379.734 267.219C379.7 267.184 379.665 267.167 379.648 267.15C379.613 267.15 379.578 267.115 379.509 267.08C379.318 266.993 379.144 266.872 378.954 266.785C378.902 266.768 378.607 266.646 378.485 266.577C378.364 266.542 378.173 266.473 378.138 266.455C377.635 266.316 377.132 266.23 376.628 266.143C376.576 266.143 376.542 266.143 376.507 266.125C376.472 266.125 376.437 266.125 376.385 266.125C376.125 266.125 375.865 266.125 375.622 266.125C375.049 266.125 374.477 266.178 373.921 266.247C373.661 266.282 373.401 266.316 373.158 266.351C373.036 266.368 372.967 266.386 372.932 266.386C372.915 266.386 372.845 266.403 372.707 266.438C371.353 266.75 369.982 267.097 368.594 267.184C367.449 267.254 366.199 266.438 365.887 265.31C365.592 264.234 365.904 262.741 366.997 262.186L366.945 262.168Z" fill="#EE9F87"/>
<path d="M286.427 256.875C288.857 251.546 293.664 247.433 299.286 245.836C300.379 245.523 300.917 247.19 299.824 247.502C294.601 248.977 290.228 252.744 287.989 257.69C287.521 258.714 285.959 257.899 286.427 256.875Z" fill="#EE815E"/>
<path d="M399.656 429.588L399.204 435.958H374.858L374.372 429.588H399.656Z" fill="#FFAB91"/>
<path d="M245.908 267.792H292.067C292.31 274.075 293.594 284.905 293.594 284.905C304.475 286.693 315.546 287.456 326.513 288.428C336.734 289.331 382.441 287.752 392.02 289.661C399.933 291.223 404.115 291.674 406.25 301.411C409.425 315.938 402.658 429.588 402.658 429.588H371.336L365.297 337.721C349.592 340.862 333.263 340.133 317.16 339.04C298.332 337.773 264.528 334.631 256.511 317.552C252.103 308.145 243.826 274.092 245.908 267.792Z" fill="#072F53"/>
<path d="M245.908 267.792H292.067C292.31 274.075 293.594 284.905 293.594 284.905C304.475 286.693 315.546 287.456 326.513 288.428C335.814 289.244 345.098 290.025 354.399 290.824C369.427 297.089 381.348 308.44 382.511 326.96C383.708 349.783 381.053 375.505 369.114 395.587L365.314 337.703C349.61 340.845 333.281 340.116 317.177 339.022C298.349 337.755 264.546 334.614 256.528 317.535C252.121 308.128 243.843 274.075 245.926 267.774L245.908 267.792Z" fill="#27293B"/>
<path d="M399.204 435.958L423.672 445.174C428.288 446.91 431.342 451.318 431.342 456.247C431.342 456.924 430.804 457.462 430.127 457.462H377.34C373.991 457.462 371.474 454.425 372.082 451.145L374.876 435.975H399.239L399.204 435.958Z" fill="white"/>
<path d="M376.663 421.743C383.795 422.975 391.066 423.045 398.233 422.003C399.291 421.847 399.361 423.513 398.302 423.669C390.996 424.746 383.569 424.624 376.299 423.374C375.24 423.183 375.604 421.552 376.68 421.743H376.663Z" fill="#27293B"/>
<path d="M326.756 429.588L323.32 435.958H300.466L301.49 429.588H326.756Z" fill="#FFAB91"/>
<path d="M320.977 317.136C320.977 304.535 331.198 294.312 343.796 294.312C356.395 294.312 371.978 305.993 366.025 325.588L329.793 429.588H298.47L320.995 317.136H320.977Z" fill="#072F53"/>
<path d="M214.899 267.792H262.55C262.793 274.075 261.873 282.406 259.6 284.905C277.942 287.925 329.255 291.622 347.597 294.642C356.655 306.479 338.174 323.176 330.261 335.794C312.179 341.14 278.081 340.324 259.253 339.04C240.425 337.755 221.562 334.631 213.563 317.552C209.155 308.145 208.582 297.315 210.092 287.04C211.064 280.479 212.851 274.092 214.916 267.792H214.899Z" fill="#072F53"/>
<path d="M211.949 313.595C209.033 305.177 208.773 295.892 210.092 287.04C211.064 280.479 212.851 274.092 214.916 267.792H262.567C262.81 274.075 261.89 282.406 259.617 284.905C268.346 286.346 284.553 287.925 301.108 289.522C275.495 309.395 242.455 320.243 211.966 313.595H211.949Z" fill="#27293B"/>
<path d="M323.32 435.958L347.788 445.174C352.403 446.91 355.458 451.318 355.458 456.247C355.458 456.924 354.92 457.462 354.243 457.462H298.627C295.33 457.462 293.004 454.251 294.028 451.11L300.466 435.958H323.32Z" fill="white"/>
<path d="M303.78 421.743C310.912 422.975 318.183 423.045 325.35 422.003C326.409 421.847 326.478 423.513 325.42 423.669C318.114 424.746 310.687 424.624 303.416 423.374C302.357 423.183 302.722 421.552 303.798 421.743H303.78Z" fill="#27293B"/>
<path d="M217.189 143.034C238.308 134.651 261.977 134.616 283.113 142.912C293.456 146.974 299.755 157.995 298.505 169.537C294.41 207.409 295.625 244.968 300.952 283.031C272.649 303.667 238.013 309.534 205.962 298.183C197.147 258.523 194.336 211.366 198.101 169.294C199.16 157.422 206.569 147.252 217.172 143.034H217.189Z" fill="#FCA311"/>
<path d="M239.002 304.761C260.745 304.761 282.419 297.61 301.473 283.742L301.889 283.43L301.82 282.909C296.232 243.041 295.434 205.986 299.373 169.641C299.425 169.173 299.078 168.739 298.609 168.687C298.141 168.652 297.707 168.982 297.655 169.45C293.716 205.777 294.497 242.816 300.032 282.631C271.868 302.973 237.909 308.388 206.708 297.523C198.032 258.194 195.203 211.505 198.969 169.364C199.003 168.895 198.656 168.461 198.188 168.426C197.719 168.374 197.286 168.739 197.251 169.207C193.451 211.696 196.314 258.766 205.129 298.356L205.233 298.825L205.684 298.981C216.582 302.834 227.809 304.743 239.019 304.743L239.002 304.761Z" fill="#DB6E00"/>
<path d="M200.149 173.633C200.149 161.501 208.079 151.677 217.883 151.677C227.67 151.677 235.618 161.501 235.618 173.633V211.488H201.502L200.149 173.633Z" fill="#FCA311"/>
<path d="M235.618 211.488V268.607L203.411 264.668L201.502 211.488H235.618Z" fill="#FFAB91"/>
<path d="M282.194 277.91V265.431L235.011 251.841C226.907 251.841 203.411 256.51 203.411 263.939C203.741 287.387 282.194 277.91 282.194 277.91Z" fill="#FFAB91"/>
<path d="M294.896 270.291C297.551 268.955 300.813 268.278 303.781 268.33C306.626 268.382 309.403 269.163 311.659 270.951C313.568 272.461 314.904 274.786 315.355 277.164C315.581 278.362 315.754 279.577 315.685 280.792C315.65 281.486 315.598 282.284 315.424 282.979C315.181 283.95 314.626 284.627 313.88 285.27C312.908 286.085 311.277 285.53 310.652 284.575C309.958 283.499 310.028 282.388 309.958 281.173C309.941 280.74 309.923 280.288 309.871 279.854C309.854 279.611 309.802 279.386 309.785 279.143C309.854 279.854 309.785 279.143 309.75 278.987C309.646 278.535 309.507 278.084 309.351 277.65C309.281 277.477 309.212 277.32 309.16 277.147C309.125 277.095 309.108 277.043 309.073 276.991C308.9 276.696 308.709 276.418 308.518 276.14C308.605 276.279 308.327 275.914 308.24 275.828C308.067 275.654 307.876 275.498 307.685 275.342C307.65 275.307 307.616 275.29 307.598 275.272C307.563 275.272 307.529 275.238 307.459 275.203C307.268 275.116 307.095 274.995 306.904 274.908C306.852 274.89 306.557 274.769 306.436 274.7C306.314 274.665 306.123 274.595 306.088 274.595C305.585 274.457 305.082 274.37 304.579 274.283C304.527 274.283 304.492 274.283 304.457 274.266C304.423 274.266 304.388 274.266 304.336 274.266C304.076 274.266 303.815 274.266 303.572 274.266C303 274.266 302.427 274.318 301.872 274.387C301.611 274.422 301.351 274.457 301.108 274.491C300.987 274.509 300.917 274.526 300.883 274.526C300.865 274.526 300.796 274.543 300.657 274.578C299.303 274.89 297.933 275.238 296.544 275.324C295.399 275.394 294.15 274.578 293.837 273.45C293.542 272.374 293.855 270.881 294.948 270.326L294.896 270.291Z" fill="#FFAB91"/>
<path d="M287.799 271.142C290.454 269.805 293.716 269.128 296.683 269.18C299.529 269.232 302.306 270.013 304.562 271.801C306.47 273.311 307.807 275.637 308.258 278.015C308.483 279.212 308.657 280.427 308.587 281.642C308.553 282.336 308.501 283.135 308.327 283.829C308.084 284.801 307.529 285.478 306.783 286.12C305.811 286.936 304.18 286.38 303.555 285.426C302.861 284.35 302.93 283.239 302.861 282.024C302.844 281.59 302.826 281.139 302.774 280.705C302.757 280.462 302.705 280.236 302.687 279.993C302.757 280.705 302.687 279.993 302.653 279.837C302.549 279.386 302.41 278.935 302.254 278.501C302.184 278.327 302.115 278.171 302.063 277.997C302.028 277.945 302.011 277.893 301.976 277.841C301.802 277.546 301.612 277.268 301.421 276.991C301.507 277.129 301.23 276.765 301.143 276.678C300.97 276.505 300.779 276.348 300.588 276.192C300.553 276.158 300.518 276.14 300.501 276.123C300.466 276.123 300.432 276.088 300.362 276.053C300.171 275.967 299.998 275.845 299.807 275.758C299.755 275.741 299.46 275.619 299.338 275.55C299.217 275.515 299.026 275.446 298.991 275.429C298.488 275.29 297.985 275.203 297.482 275.116C297.43 275.116 297.395 275.116 297.36 275.099C297.325 275.099 297.291 275.099 297.239 275.099C296.978 275.099 296.718 275.099 296.475 275.099C295.902 275.099 295.33 275.151 294.775 275.22C294.514 275.255 294.254 275.29 294.011 275.324C293.89 275.342 293.82 275.359 293.785 275.359C293.768 275.359 293.699 275.376 293.56 275.411C292.206 275.724 290.835 276.071 289.447 276.157C288.302 276.227 287.052 275.411 286.74 274.283C286.445 273.207 286.757 271.714 287.851 271.159L287.799 271.142Z" fill="#FFAB91"/>
<path d="M281.065 271.992C283.72 270.656 286.983 269.979 289.95 270.031C292.796 270.083 295.573 270.864 297.828 272.651C299.737 274.161 301.073 276.487 301.525 278.865C301.75 280.063 301.924 281.278 301.854 282.493C301.82 283.187 301.768 283.985 301.594 284.679C301.351 285.651 300.796 286.328 300.05 286.971C299.078 287.786 297.447 287.231 296.822 286.276C296.128 285.2 296.197 284.089 296.128 282.874C296.11 282.44 296.093 281.989 296.041 281.555C296.024 281.312 295.972 281.087 295.954 280.844C296.024 281.555 295.954 280.844 295.92 280.688C295.815 280.236 295.677 279.785 295.52 279.351C295.451 279.177 295.382 279.021 295.33 278.848C295.295 278.796 295.278 278.744 295.243 278.692C295.069 278.396 294.878 278.119 294.688 277.841C294.774 277.98 294.497 277.615 294.41 277.529C294.236 277.355 294.045 277.199 293.855 277.043C293.82 277.008 293.785 276.991 293.768 276.973C293.733 276.973 293.698 276.939 293.629 276.904C293.438 276.817 293.265 276.696 293.074 276.609C293.022 276.591 292.727 276.47 292.605 276.4C292.484 276.366 292.293 276.296 292.258 276.279C291.755 276.14 291.252 276.053 290.748 275.967C290.696 275.967 290.662 275.967 290.627 275.949C290.592 275.949 290.558 275.949 290.505 275.949C290.245 275.949 289.985 275.949 289.742 275.949C289.169 275.949 288.597 276.001 288.041 276.071C287.781 276.105 287.521 276.14 287.278 276.175C287.156 276.192 287.087 276.21 287.052 276.21C287.035 276.21 286.965 276.227 286.827 276.262C285.473 276.574 284.102 276.921 282.714 277.008C281.569 277.077 280.319 276.262 280.007 275.133C279.712 274.057 280.024 272.565 281.118 272.009L281.065 271.992Z" fill="#FFAB91"/>
<path d="M304.7 275.689C302.358 277.563 296.666 279.681 293.855 280.67C288.232 282.631 281.413 280.236 278.254 275.186L282.211 265.431L311.017 266.247L304.7 275.706V275.689Z" fill="#FFAB91"/>
<path d="M302.132 268.191C304.787 266.854 308.049 266.178 311.017 266.23C313.863 266.282 316.639 267.063 318.895 268.85C320.804 270.36 322.14 272.686 322.591 275.064C322.817 276.262 322.99 277.477 322.921 278.692C322.886 279.386 322.834 280.184 322.661 280.878C322.418 281.85 321.862 282.527 321.116 283.169C320.145 283.985 318.513 283.43 317.889 282.475C317.195 281.399 317.264 280.288 317.194 279.073C317.177 278.639 317.16 278.188 317.108 277.754C317.09 277.511 317.038 277.286 317.021 277.043C317.09 277.754 317.021 277.043 316.986 276.886C316.882 276.435 316.743 275.984 316.587 275.55C316.518 275.376 316.448 275.22 316.396 275.047C316.362 274.995 316.344 274.943 316.309 274.89C316.136 274.595 315.945 274.318 315.754 274.04C315.841 274.179 315.563 273.814 315.477 273.728C315.303 273.554 315.112 273.398 314.921 273.242C314.887 273.207 314.852 273.19 314.834 273.172C314.8 273.172 314.765 273.137 314.696 273.103C314.505 273.016 314.331 272.894 314.14 272.808C314.088 272.79 313.793 272.669 313.672 272.599C313.55 272.565 313.359 272.495 313.325 272.478C312.822 272.339 312.318 272.252 311.815 272.166C311.763 272.166 311.728 272.166 311.694 272.148C311.659 272.148 311.624 272.148 311.572 272.148C311.312 272.148 311.052 272.148 310.809 272.148C310.236 272.148 309.663 272.2 309.108 272.27C308.848 272.304 308.587 272.339 308.344 272.374C308.223 272.391 308.154 272.408 308.119 272.408C308.102 272.408 308.032 272.426 307.893 272.461C306.54 272.773 305.169 273.12 303.781 273.207C302.635 273.276 301.386 272.461 301.074 271.332C300.779 270.256 301.091 268.764 302.184 268.208L302.132 268.191Z" fill="#FFAB91"/>
<path d="M221.632 262.897C224.061 257.569 228.868 253.455 234.49 251.859C235.583 251.546 236.121 253.212 235.028 253.525C229.805 255 225.432 258.766 223.193 263.713C222.725 264.737 221.163 263.921 221.632 262.897Z" fill="#FF8A65"/>
<path d="M332.569 318.125C333.489 317.813 333.94 319.236 333.038 319.548C324.795 322.36 318.721 330.066 317.836 338.71C317.732 339.664 316.275 339.317 316.379 338.38C317.333 329.233 323.893 321.093 332.587 318.125H332.569Z" fill="#27293B"/>
<path d="M210.265 295.18C221.163 298.356 232.564 299.623 243.896 299.016C255.227 298.408 266.437 295.926 276.953 291.691C282.905 289.296 288.597 286.328 293.976 282.822C294.792 282.302 295.59 283.551 294.792 284.072C285.143 290.355 274.402 294.937 263.209 297.662C252.069 300.37 240.512 301.255 229.093 300.231C222.603 299.658 216.2 298.46 209.953 296.638C209.033 296.378 209.363 294.902 210.283 295.18H210.265Z" fill="#DB6E00"/>
<path d="M322.14 318.125C322.522 317.24 323.841 317.934 323.459 318.819C322.053 322.048 321.151 325.467 320.752 328.956C320.7 329.355 320.214 329.598 319.849 329.511C319.416 329.424 319.242 329.008 319.294 328.608C319.711 324.981 320.682 321.458 322.14 318.108V318.125Z" fill="#27293B"/>
<path d="M319.311 289.886H407.777L421.069 232.072H332.604L319.311 289.886Z" fill="#B8B8B8"/>
<path d="M321.654 289.886H410.119L423.412 232.072H334.946L321.654 289.886Z" fill="#E5E5E5"/>
<path d="M264.91 290.737H321.654V286.485H264.91V290.737Z" fill="#B8B8B8"/>
<path d="M241.952 148.536C245.18 153.673 251.01 157.093 257.118 157.214C262.498 157.336 268.589 154.507 270.203 149.005C270.48 148.085 271.938 148.414 271.66 149.334C270.289 153.968 266.125 157.093 261.561 158.203C256.58 159.418 251.201 158.29 246.915 155.565C244.416 153.968 242.282 151.851 240.703 149.334C240.182 148.519 241.449 147.703 241.952 148.519V148.536Z" fill="#DB6E00"/>
<path d="M201.485 209.821H236.659C237.614 209.821 237.683 211.314 236.729 211.314H201.554C200.6 211.314 200.531 209.821 201.485 209.821Z" fill="#DB6E00"/>
<path d="M239.453 185.679L237.961 210.03C237.961 210.984 236.469 211.054 236.469 210.099L237.961 185.748C237.961 184.793 239.453 184.724 239.453 185.679Z" fill="#DB6E00"/>
<path d="M200.079 191.719C200.808 198.019 201.554 204.302 202.283 210.602C202.387 211.557 200.895 211.626 200.791 210.672C200.062 204.371 199.316 198.088 198.587 191.788C198.483 190.833 199.975 190.764 200.079 191.719Z" fill="#DB6E00"/>
<path d="M294.913 77.0797C296.596 78.555 297.846 80.5336 298.453 82.7032C299.408 86.0877 298.714 89.9755 296.354 92.5963C294.011 95.2171 290.02 96.3453 286.74 95.0262C287.989 89.3854 289.221 83.7446 290.471 78.1211L294.896 77.0797H294.913Z" fill="#74342E"/>
<path d="M293.282 77.0797C294.965 78.555 296.215 80.5336 296.822 82.7032C297.777 86.0877 297.082 89.9755 294.722 92.5963C292.38 95.2171 288.389 96.3453 285.109 95.0262C286.358 89.3854 287.59 83.7446 288.84 78.1211L293.265 77.0797H293.282Z" fill="#4E342E"/>
<path d="M247.314 127.326L249.605 105.562L271.903 107.905L268.415 141.055C260.017 139.806 252.156 134.46 247.332 127.326H247.314Z" fill="#FF8A65"/>
<path d="M245.735 142.392L247.314 127.326C252.156 134.477 260.017 139.823 268.398 141.055L268.016 144.718C267.374 150.879 261.856 155.34 255.696 154.697C249.535 154.055 245.076 148.536 245.718 142.374L245.735 142.392Z" fill="#FFAB91"/>
<path d="M270.133 131.631C281.309 132.585 291.165 124.185 292.12 112.886L295.052 78.3467L254.55 74.9102L251.618 109.449C250.663 120.748 258.958 130.676 270.133 131.631Z" fill="#FFAB91"/>
<path d="M242.056 101.014C241.726 104.954 244.642 108.425 248.581 108.755C252.52 109.085 255.991 106.169 256.32 102.229C256.65 98.2892 253.735 94.8179 249.796 94.4882C245.856 94.1584 242.386 97.0743 242.056 101.014Z" fill="#FFAB91"/>
<path d="M269.595 98.5843C269.595 98.4628 269.63 98.3413 269.665 98.2198C269.786 97.8379 269.995 97.5082 270.307 97.2305C270.602 96.9528 270.949 96.7792 271.348 96.6751C271.556 96.623 271.765 96.623 271.973 96.623C272.181 96.623 272.407 96.6577 272.615 96.7271L273.17 96.9875C273.17 96.9875 273.621 97.3693 273.639 97.3693C273.777 97.5082 273.899 97.6817 273.986 97.8726C274.038 97.9594 274.09 98.133 274.09 98.1677C274.125 98.2718 274.159 98.3586 274.194 98.4628C274.194 98.4801 274.246 99.0702 274.246 99.1049C274.211 99.3132 274.177 99.5215 274.142 99.7298C274.055 99.9207 273.968 100.094 273.882 100.285C273.76 100.441 273.621 100.598 273.5 100.754C273.344 100.875 273.17 100.979 273.014 101.101C272.823 101.17 272.632 101.24 272.441 101.309C272.233 101.327 272.025 101.344 271.817 101.361C271.608 101.327 271.4 101.292 271.192 101.257C270.88 101.17 270.619 101.014 270.411 100.806C270.237 100.702 270.099 100.546 270.012 100.372C269.873 100.216 269.769 100.042 269.734 99.8339C269.63 99.643 269.595 99.4521 269.595 99.2264C269.543 99.0182 269.561 98.8099 269.613 98.6016L269.595 98.5843Z" fill="#3E2723"/>
<path d="M287.243 100.285C287.243 100.164 287.278 100.042 287.313 99.9207C287.434 99.5389 287.642 99.2091 287.955 98.9314C288.25 98.6537 288.597 98.4801 288.996 98.376C289.204 98.3239 289.412 98.3239 289.621 98.3239C289.829 98.3239 290.055 98.3586 290.263 98.428L290.818 98.6884C290.818 98.6884 291.269 99.0702 291.287 99.0702C291.425 99.2091 291.547 99.3826 291.634 99.5736C291.686 99.6604 291.738 99.8339 291.738 99.8686C291.772 99.9728 291.807 100.06 291.842 100.164C291.842 100.181 291.894 100.771 291.894 100.806C291.859 101.014 291.825 101.222 291.79 101.431C291.703 101.622 291.616 101.795 291.53 101.986C291.408 102.142 291.269 102.299 291.148 102.455C290.992 102.576 290.818 102.68 290.662 102.802C290.471 102.871 290.28 102.941 290.089 103.01C289.881 103.027 289.673 103.045 289.465 103.062C289.256 103.027 289.048 102.993 288.84 102.958C288.527 102.871 288.267 102.715 288.059 102.507C287.885 102.403 287.747 102.246 287.66 102.073C287.521 101.917 287.417 101.743 287.382 101.535C287.278 101.344 287.243 101.153 287.243 100.927C287.191 100.719 287.209 100.511 287.261 100.303L287.243 100.285Z" fill="#3E2723"/>
<path d="M266.819 89.854C268.415 88.5523 270.394 87.8059 272.459 87.8059C274.593 87.8059 276.589 88.6911 278.168 90.0796C278.567 90.4268 278.48 91.1384 278.116 91.4681C277.699 91.85 277.126 91.7632 276.727 91.4161C274.315 89.2812 270.602 89.2639 268.138 91.2946C267.166 92.093 265.83 90.6524 266.819 89.854Z" fill="#3E2723"/>
<path d="M285.022 90.4268C286.619 89.125 288.597 88.3787 290.662 88.3787C292.796 88.3787 294.792 89.2639 296.371 90.6524C296.77 90.9995 296.683 91.7112 296.319 92.0409C295.902 92.4228 295.33 92.336 294.931 91.9889C292.519 89.854 288.805 89.8367 286.341 91.8674C285.369 92.6658 284.033 91.2252 285.022 90.4268Z" fill="#3E2723"/>
<path d="M283.686 100.91C283.686 96.3627 287.382 92.6831 291.911 92.6831C296.44 92.6831 300.136 96.38 300.136 100.91C300.136 105.44 296.44 109.137 291.911 109.137C287.382 109.137 283.686 105.44 283.686 100.91ZM284.432 100.91C284.432 105.041 287.781 108.391 291.911 108.391C296.041 108.391 299.39 105.041 299.39 100.91C299.39 96.7792 296.041 93.4294 291.911 93.4294C287.781 93.4294 284.432 96.7792 284.432 100.91Z" fill="black"/>
<path d="M263.556 98.9835C263.556 94.4361 267.253 90.7565 271.782 90.7565C276.311 90.7565 280.007 94.4534 280.007 98.9835C280.007 103.513 276.311 107.21 271.782 107.21C267.253 107.21 263.556 103.513 263.556 98.9835ZM264.303 98.9835C264.303 103.114 267.652 106.464 271.782 106.464C275.912 106.464 279.261 103.114 279.261 98.9835C279.261 94.8526 275.912 91.5029 271.782 91.5029C267.652 91.5029 264.303 94.8526 264.303 98.9835Z" fill="black"/>
<path d="M285.352 96.6924L285.681 96.0155C283.616 95.0088 281.17 94.7485 278.931 95.2865L279.105 96.0155C281.17 95.5122 283.443 95.7552 285.352 96.6924Z" fill="black"/>
<path d="M264.789 96.0155L264.979 95.2866C259.756 93.8807 254.377 93.2906 248.98 93.5162L249.015 94.2625C254.342 94.0369 259.652 94.627 264.806 96.0155H264.789Z" fill="black"/>
<path d="M243.948 98.5322C244.971 96.8834 246.846 95.9461 248.789 96.1717C250.629 96.38 252.208 97.7685 252.798 99.5042C253.11 100.424 251.687 100.875 251.375 99.9728C250.958 98.7405 249.848 97.8206 248.564 97.6644C247.297 97.4908 245.943 98.1677 245.284 99.2612C244.781 100.077 243.444 99.3827 243.965 98.5669L243.948 98.5322Z" fill="#FF8A65"/>
<path d="M253.127 95.113C255.748 93.2038 258.403 91.2599 260.624 88.8994C262.845 86.5389 264.684 83.6925 265.344 80.4989C271.157 81.5577 277.109 83.2586 282.957 84.0743C288.805 84.8901 295.208 84.3173 299.876 80.7072C304.614 77.045 306.817 70.3975 305.186 64.6352C303.555 58.8729 298.21 54.3602 292.258 53.7007C286.306 53.0585 280.111 56.3388 277.3 61.6152C271.279 58.5952 263.383 58.0224 257.379 61.0598C254.932 62.2921 252.485 64.479 252.659 67.2213C248.164 67.5511 244.434 70.2066 242.16 74.0944C239.87 77.9649 239.609 82.9809 241.501 87.077C243.392 91.1731 248.702 94.332 253.127 95.113Z" fill="#74342E"/>
<path d="M253.127 95.113C255.539 93.3427 259.548 91.5723 261.596 89.3854C263.661 87.1985 265.327 84.5777 265.951 81.6444C271.313 82.6164 276.797 84.1958 282.194 84.9422C287.59 85.6885 293.473 85.1678 297.777 81.8354C302.15 78.4682 304.162 72.3414 302.67 67.0304C301.178 61.7193 296.25 57.5538 290.766 56.9637C285.282 56.3735 279.573 59.3936 276.988 64.2533C271.452 61.4763 264.164 60.9383 258.628 63.7327C256.372 64.8782 254.134 66.8742 254.273 69.4082C250.143 69.7206 246.707 72.1679 244.59 75.7433C242.49 79.3187 242.247 83.9355 243.982 87.7018C245.718 91.4682 249.049 94.384 253.145 95.113H253.127Z" fill="#4E342E"/>
<path d="M281.291 117.989C281.343 117.537 281.725 117.347 282.124 117.347C283.321 117.347 284.519 116.6 285.091 115.559C285.699 114.465 285.56 113.059 284.866 112.035C284.05 110.821 282.541 110.612 281.482 109.692C280.476 108.825 279.99 107.436 280.719 106.238C281.222 105.405 282.402 106.308 281.916 107.124C281.621 107.61 282.124 108.286 282.489 108.582C283.096 109.068 283.859 109.328 284.519 109.727C285.803 110.473 286.653 111.758 286.896 113.216C287.399 116.253 284.901 118.822 281.933 118.839C281.534 118.839 281.239 118.371 281.291 118.006V117.989Z" fill="#3E2723"/>
<path d="M268.294 118.77C270.307 122.519 274.697 124.22 278.706 122.779C279.608 122.449 280.077 123.873 279.174 124.202C274.576 125.851 269.352 123.89 267.044 119.586C266.593 118.735 267.843 117.919 268.294 118.77Z" fill="#3E2723"/>
<path d="M267.756 125.313C267.843 124.949 268.259 124.619 268.658 124.758C270.532 125.383 272.389 126.007 274.263 126.615C274.645 126.736 274.923 127.083 274.819 127.517C274.732 127.882 274.315 128.212 273.916 128.073C272.042 127.448 270.185 126.823 268.311 126.216C267.929 126.094 267.652 125.747 267.756 125.313Z" fill="#FF8A65"/>
<path d="M397.92 290.65C401.426 290.824 404.219 293.271 405.66 296.36C407.499 300.352 407.204 305.021 407.256 309.291C407.36 318.924 407.378 328.574 407.273 338.207C407.083 357.403 406.51 376.616 405.538 395.795C404.983 406.643 404.306 417.491 403.508 428.321C403.421 429.414 401.686 429.519 401.773 428.39C403.143 409.888 404.15 391.352 404.792 372.798C405.434 354.244 405.694 335.69 405.59 317.136C405.59 314.55 405.556 311.964 405.521 309.36C405.486 306.844 405.538 304.31 405.278 301.793C404.861 297.766 402.744 292.611 398.007 292.368C396.896 292.316 396.81 290.581 397.938 290.633L397.92 290.65Z" fill="#27293B"/>
<path d="M312.11 358.028L315.945 338.224C316.153 337.13 317.854 337.512 317.628 338.606L304.076 408.674L300.241 428.477C300.032 429.571 298.332 429.189 298.54 428.095C303.052 404.734 307.581 381.389 312.093 358.028H312.11Z" fill="#27293B"/>
<path d="M319.311 290.737H410.119C410.519 290.737 410.866 290.459 410.97 290.06L415.534 270.222C415.638 269.753 415.343 269.284 414.891 269.18C414.423 269.076 413.954 269.371 413.85 269.822L409.443 288.984H320.405L333.298 232.905H422.336L417.529 253.82C417.425 254.288 417.72 254.757 418.171 254.861C418.64 254.965 419.108 254.67 419.212 254.219L424.262 232.246C424.314 231.985 424.262 231.725 424.089 231.517C423.915 231.309 423.672 231.187 423.412 231.187H332.604C332.205 231.187 331.84 231.465 331.753 231.864L318.461 289.678C318.409 289.938 318.461 290.199 318.635 290.407C318.808 290.615 319.051 290.737 319.311 290.737Z" fill="#B8B8B8"/>
</g>
<defs>
<clipPath id="clip0_1_244">
<rect width="598" height="523" fill="white"/>
</clipPath>
</defs>
</svg>
