<svg width="21" height="20" viewBox="0 0 21 20" fill="none" xmlns="http://www.w3.org/2000/svg">
<path d="M10.4146 2.43227C13.004 2.43227 13.3107 2.44193 14.3336 2.48835C14.9487 2.49585 15.5578 2.60826 16.1347 2.8207C16.5531 2.98128 16.933 3.22727 17.25 3.54284C17.5671 3.85841 17.8142 4.23656 17.9755 4.65295C18.189 5.22714 18.3019 5.8335 18.3094 6.44568C18.3556 7.46386 18.3658 7.76908 18.3658 10.3465C18.3658 12.9239 18.3561 13.2291 18.3094 14.2473C18.3019 14.8594 18.189 15.4658 17.9755 16.04C17.8142 16.4564 17.5671 16.8345 17.25 17.1501C16.933 17.4657 16.5531 17.7117 16.1347 17.8722C15.5578 18.0847 14.9487 18.1971 14.3336 18.2046C13.3111 18.2505 13.0045 18.2607 10.4146 18.2607C7.82468 18.2607 7.51803 18.251 6.49556 18.2046C5.88051 18.1971 5.27132 18.0847 4.69445 17.8722C4.27611 17.7117 3.89619 17.4657 3.57915 17.1501C3.2621 16.8345 3.01496 16.4564 2.85362 16.04C2.64019 15.4658 2.52725 14.8594 2.51973 14.2473C2.47354 13.2291 2.46338 12.9239 2.46338 10.3465C2.46338 7.76908 2.47308 7.46386 2.51973 6.44568C2.52725 5.8335 2.64019 5.22714 2.85362 4.65295C3.01496 4.23656 3.2621 3.85841 3.57915 3.54284C3.89619 3.22727 4.27611 2.98128 4.69445 2.8207C5.27132 2.60826 5.88051 2.49585 6.49556 2.48835C7.51849 2.44239 7.82514 2.43227 10.4146 2.43227ZM10.4146 0.692871C7.78219 0.692871 7.45061 0.703903 6.41612 0.75079C5.61119 0.766726 4.8148 0.918424 4.06083 1.19943C3.41404 1.44198 2.82822 1.82209 2.34423 2.31322C1.85036 2.79513 1.46815 3.37856 1.22431 4.02274C0.941992 4.7732 0.789585 5.56589 0.773575 6.36708C0.727392 7.39582 0.716309 7.72587 0.716309 10.346C0.716309 12.9661 0.727392 13.2962 0.774498 14.3259C0.790509 15.127 0.942916 15.9197 1.22524 16.6702C1.46881 17.3143 1.85069 17.8977 2.34423 18.3797C2.82849 18.871 3.41464 19.2511 4.06175 19.4935C4.81572 19.7745 5.61211 19.9262 6.41705 19.9421C7.45153 19.9881 7.78173 20.0001 10.4155 20.0001C13.0493 20.0001 13.3795 19.989 14.414 19.9421C15.2189 19.9262 16.0153 19.7745 16.7693 19.4935C17.4133 19.245 17.9982 18.8655 18.4864 18.3792C18.9747 17.8929 19.3556 17.3105 19.6049 16.6693C19.8872 15.9188 20.0396 15.1261 20.0556 14.3249C20.1018 13.2962 20.1129 12.9661 20.1129 10.346C20.1129 7.72587 20.1018 7.39582 20.0547 6.36616C20.0387 5.56497 19.8862 4.77228 19.6039 4.02182C19.3604 3.37772 18.9785 2.7943 18.4849 2.3123C18.0007 1.82106 17.4145 1.44095 16.7674 1.19851C16.0134 0.917504 15.2171 0.765806 14.4121 0.749871C13.3786 0.703903 13.047 0.692871 10.4146 0.692871Z" fill="#131313"/>
<path d="M10.4129 5.38916C9.4279 5.38916 8.46502 5.67989 7.64601 6.22458C6.82701 6.76928 6.18867 7.54348 5.81172 8.44927C5.43478 9.35506 5.33615 10.3518 5.52831 11.3134C5.72048 12.2749 6.19481 13.1582 6.89131 13.8515C7.58782 14.5447 8.47522 15.0169 9.44131 15.2081C10.4074 15.3994 11.4088 15.3012 12.3188 14.9261C13.2288 14.5509 14.0066 13.9155 14.5539 13.1003C15.1011 12.2851 15.3932 11.3267 15.3932 10.3463C15.3932 9.03157 14.8685 7.77071 13.9345 6.84107C13.0005 5.91143 11.7338 5.38916 10.4129 5.38916ZM10.4129 13.564C9.77353 13.564 9.14851 13.3753 8.61689 13.0217C8.08527 12.6681 7.67091 12.1656 7.42623 11.5776C7.18156 10.9897 7.11754 10.3427 7.24227 9.71853C7.36701 9.09436 7.6749 8.52101 8.12701 8.07101C8.57912 7.621 9.15514 7.31455 9.78223 7.19039C10.4093 7.06623 11.0593 7.12996 11.65 7.3735C12.2407 7.61704 12.7456 8.02946 13.1009 8.55861C13.4561 9.08776 13.6457 9.70987 13.6457 10.3463C13.6457 11.1997 13.3051 12.0181 12.6988 12.6215C12.0926 13.225 11.2703 13.564 10.4129 13.564Z" fill="#131313"/>
<path d="M15.5907 6.35142C16.2335 6.35142 16.7546 5.8328 16.7546 5.19304C16.7546 4.55329 16.2335 4.03467 15.5907 4.03467C14.9479 4.03467 14.4268 4.55329 14.4268 5.19304C14.4268 5.8328 14.9479 6.35142 15.5907 6.35142Z" fill="#131313"/>
</svg>
