<svg width="43" height="58" viewBox="0 0 43 58" fill="none" xmlns="http://www.w3.org/2000/svg">
<path d="M13.8317 44.8526C13.8317 44.8526 11.6018 46.2123 15.3818 46.593C19.9323 47.1732 22.3526 47.0735 27.3926 46.1126C28.4079 46.729 29.4775 47.2548 30.5925 47.6627C19.2615 52.5033 4.921 47.3726 13.8317 44.8526ZM12.3813 38.5526C12.3813 38.5526 9.96103 40.3927 13.741 40.7825C18.6814 41.2629 22.552 41.3626 29.2418 40.012C29.8945 40.6737 30.6922 41.1723 31.5624 41.4624C17.9018 45.5324 2.60041 41.8521 12.3813 38.5526ZM39.1134 49.5935C39.1134 49.5935 40.7632 50.9532 37.2732 52.0138C30.7829 53.9536 10.0517 54.5338 4.24114 52.0138C2.21063 51.1436 6.0813 49.8835 7.32317 49.6932C8.58318 49.4031 9.26304 49.4031 9.26304 49.4031C7.0331 47.853 -5.5579 52.603 2.87236 53.9536C26.0238 57.7337 45.1052 52.3038 39.1043 49.5935H39.1225H39.1134ZM14.8741 31.9625C14.8741 31.9625 4.31366 34.4825 11.0941 35.3527C14.0039 35.7425 19.7147 35.6428 25.0448 35.253C29.405 34.8632 33.7652 34.0927 33.7652 34.0927C33.7652 34.0927 32.2151 34.7725 31.1454 35.4524C20.3946 38.2625 -0.236864 37.0025 5.67338 34.0927C10.7134 31.6724 14.8741 31.9625 14.8741 31.9625ZM33.7652 42.5139C44.6157 36.8937 39.5757 31.473 36.0858 32.1528C35.2155 32.3432 34.8257 32.5426 34.8257 32.5426C34.8257 32.5426 35.1158 31.9625 35.7957 31.7721C42.6759 29.3518 48.0966 39.033 33.5657 42.813C33.5657 42.813 33.6655 42.7133 33.7561 42.5229L33.7652 42.5139ZM15.9438 57.8152C26.4046 58.4951 42.3858 57.4255 42.7756 52.4851C42.7756 52.4851 42.0051 54.425 34.155 55.8754C25.2443 57.5252 14.2033 57.3257 7.71296 56.2652C7.71296 56.2652 9.07268 57.4255 15.9438 57.8152Z" fill="#4E7896"/>
<path d="M27.1931 0C27.1931 0 33.2031 6.1006 21.4823 15.3014C12.0821 22.7617 19.3521 27.0221 21.4823 31.8627C15.9619 26.9224 11.9915 22.5623 14.7019 18.4922C18.6722 12.4913 29.6225 9.60868 27.1931 0ZM24.1111 27.8017C26.9212 31.0016 23.3406 33.9023 23.3406 33.9023C23.3406 33.9023 30.5108 30.222 27.2113 25.6715C24.2108 21.3113 21.8812 19.1811 34.4722 11.9202C34.4722 11.9202 14.6112 16.8605 24.1111 27.8108V27.8017Z" fill="#F58219"/>
</svg>
