<svg width="104" height="42" viewBox="0 0 104 42" fill="none" xmlns="http://www.w3.org/2000/svg">
<g filter="url(#filter0_d_4_104)">
<g filter="url(#filter1_d_4_104)">
<path d="M11.9029 12.6482C12.293 12.6482 12.6671 12.4935 12.9429 12.218C13.2187 11.9425 13.3737 11.5689 13.3737 11.1792V7.2886C19.9541 4.13046 33.9444 4.32259 37.5953 8.84566C41.7632 13.9972 42.7129 31.1368 37.5953 35.3477C32.4777 39.5586 16.219 39.5105 11.0573 35.3477C6.8614 31.9614 6.38851 19.645 8.88522 12.6482H11.9029Z" fill="#072F53"/>
</g>
<path d="M13.3252 0.976018H15.1286C15.3293 0.97549 15.5281 1.01458 15.7136 1.09103C15.8991 1.16748 16.0676 1.2798 16.2095 1.42152C16.3514 1.56323 16.4638 1.73156 16.5404 1.91683C16.6169 2.10209 16.656 2.30064 16.6555 2.50106V4.3223C16.6555 4.5042 16.5834 4.67871 16.455 4.80771C16.3266 4.93671 16.1523 5.00972 15.9702 5.01077H14.1628C13.7582 5.00972 13.3704 4.8487 13.0843 4.56293C12.7982 4.27716 12.637 3.88987 12.6359 3.48573V1.66049C12.637 1.47859 12.7101 1.3045 12.8392 1.17625C12.9684 1.048 13.1431 0.976015 13.3252 0.976018Z" fill="#072F53"/>
<path d="M0.669267 0.500047H2.47267C2.674 0.498459 2.87365 0.536762 3.06007 0.61274C3.24648 0.688719 3.41596 0.800863 3.5587 0.942688C3.70144 1.08451 3.81461 1.2532 3.89165 1.43899C3.9687 1.62478 4.00809 1.82399 4.00756 2.02509V3.82631C4.00808 3.91654 3.99075 4.00597 3.95654 4.08948C3.92234 4.17298 3.87196 4.24891 3.80827 4.3129C3.74458 4.37688 3.66885 4.42765 3.58545 4.4623C3.50204 4.49695 3.4126 4.51479 3.32227 4.51478H1.51887C1.1153 4.51267 0.728994 4.35106 0.44438 4.06529C0.159765 3.77952 -6.19888e-06 3.39283 -9.53674e-07 2.98974V1.18452C-4.95911e-05 1.00572 0.0699499 0.834008 0.19502 0.706096C0.320091 0.578184 0.490309 0.50423 0.669267 0.500047Z" fill="#072F53"/>
<path d="M2.26064 10.9353H4.6371C5.16854 10.9353 5.6782 11.1462 6.05398 11.5215C6.42975 11.8968 6.64087 12.4059 6.64087 12.9367V15.3143C6.64087 15.4331 6.61744 15.5507 6.57193 15.6605C6.52641 15.7702 6.45969 15.87 6.37559 15.954C6.29149 16.038 6.19165 16.1046 6.08176 16.1501C5.97188 16.1955 5.8541 16.2189 5.73516 16.2189H3.3587C2.82727 16.2189 2.3176 16.0081 1.94182 15.6327C1.56604 15.2574 1.35494 14.7484 1.35494 14.2176V11.8399C1.35494 11.7212 1.37836 11.6035 1.42388 11.4938C1.46939 11.384 1.5361 11.2843 1.62021 11.2003C1.70431 11.1163 1.80416 11.0497 1.91404 11.0042C2.02393 10.9587 2.1417 10.9353 2.26064 10.9353Z" fill="#072F53"/>
<path d="M6.47292 4.11483H9.74309C10.4765 4.11483 11.1798 4.40581 11.6984 4.92377C12.217 5.44172 12.5083 6.14422 12.5083 6.87672V10.143C12.5088 10.3062 12.4771 10.468 12.4149 10.619C12.3527 10.7701 12.2613 10.9073 12.1458 11.023C12.0304 11.1386 11.8933 11.2304 11.7423 11.293C11.5913 11.3556 11.4294 11.3878 11.266 11.3878H7.9958C7.6308 11.3899 7.26897 11.3199 6.93114 11.1819C6.59331 11.0438 6.28614 10.8404 6.0273 10.5834C5.76845 10.3263 5.56303 10.0207 5.42286 9.68409C5.28269 9.34747 5.21054 8.98649 5.21055 8.62192V5.35568C5.21053 5.19103 5.24331 5.02803 5.30699 4.87616C5.37068 4.72429 5.46398 4.5866 5.58147 4.47111C5.69897 4.35563 5.8383 4.26465 5.99135 4.20348C6.1444 4.14231 6.3081 4.11218 6.47292 4.11483Z" fill="#FBC108"/>
<g filter="url(#filter2_d_4_104)">
<path d="M12.7369 22.4295C12.732 21.3799 12.9347 20.3396 13.3332 19.3683C13.7317 18.3971 14.3183 17.514 15.0592 16.7696C15.8002 16.0253 16.681 15.4343 17.6511 15.0307C18.6212 14.627 19.6616 14.4186 20.7125 14.4174H23.9357C23.9357 14.8287 23.8546 15.2358 23.697 15.6157C23.5394 15.9956 23.3084 16.3408 23.0173 16.6315C22.7261 16.9222 22.3804 17.1528 22 17.3101C21.6196 17.4673 21.2119 17.5482 20.8002 17.548H20.7736C18.109 17.548 15.8978 19.6735 15.8724 22.335C15.8669 22.9736 15.988 23.607 16.2287 24.1987C16.4694 24.7904 16.825 25.3287 17.2749 25.7826C17.7248 26.2364 18.2601 26.5969 18.8501 26.8432C19.4401 27.0895 20.073 27.2167 20.7125 27.2176H31.5731C32.1548 27.2216 32.7152 26.9989 33.1352 26.5969C33.5551 26.1948 33.8017 25.6451 33.8224 25.0645C33.8291 24.7704 33.777 24.4779 33.6691 24.2043C33.5611 23.9306 33.3995 23.6812 33.1938 23.4708C32.988 23.2603 32.7422 23.093 32.4709 22.9788C32.1995 22.8645 31.908 22.8055 31.6135 22.8053H28.2091C25.901 22.8053 23.9819 20.9772 23.9472 18.6765C23.9385 18.12 24.0406 17.5674 24.2477 17.0507C24.4547 16.534 24.7624 16.0636 25.1531 15.6668C25.5437 15.2699 26.0095 14.9546 26.5232 14.7392C27.037 14.5237 27.5885 14.4124 28.1456 14.4117H35.3168C35.3168 15.242 34.9866 16.0382 34.3988 16.6253C33.811 17.2124 33.0138 17.5423 32.1825 17.5423H28.1733C28.0306 17.5417 27.8891 17.5692 27.757 17.6232C27.6248 17.6772 27.5047 17.7566 27.4033 17.857C27.3019 17.9574 27.2213 18.0768 27.1661 18.2083C27.1109 18.3398 27.0822 18.4809 27.0816 18.6235C27.0868 18.902 27.2011 19.1674 27.4 19.3627C27.599 19.558 27.8667 19.6675 28.1456 19.6678H31.5454C34.4882 19.6678 36.929 22.0145 36.9579 24.9526C36.964 25.6578 36.8303 26.3571 36.5645 27.0104C36.2987 27.6637 35.9061 28.258 35.4093 28.759C34.9125 29.26 34.3213 29.6579 33.6699 29.9296C33.0184 30.2014 32.3195 30.3417 31.6135 30.3424H20.8002C16.3987 30.3424 12.7623 26.8188 12.7369 22.4237" fill="white"/>
</g>
</g>
<g filter="url(#filter3_d_4_104)">
<path d="M8.16523 8.47038V7.47801H8.37599V8.47038C8.37599 8.69592 8.27061 8.75607 8.05985 8.75607H6.87058C6.64476 8.75607 6.50928 8.57564 6.50928 8.3501V6.18492C6.50928 5.95938 6.65982 5.79398 6.93079 5.79398H10.8148C11.0857 5.79398 11.2363 5.97441 11.2363 6.19621V8.3501C11.2363 8.57564 11.0857 8.74103 10.8599 8.74103H9.64053C9.48999 8.74103 9.36956 8.68089 9.36956 8.56557V7.47801H9.58031V8.47038C9.58031 8.53053 9.58031 8.53053 9.64053 8.53053H10.8599C10.9653 8.53053 11.0255 8.47038 11.0255 8.3501V6.19621C11.0244 6.06352 10.9639 6.00449 10.8148 6.00449H6.93079C6.79531 6.00446 6.72003 6.06463 6.72003 6.18492V8.3501C6.72003 8.44031 6.75014 8.53053 6.87058 8.53053H8.05985C8.14755 8.53039 8.16523 8.51549 8.16523 8.47038Z" fill="white"/>
<path d="M8.45156 7.2826C8.45156 7.38289 8.37026 7.46418 8.26997 7.46418C8.16969 7.46418 8.08839 7.38289 8.08839 7.2826C8.08839 7.18231 8.16969 7.10101 8.26997 7.10101C8.37026 7.10101 8.45156 7.18231 8.45156 7.2826Z" stroke="white" stroke-width="0.0879059"/>
<path d="M9.65615 7.2826C9.65615 7.38289 9.57485 7.46418 9.47456 7.46418C9.37427 7.46418 9.29298 7.38289 9.29298 7.2826C9.29298 7.18231 9.37427 7.10101 9.47456 7.10101C9.57485 7.10101 9.65615 7.18231 9.65615 7.2826Z" stroke="white" stroke-width="0.0879059"/>
<path d="M9.1853 6.876C9.1853 7.04062 9.05185 7.17407 8.88723 7.17407C8.72261 7.17407 8.58916 7.04062 8.58916 6.876C8.58916 6.71138 8.72261 6.57793 8.88723 6.57793C9.05185 6.57793 9.1853 6.71138 9.1853 6.876Z" stroke="white" stroke-width="0.12558"/>
<rect x="8.76733" y="7.20697" width="0.210502" height="1.44345" fill="white"/>
<path d="M7.98427 8.44074V8.26031H7.03587C7.00576 8.2603 6.99071 8.24526 6.99071 8.18513V6.34104C6.99146 6.29097 7.00576 6.27526 7.09609 6.27556H10.6855C10.7542 6.27526 10.7542 6.3354 10.7542 6.39554V8.18513C10.7542 8.22993 10.7241 8.26031 10.6855 8.26031L9.76065 8.26V8.44074H10.6855C10.8747 8.44074 10.9349 8.39532 10.9349 8.18513V6.39554V6.32037C10.9349 6.1098 10.8445 6.09484 10.6855 6.09483H7.09609C6.88533 6.09471 6.81006 6.12478 6.81006 6.34104V8.18513C6.81006 8.38059 6.85523 8.44074 7.03587 8.44074H7.98427Z" fill="white"/>
<rect x="8.34546" y="8.86076" width="1.05378" height="0.180431" fill="white"/>
<rect x="8.34546" y="9.19187" width="1.05378" height="0.180431" fill="white"/>
<rect x="7.62329" y="9.55292" width="2.49895" height="0.180431" fill="white"/>
</g>
<rect x="48" y="33.5" width="54" height="1" fill="#072F53"/>
<rect width="0.410667" height="4.59327" transform="matrix(0.781466 -0.623948 0.624864 0.780734 69.5474 34.1114)" fill="#072F53"/>
<path d="M103.846 33.9859C103.846 34.4619 103.443 34.8582 102.932 34.8582C102.421 34.8582 102.017 34.4619 102.017 33.9859C102.017 33.51 102.421 33.1137 102.932 33.1137C103.443 33.1137 103.846 33.51 103.846 33.9859Z" stroke="#FBC108" stroke-width="0.307278"/>
<rect x="72.4043" y="37.2684" width="27.4865" height="0.410366" fill="#072F53"/>
<path d="M101.63 37.4741C101.63 37.95 101.226 38.3464 100.715 38.3464C100.204 38.3464 99.8006 37.95 99.8006 37.4741C99.8006 36.9981 100.204 36.6018 100.715 36.6018C101.226 36.6018 101.63 36.9981 101.63 37.4741Z" stroke="#FBC108" stroke-width="0.307278"/>
<g filter="url(#filter4_d_4_104)">
<path d="M2.38843 3.02189L2.82816 2.58305L2.3902 2.14598H2.66915L3.10977 2.58305L2.67003 3.02189H2.38843Z" fill="#FBC108"/>
</g>
<g filter="url(#filter5_d_4_104)">
<path d="M2.0613 3.02193L1.71484 1.87685H1.94937L2.29671 3.02193H2.0613Z" fill="#FBC108"/>
</g>
<g filter="url(#filter6_d_4_104)">
<path d="M1.34037 3.02189L0.900635 2.58305L1.34125 2.14598H1.6202L1.18224 2.58305L1.62197 3.02189H1.34037Z" fill="#FBC108"/>
</g>
<path d="M47.6435 31.5V12.5909H51.6413V20.3928H59.7571V12.5909H63.7457V31.5H59.7571V23.6889H51.6413V31.5H47.6435ZM76.0625 25.4616V17.3182H79.9957V31.5H76.2195V28.924H76.0717C75.7517 29.755 75.2192 30.4228 74.4744 30.9276C73.7358 31.4323 72.834 31.6847 71.7692 31.6847C70.8213 31.6847 69.9872 31.4692 69.267 31.0384C68.5469 30.6075 67.9837 29.995 67.5774 29.201C67.1773 28.407 66.9742 27.456 66.968 26.348V17.3182H70.9013V25.6463C70.9074 26.4834 71.1321 27.1451 71.5753 27.6314C72.0185 28.1177 72.6125 28.3608 73.3572 28.3608C73.8312 28.3608 74.2744 28.2531 74.6868 28.0376C75.0992 27.8161 75.4316 27.4898 75.6839 27.0589C75.9425 26.6281 76.0687 26.0956 76.0625 25.4616ZM83.2157 31.5V12.5909H87.149V19.7003H87.269C87.4413 19.3187 87.6906 18.9309 88.0169 18.5369C88.3493 18.1368 88.7801 17.8045 89.3095 17.5398C89.845 17.2689 90.5098 17.1335 91.3038 17.1335C92.3379 17.1335 93.292 17.4044 94.166 17.946C95.0401 18.4815 95.7387 19.291 96.2619 20.3743C96.7851 21.4515 97.0467 22.8026 97.0467 24.4276C97.0467 26.0095 96.7913 27.3452 96.2804 28.4347C95.7756 29.518 95.0862 30.3397 94.2122 30.8999C93.3443 31.4538 92.3717 31.7308 91.2946 31.7308C90.5313 31.7308 89.8819 31.6046 89.3464 31.3523C88.8171 31.0999 88.3831 30.7829 88.0446 30.4013C87.706 30.0135 87.4475 29.6226 87.269 29.2287H87.0936V31.5H83.2157ZM87.0659 24.4091C87.0659 25.2524 87.1828 25.9879 87.4167 26.6158C87.6506 27.2436 87.9892 27.733 88.4324 28.0838C88.8755 28.4285 89.4141 28.6009 90.0481 28.6009C90.6883 28.6009 91.2299 28.4254 91.6731 28.0746C92.1163 27.7176 92.4518 27.2251 92.6795 26.5973C92.9134 25.9633 93.0304 25.2339 93.0304 24.4091C93.0304 23.5904 92.9165 22.8703 92.6887 22.2486C92.461 21.6269 92.1255 21.1406 91.6824 20.7898C91.2392 20.4389 90.6944 20.2635 90.0481 20.2635C89.408 20.2635 88.8663 20.4328 88.4231 20.7713C87.9861 21.1098 87.6506 21.59 87.4167 22.2116C87.1828 22.8333 87.0659 23.5658 87.0659 24.4091Z" fill="#072F53"/>
<defs>
<filter id="filter0_d_4_104" x="0" y="0.5" width="41.1206" height="38.1586" filterUnits="userSpaceOnUse" color-interpolation-filters="sRGB">
<feFlood flood-opacity="0" result="BackgroundImageFix"/>
<feColorMatrix in="SourceAlpha" type="matrix" values="0 0 0 0 0 0 0 0 0 0 0 0 0 0 0 0 0 0 127 0" result="hardAlpha"/>
<feOffset dx="0.034142" dy="0.17071"/>
<feComposite in2="hardAlpha" operator="out"/>
<feColorMatrix type="matrix" values="0 0 0 0 1 0 0 0 0 1 0 0 0 0 1 0 0 0 1 0"/>
<feBlend mode="normal" in2="BackgroundImageFix" result="effect1_dropShadow_4_104"/>
<feBlend mode="normal" in="SourceGraphic" in2="effect1_dropShadow_4_104" result="shape"/>
</filter>
<filter id="filter1_d_4_104" x="7.36279" y="5.14915" width="33.7919" height="33.407" filterUnits="userSpaceOnUse" color-interpolation-filters="sRGB">
<feFlood flood-opacity="0" result="BackgroundImageFix"/>
<feColorMatrix in="SourceAlpha" type="matrix" values="0 0 0 0 0 0 0 0 0 0 0 0 0 0 0 0 0 0 127 0" result="hardAlpha"/>
<feOffset dx="0.0682839" dy="0.0682839"/>
<feComposite in2="hardAlpha" operator="out"/>
<feColorMatrix type="matrix" values="0 0 0 0 0.954167 0 0 0 0 0.734964 0 0 0 0 0.0357812 0 0 0 1 0"/>
<feBlend mode="normal" in2="BackgroundImageFix" result="effect1_dropShadow_4_104"/>
<feBlend mode="normal" in="SourceGraphic" in2="effect1_dropShadow_4_104" result="shape"/>
</filter>
<filter id="filter2_d_4_104" x="12.6002" y="14.4117" width="24.4943" height="16.2039" filterUnits="userSpaceOnUse" color-interpolation-filters="sRGB">
<feFlood flood-opacity="0" result="BackgroundImageFix"/>
<feColorMatrix in="SourceAlpha" type="matrix" values="0 0 0 0 0 0 0 0 0 0 0 0 0 0 0 0 0 0 127 0" result="hardAlpha"/>
<feOffset dy="0.136568"/>
<feGaussianBlur stdDeviation="0.0682839"/>
<feComposite in2="hardAlpha" operator="out"/>
<feColorMatrix type="matrix" values="0 0 0 0 0 0 0 0 0 0 0 0 0 0 0 0 0 0 0.25 0"/>
<feBlend mode="normal" in2="BackgroundImageFix" result="effect1_dropShadow_4_104"/>
<feBlend mode="normal" in="SourceGraphic" in2="effect1_dropShadow_4_104" result="shape"/>
</filter>
<filter id="filter3_d_4_104" x="6.44649" y="5.79398" width="4.85263" height="4.06495" filterUnits="userSpaceOnUse" color-interpolation-filters="sRGB">
<feFlood flood-opacity="0" result="BackgroundImageFix"/>
<feColorMatrix in="SourceAlpha" type="matrix" values="0 0 0 0 0 0 0 0 0 0 0 0 0 0 0 0 0 0 127 0" result="hardAlpha"/>
<feOffset dy="0.0627899"/>
<feGaussianBlur stdDeviation="0.031395"/>
<feComposite in2="hardAlpha" operator="out"/>
<feColorMatrix type="matrix" values="0 0 0 0 0 0 0 0 0 0 0 0 0 0 0 0 0 0 0.25 0"/>
<feBlend mode="normal" in2="BackgroundImageFix" result="effect1_dropShadow_4_104"/>
<feBlend mode="normal" in="SourceGraphic" in2="effect1_dropShadow_4_104" result="shape"/>
</filter>
<filter id="filter4_d_4_104" x="2.25186" y="2.14598" width="0.994571" height="1.14905" filterUnits="userSpaceOnUse" color-interpolation-filters="sRGB">
<feFlood flood-opacity="0" result="BackgroundImageFix"/>
<feColorMatrix in="SourceAlpha" type="matrix" values="0 0 0 0 0 0 0 0 0 0 0 0 0 0 0 0 0 0 127 0" result="hardAlpha"/>
<feOffset dy="0.136568"/>
<feGaussianBlur stdDeviation="0.0682839"/>
<feComposite in2="hardAlpha" operator="out"/>
<feColorMatrix type="matrix" values="0 0 0 0 0 0 0 0 0 0 0 0 0 0 0 0 0 0 0.25 0"/>
<feBlend mode="normal" in2="BackgroundImageFix" result="effect1_dropShadow_4_104"/>
<feBlend mode="normal" in="SourceGraphic" in2="effect1_dropShadow_4_104" result="shape"/>
</filter>
<filter id="filter5_d_4_104" x="1.57828" y="1.87685" width="0.854923" height="1.41822" filterUnits="userSpaceOnUse" color-interpolation-filters="sRGB">
<feFlood flood-opacity="0" result="BackgroundImageFix"/>
<feColorMatrix in="SourceAlpha" type="matrix" values="0 0 0 0 0 0 0 0 0 0 0 0 0 0 0 0 0 0 127 0" result="hardAlpha"/>
<feOffset dy="0.136568"/>
<feGaussianBlur stdDeviation="0.0682839"/>
<feComposite in2="hardAlpha" operator="out"/>
<feColorMatrix type="matrix" values="0 0 0 0 0 0 0 0 0 0 0 0 0 0 0 0 0 0 0.25 0"/>
<feBlend mode="normal" in2="BackgroundImageFix" result="effect1_dropShadow_4_104"/>
<feBlend mode="normal" in="SourceGraphic" in2="effect1_dropShadow_4_104" result="shape"/>
</filter>
<filter id="filter6_d_4_104" x="0.764067" y="2.14598" width="0.994571" height="1.14905" filterUnits="userSpaceOnUse" color-interpolation-filters="sRGB">
<feFlood flood-opacity="0" result="BackgroundImageFix"/>
<feColorMatrix in="SourceAlpha" type="matrix" values="0 0 0 0 0 0 0 0 0 0 0 0 0 0 0 0 0 0 127 0" result="hardAlpha"/>
<feOffset dy="0.136568"/>
<feGaussianBlur stdDeviation="0.0682839"/>
<feComposite in2="hardAlpha" operator="out"/>
<feColorMatrix type="matrix" values="0 0 0 0 0 0 0 0 0 0 0 0 0 0 0 0 0 0 0.25 0"/>
<feBlend mode="normal" in2="BackgroundImageFix" result="effect1_dropShadow_4_104"/>
<feBlend mode="normal" in="SourceGraphic" in2="effect1_dropShadow_4_104" result="shape"/>
</filter>
</defs>
</svg>
