<svg width="503" height="507" viewBox="0 0 503 507" fill="none" xmlns="http://www.w3.org/2000/svg">
<path d="M358.516 100.14C382.044 100.14 401.117 81.0625 401.117 57.5297C401.117 33.9969 382.044 14.9198 358.516 14.9198C334.987 14.9198 315.914 33.9969 315.914 57.5297C315.914 81.0625 334.987 100.14 358.516 100.14Z" fill="#FCA311"/>
<path d="M388.606 51.8021H373.075V53.5377H388.606V51.8021Z" fill="#072F53"/>
<path d="M364.398 51.8021H328.426V53.5377H364.398V51.8021Z" fill="#072F53"/>
<path d="M388.606 64.4202H378.003V66.1558H388.606V64.4202Z" fill="#072F53"/>
<path d="M355.67 64.4202H328.426V66.1558H355.67V64.4202Z" fill="#072F53"/>
<path d="M388.606 77.0382H366.186V78.7739H388.606V77.0382Z" fill="#072F53"/>
<path d="M363.652 77.0382H328.426V78.7739H363.652V77.0382Z" fill="#072F53"/>
<path d="M363.461 83.7378V78.5656C358.498 77.6284 354.923 73.6538 354.785 68.5857C354.715 66.1558 356.017 63.3267 357.943 61.7126C359.661 60.272 361.57 59.4736 363.461 59.3695V45.8141C359.8 42.6032 356.746 39.4096 356.78 35.3309C356.815 31.7381 359.366 27.5899 364.155 26.5659L365.196 26.3403V44.9984C365.63 45.3802 366.081 45.7621 366.533 46.1439C372.311 51.0558 378.853 56.6098 378.853 65.9996C378.853 73.1504 373.092 78.7392 365.752 78.7392C365.561 78.7392 365.37 78.7392 365.196 78.7392V83.7031C365.196 85.3693 366.55 86.7231 368.216 86.7231C369.726 86.7231 370.298 85.3867 370.316 85.3346L371.929 85.9768C371.895 86.0809 370.923 88.4588 368.216 88.4588C365.509 88.4588 363.461 86.3239 363.461 83.7031V83.7378ZM365.196 59.4736C365.63 59.543 366.064 59.6645 366.481 59.8207C368.875 60.7059 370.593 62.7366 371.01 65.1491L369.292 65.4442C368.997 63.6391 367.678 62.1118 365.873 61.4522C365.648 61.3654 365.422 61.296 365.179 61.244V77.0383C365.37 77.0383 365.543 77.0383 365.734 77.0383C372.103 77.0383 377.101 72.1958 377.101 66.0343C377.101 57.4429 370.888 52.1666 365.405 47.4977C365.335 47.4283 365.266 47.3762 365.179 47.3068V59.4736H365.196ZM359.071 63.049C357.544 64.3334 356.485 66.6418 356.52 68.551C356.624 72.7165 359.435 75.9275 363.461 76.8126V61.1225C361.969 61.2266 360.442 61.8861 359.071 63.049ZM358.516 35.3656C358.481 38.3335 360.581 40.8676 363.461 43.5057V28.5792C359.886 29.8462 358.533 33.2134 358.516 35.3656Z" fill="#072F53"/>
<path d="M368.32 83.7378C368.32 82.1931 369.587 80.9261 371.131 80.9261C372.675 80.9261 373.942 82.1931 373.942 83.7378C373.942 85.2825 372.675 86.5496 371.131 86.5496C369.587 86.5496 368.32 85.2825 368.32 83.7378ZM370.055 83.7378C370.055 84.3279 370.541 84.8139 371.131 84.8139C371.721 84.8139 372.207 84.3279 372.207 83.7378C372.207 83.1477 371.721 82.6617 371.131 82.6617C370.541 82.6617 370.055 83.1477 370.055 83.7378Z" fill="#072F53"/>
<path d="M411.268 241.178C434.797 241.178 453.87 222.101 453.87 198.568C453.87 175.035 434.797 155.958 411.268 155.958C387.74 155.958 368.667 175.035 368.667 198.568C368.667 222.101 387.74 241.178 411.268 241.178Z" fill="#FCA311"/>
<path d="M390.983 228.664H392.718V223.804C392.718 217.382 395.79 211.255 400.909 207.419L406.601 203.15L405.559 201.761L399.868 206.031C394.297 210.214 390.983 216.861 390.983 223.804V228.664Z" fill="#072F53"/>
<path d="M416.96 195.374L422.652 191.104C428.222 186.922 431.537 180.274 431.537 173.332V168.472H429.802V173.332C429.802 179.753 426.73 185.88 421.611 189.716L415.919 193.986L416.96 195.374Z" fill="#072F53"/>
<path d="M429.819 228.664H431.554V223.804C431.554 216.844 428.222 210.196 422.669 206.031L400.926 189.716C395.79 185.863 392.736 179.736 392.736 173.332V168.472H391V173.332C391 180.291 394.315 186.939 399.885 191.104L421.628 207.419C426.765 211.273 429.819 217.399 429.819 223.804V228.664Z" fill="#072F53"/>
<path d="M430.687 171.492H399.625V173.227H430.687V171.492Z" fill="#072F53"/>
<path d="M428.743 179.25H400.596V180.986H428.743V179.25Z" fill="#072F53"/>
<path d="M424.856 187.026H406.41V188.761H424.856V187.026Z" fill="#072F53"/>
<path d="M422.912 223.908H391.851V225.644H422.912V223.908Z" fill="#072F53"/>
<path d="M421.941 216.15H393.794V217.885H421.941V216.15Z" fill="#072F53"/>
<path d="M416.127 208.374H397.681V210.11H416.127V208.374Z" fill="#072F53"/>
<path d="M137.716 149.709C161.245 149.709 180.318 130.632 180.318 107.1C180.318 83.5667 161.245 64.4896 137.716 64.4896C114.188 64.4896 95.115 83.5667 95.115 107.1C95.115 130.632 114.188 149.709 137.716 149.709Z" fill="#FCA311"/>
<path d="M111.826 129.142H122.134V127.406H111.826C111.323 127.406 110.906 126.99 110.906 126.487V83.6337C110.906 83.1303 111.323 82.7138 111.826 82.7138H163.607C164.11 82.7138 164.527 83.1303 164.527 83.6337V126.487C164.527 126.99 164.11 127.406 163.607 127.406H153.299V129.142H163.607C165.065 129.142 166.262 127.945 166.262 126.487V83.6337C166.262 82.1757 165.065 80.9781 163.607 80.9781H111.826C110.368 80.9781 109.171 82.1757 109.171 83.6337V126.487C109.171 127.945 110.368 129.142 111.826 129.142Z" fill="#072F53"/>
<path d="M118.993 123.779H120.745V122.043H120.659C120.294 119.804 118.507 118.017 116.268 117.652V92.4681C118.507 92.1036 120.294 90.3159 120.659 88.0769H154.774C155.139 90.3159 156.926 92.1036 159.165 92.4681V117.652C156.926 118.017 155.139 119.804 154.774 122.043H147.816V123.779H156.44V122.911C156.44 120.933 158.054 119.318 160.032 119.318H160.9V90.8019H160.032C158.054 90.8019 156.44 89.1877 156.44 87.2091V86.3413H118.993V87.2091C118.993 89.1877 117.379 90.8019 115.401 90.8019H114.533V119.318H115.401C117.379 119.318 118.993 120.933 118.993 122.911V123.779Z" fill="#072F53"/>
<path d="M143.946 94.3773H131.452V96.1129H143.946V94.3773Z" fill="#072F53"/>
<path d="M149.308 100.626H126.107V102.361H149.308V100.626Z" fill="#072F53"/>
<path d="M134.576 130.062L134.454 129.941C133.951 129.437 133.257 129.142 132.545 129.142H132.372C129.925 129.142 127.929 127.146 127.929 124.699V124.525C127.929 123.796 127.652 123.119 127.149 122.616L127.027 122.495C125.292 120.759 125.292 117.947 127.027 116.212L127.149 116.09C127.652 115.587 127.947 114.893 127.947 114.181V114.007C127.947 111.56 129.942 109.564 132.389 109.564H132.563C133.291 109.564 133.968 109.286 134.471 108.766L134.593 108.644C136.328 106.909 139.139 106.909 140.875 108.644L140.996 108.766C141.499 109.269 142.176 109.564 142.905 109.564H143.079C145.525 109.564 147.521 111.56 147.521 114.007V114.181C147.521 114.91 147.799 115.587 148.319 116.09L148.441 116.212C150.176 117.947 150.176 120.759 148.441 122.495L148.319 122.616C147.816 123.119 147.521 123.814 147.521 124.525V124.699C147.521 127.146 145.525 129.142 143.079 129.142H142.905C142.176 129.142 141.499 129.42 140.996 129.941L140.875 130.062C140.007 130.93 138.879 131.364 137.734 131.364C136.589 131.364 135.461 130.93 134.593 130.062H134.576ZM142.888 111.282C141.708 111.282 140.58 110.814 139.747 109.981L139.625 109.859C138.567 108.8 136.849 108.8 135.808 109.859L135.686 109.981C134.853 110.814 133.743 111.282 132.545 111.282H132.372C130.879 111.282 129.665 112.497 129.665 113.99V114.164C129.665 115.344 129.196 116.472 128.363 117.305L128.242 117.427C127.183 118.485 127.183 120.204 128.242 121.245L128.363 121.366C129.196 122.2 129.665 123.328 129.665 124.508V124.682C129.665 126.174 130.879 127.389 132.372 127.389H132.545C133.725 127.389 134.853 127.858 135.686 128.691L135.808 128.812C136.866 129.871 138.567 129.871 139.625 128.812L139.747 128.691C140.58 127.858 141.69 127.389 142.888 127.389H143.061C144.554 127.389 145.768 126.174 145.768 124.682V124.508C145.768 123.328 146.237 122.2 147.07 121.366L147.191 121.245C148.25 120.186 148.25 118.468 147.191 117.427L147.07 117.305C146.237 116.472 145.768 115.344 145.768 114.164V113.99C145.768 112.497 144.554 111.282 143.061 111.282H142.888Z" fill="#072F53"/>
<path d="M129.474 138.931L135.721 130.583L134.333 129.541L129.873 135.477L127.6 130.166L122.342 129.42L126.732 123.779H129.248L127.045 120.551L125.882 122.043H119.86V123.779H124.528L119.149 130.704L126.385 131.746L129.474 138.931Z" fill="#072F53"/>
<path d="M145.942 138.931L149.031 131.746L156.267 130.704L149.1 121.488L147.729 122.564L153.057 129.42L147.816 130.166L145.543 135.477L141.083 129.541L139.695 130.583L145.942 138.931Z" fill="#072F53"/>
<path d="M131.487 119.353C131.487 115.917 134.281 113.122 137.717 113.122C141.152 113.122 143.946 115.917 143.946 119.353C143.946 122.79 141.152 125.584 137.717 125.584C134.281 125.584 131.487 122.79 131.487 119.353ZM133.222 119.353C133.222 121.835 135.235 123.848 137.717 123.848C140.198 123.848 142.211 121.835 142.211 119.353C142.211 116.871 140.198 114.858 137.717 114.858C135.235 114.858 133.222 116.871 133.222 119.353Z" fill="#072F53"/>
<path d="M102.386 297.968C125.914 297.968 144.987 278.891 144.987 255.358C144.987 231.825 125.914 212.748 102.386 212.748C78.8578 212.748 59.7844 231.825 59.7844 255.358C59.7844 278.891 78.8578 297.968 102.386 297.968Z" fill="#FCA311"/>
<path d="M315.046 57.5297C315.046 33.5605 334.551 14.0519 358.516 14.0519C382.48 14.0519 401.985 33.5605 401.985 57.5297C401.985 81.4989 382.48 101.007 358.516 101.007C334.551 101.007 315.046 81.4989 315.046 57.5297ZM316.782 57.5297C316.782 80.5443 335.506 99.2718 358.516 99.2718C381.526 99.2718 400.249 80.5443 400.249 57.5297C400.249 34.5151 381.526 15.7876 358.516 15.7876C335.506 15.7876 316.782 34.5151 316.782 57.5297Z" fill="#DB6E00"/>
<path d="M367.799 198.568C367.799 174.599 387.304 155.09 411.268 155.09C435.233 155.09 454.738 174.599 454.738 198.568C454.738 222.537 435.233 242.045 411.268 242.045C387.304 242.045 367.799 222.537 367.799 198.568ZM369.535 198.568C369.535 221.582 388.258 240.31 411.268 240.31C434.278 240.31 453.002 221.582 453.002 198.568C453.002 175.553 434.278 156.826 411.268 156.826C388.258 156.826 369.535 175.553 369.535 198.568Z" fill="#DB6E00"/>
<path d="M94.2473 107.1C94.2473 83.1304 113.752 63.6218 137.716 63.6218C161.681 63.6218 181.186 83.1304 181.186 107.1C181.186 131.069 161.681 150.577 137.716 150.577C113.752 150.577 94.2473 131.069 94.2473 107.1ZM95.9826 107.1C95.9826 130.114 114.706 148.842 137.716 148.842C160.726 148.842 179.45 130.114 179.45 107.1C179.45 84.085 160.726 65.3574 137.716 65.3574C114.706 65.3574 95.9826 84.085 95.9826 107.1Z" fill="#DB6E00"/>
<path d="M58.9167 255.358C58.9167 231.389 78.4215 211.88 102.386 211.88C126.35 211.88 145.855 231.389 145.855 255.358C145.855 279.327 126.35 298.836 102.386 298.836C78.4215 298.836 58.9167 279.327 58.9167 255.358ZM60.652 255.358C60.652 278.372 79.3759 297.1 102.386 297.1C125.396 297.1 144.12 278.372 144.12 255.358C144.12 232.343 125.396 213.616 102.386 213.616C79.3759 213.616 60.652 232.343 60.652 255.358Z" fill="#DB6E00"/>
<path d="M76.6687 284.985C76.6687 281.878 79.2022 279.344 82.3084 279.344H122.428C125.535 279.344 128.068 281.878 128.068 284.985V285.853H76.6687V284.985ZM122.428 281.08H82.3084C80.4516 281.08 78.8899 282.382 78.4908 284.117H126.229C125.83 282.382 124.268 281.08 122.411 281.08H122.428Z" fill="#072F53"/>
<path d="M99.592 280.351H101.327V273.513C101.327 270.302 103.93 267.698 107.141 267.698C110.351 267.698 112.954 270.302 112.954 273.513V280.351H114.689V273.513C114.689 269.347 111.305 265.963 107.141 265.963C102.976 265.963 99.592 269.347 99.592 273.513V280.351Z" fill="#072F53"/>
<path d="M92.9111 244.857C92.9111 240.692 96.295 237.307 100.46 237.307C104.624 237.307 108.008 240.692 108.008 244.857C108.008 249.023 104.624 252.407 100.46 252.407C96.295 252.407 92.9111 249.023 92.9111 244.857ZM94.6464 244.857C94.6464 248.068 97.2494 250.672 100.46 250.672C103.67 250.672 106.273 248.068 106.273 244.857C106.273 241.646 103.67 239.043 100.46 239.043C97.2494 239.043 94.6464 241.646 94.6464 244.857Z" fill="#072F53"/>
<path d="M97.6831 244.857C97.6831 243.33 98.9325 242.08 100.46 242.08C101.987 242.08 103.236 243.33 103.236 244.857C103.236 246.385 101.987 247.634 100.46 247.634C98.9325 247.634 97.6831 246.385 97.6831 244.857ZM99.4184 244.857C99.4184 245.43 99.8869 245.899 100.46 245.899C101.032 245.899 101.501 245.43 101.501 244.857C101.501 244.284 101.032 243.816 100.46 243.816C99.8869 243.816 99.4184 244.284 99.4184 244.857Z" fill="#072F53"/>
<path d="M114.03 275.838C122.168 273.964 128.068 266.57 128.068 258.222C128.068 248.641 120.572 240.709 111.01 240.188H105.96V241.924H110.958C119.565 242.41 126.333 249.561 126.333 258.222C126.333 265.754 120.988 272.454 113.63 274.137L114.012 275.821L114.03 275.838Z" fill="#072F53"/>
<path d="M111.062 268.601C116.32 268.08 120.45 263.515 120.45 258.239C120.45 252.494 115.782 247.825 110.038 247.825H106.221V249.561H110.038C114.828 249.561 118.715 253.466 118.715 258.239C118.715 262.647 115.279 266.449 110.906 266.882L111.08 268.601H111.062Z" fill="#072F53"/>
<path d="M81.458 280.212H83.1933V275.439C83.1933 274.866 83.6618 274.398 84.2345 274.398H100.477V272.662H84.2345C82.7074 272.662 81.458 273.912 81.458 275.439V280.212Z" fill="#072F53"/>
<path d="M104.381 273.513C104.381 271.985 105.631 270.736 107.158 270.736C108.685 270.736 109.934 271.985 109.934 273.513C109.934 275.04 108.685 276.29 107.158 276.29C105.631 276.29 104.381 275.04 104.381 273.513ZM106.117 273.513C106.117 274.085 106.585 274.554 107.158 274.554C107.73 274.554 108.199 274.085 108.199 273.513C108.199 272.94 107.73 272.471 107.158 272.471C106.585 272.471 106.117 272.94 106.117 273.513Z" fill="#072F53"/>
<path d="M96.6418 258.135H99.5051C100.512 258.135 101.327 257.319 101.327 256.312V251.539H99.5918V256.312L96.6418 256.399V258.135Z" fill="#072F53"/>
<path d="M83.2801 258.135H96.6592V256.399H83.2801L83.1933 233.385C83.1933 232.812 83.6618 232.343 84.2345 232.343H98.568C99.1407 232.343 99.6092 232.812 99.6092 233.385V238.158H101.344V233.385C101.344 231.857 100.095 230.608 98.568 230.608H84.2345C82.7074 230.608 81.458 231.857 81.458 233.385V256.312C81.458 257.319 82.2736 258.135 83.2801 258.135Z" fill="#072F53"/>
<path d="M87.1846 231.475H88.9199V226.616H93.8655V231.475H95.6007V224.88H87.1846V231.475Z" fill="#072F53"/>
<path d="M96.6419 224.88H86.1433V226.616H96.6419V224.88Z" fill="#072F53"/>
<path d="M84.3213 262.925H98.4639V257.267H96.7286V261.19H86.0566V257.267H84.3213V262.925Z" fill="#072F53"/>
<path d="M87.1846 269.607H95.6007V262.057H93.8655V267.872H88.9199V262.057H87.1846V269.607Z" fill="#072F53"/>
<path d="M40.0803 209.111C43.7683 200.139 39.4864 189.875 30.5162 186.186C21.546 182.498 11.2844 186.781 7.59633 195.752C3.90824 204.724 8.19023 214.988 17.1604 218.677C26.1306 222.366 36.3922 218.083 40.0803 209.111Z" fill="#F2DBB5"/>
<path d="M484.689 288.647C484.689 293.49 488.628 297.43 493.469 297.43C498.311 297.43 502.25 293.49 502.25 288.647C502.25 283.805 498.311 279.865 493.469 279.865C488.628 279.865 484.689 283.805 484.689 288.647Z" fill="#F2DBB5"/>
<path d="M350.533 160.332C358.488 160.332 364.936 153.882 364.936 145.926C364.936 137.97 358.488 131.52 350.533 131.52C342.579 131.52 336.13 137.97 336.13 145.926C336.13 153.882 342.579 160.332 350.533 160.332Z" fill="#F2DBB5"/>
<path d="M196.05 31.7389C203.71 29.5927 208.18 21.6422 206.034 13.981C203.888 6.3199 195.939 1.84918 188.28 3.99542C180.62 6.14166 176.15 14.0921 178.296 21.7533C180.442 29.4144 188.391 33.8851 196.05 31.7389Z" fill="#F2DBB5"/>
<path d="M78.9421 356.615C78.9421 360.59 82.1698 363.818 86.1436 363.818C90.1174 363.818 93.3451 360.59 93.3451 356.615C93.3451 352.64 90.1174 349.412 86.1436 349.412C82.1698 349.412 78.9421 352.64 78.9421 356.615Z" fill="#F2DBB5"/>
<path d="M484.689 115.326C484.689 119.301 487.916 122.529 491.89 122.529C495.864 122.529 499.092 119.301 499.092 115.326C499.092 111.352 495.864 108.124 491.89 108.124C487.916 108.124 484.689 111.352 484.689 115.326Z" fill="#F2DBB5"/>
<path d="M298.856 453.412V445.185H434.001V453.412H426.73H298.856Z" fill="#225EC9"/>
<path d="M426.73 498.556H434.001V506.782H298.856V498.556H426.73Z" fill="#225EC9"/>
<path d="M298.856 498.556H148.18V506.782H298.856V498.556Z" fill="#001FAF"/>
<path d="M298.856 445.185H148.18V453.412H298.856V445.185Z" fill="#001FAF"/>
<path d="M434.001 453.412H426.73V498.573H434.001V453.412Z" fill="#225EC9"/>
<path d="M426.747 453.412H303.836V498.573H426.747V453.412Z" fill="#FFE8D6"/>
<path d="M303.836 453.412H157.273V498.573H303.836V453.412Z" fill="#EBD5C5"/>
<path d="M265 391.796V383.569H400.163V391.796H392.892H265Z" fill="#072F53"/>
<path d="M392.892 436.958H400.163V445.185H265V436.958H392.892Z" fill="#072F53"/>
<path d="M265 436.958H114.325V445.185H265V436.958Z" fill="#27293B"/>
<path d="M265 383.569H114.325V391.796H265V383.569Z" fill="#27293B"/>
<path d="M400.162 391.796H392.892V436.958H400.162V391.796Z" fill="#072F53"/>
<path d="M392.892 391.796H269.981V436.958H392.892V391.796Z" fill="#FFE8D6"/>
<path d="M269.981 391.796H123.418V436.958H269.981V391.796Z" fill="#EBD5C5"/>
<path d="M284.175 330.719V322.492H419.337V330.719H412.067H284.175Z" fill="#FCA311"/>
<path d="M412.067 375.881H419.337V384.107H284.175V375.881H412.067Z" fill="#FCA311"/>
<path d="M284.193 375.881H133.517V384.107H284.193V375.881Z" fill="#DB6E00"/>
<path d="M284.193 322.492H133.517V330.719H284.193V322.492Z" fill="#DB6E00"/>
<path d="M419.338 330.719H412.067V375.881H419.338V330.719Z" fill="#FCA311"/>
<path d="M412.067 330.719H289.156V375.881H412.067V330.719Z" fill="#FFE8D6"/>
<path d="M289.156 330.719H142.593V375.881H289.156V330.719Z" fill="#EBD5C5"/>
<path d="M411.268 466.897V484.514L404.709 479.811L398.167 484.514V466.897H411.268Z" fill="#225EC9"/>
<path d="M403.078 355.869V373.485L396.518 368.782L389.959 373.485V355.869H403.078Z" fill="#FCA311"/>
<path d="M326.933 465.804H417.515C418.47 465.804 418.539 467.297 417.585 467.297H327.002C326.048 467.297 325.979 465.804 326.933 465.804Z" fill="#EBD5C5"/>
<path d="M314.508 354.255H407.069C408.023 354.255 408.093 355.747 407.139 355.747H314.578C313.623 355.747 313.554 354.255 314.508 354.255Z" fill="#EBD5C5"/>
<path d="M242.962 155.611C242.962 143.479 250.892 133.655 260.697 133.655C270.484 133.655 278.431 143.479 278.431 155.611V193.465H244.315L242.962 155.611Z" fill="#DB6E00"/>
<path d="M278.431 193.465V250.585L246.224 246.645L244.315 193.465H278.431Z" fill="#EE9F87"/>
<path d="M325.007 259.888V247.409L277.824 233.819C269.72 233.819 246.224 238.487 246.224 245.916C246.554 269.364 325.007 259.888 325.007 259.888Z" fill="#EE9F87"/>
<path d="M337.709 252.268C340.364 250.932 343.626 250.255 346.594 250.307C349.44 250.359 352.216 251.14 354.472 252.928C356.381 254.438 357.717 256.764 358.168 259.141C358.394 260.339 358.567 261.554 358.498 262.769C358.463 263.463 358.411 264.262 358.238 264.956C357.995 265.928 357.439 266.605 356.693 267.247C355.721 268.063 354.09 267.507 353.466 266.553C352.771 265.477 352.841 264.366 352.771 263.151C352.754 262.717 352.737 262.266 352.685 261.832C352.667 261.589 352.615 261.363 352.598 261.12C352.667 261.832 352.598 261.12 352.563 260.964C352.459 260.513 352.32 260.061 352.164 259.627C352.095 259.454 352.025 259.298 351.973 259.124C351.938 259.072 351.921 259.02 351.886 258.968C351.713 258.673 351.522 258.395 351.331 258.117C351.418 258.256 351.14 257.892 351.053 257.805C350.88 257.631 350.689 257.475 350.498 257.319C350.463 257.284 350.429 257.267 350.411 257.25C350.377 257.25 350.342 257.215 350.273 257.18C350.082 257.093 349.908 256.972 349.717 256.885C349.665 256.868 349.37 256.746 349.249 256.677C349.127 256.642 348.936 256.573 348.902 256.573C348.398 256.434 347.895 256.347 347.392 256.26C347.34 256.26 347.305 256.26 347.271 256.243C347.236 256.243 347.201 256.243 347.149 256.243C346.889 256.243 346.628 256.243 346.386 256.243C345.813 256.243 345.24 256.295 344.685 256.364C344.425 256.399 344.164 256.434 343.921 256.469C343.8 256.486 343.731 256.503 343.696 256.503C343.678 256.503 343.609 256.521 343.47 256.555C342.117 256.868 340.746 257.215 339.358 257.302C338.212 257.371 336.963 256.555 336.651 255.427C336.356 254.351 336.668 252.858 337.761 252.303L337.709 252.268Z" fill="#EE9F87"/>
<path d="M330.612 253.119C333.267 251.782 336.529 251.105 339.497 251.158C342.342 251.21 345.119 251.991 347.375 253.778C349.284 255.288 350.62 257.614 351.071 259.992C351.297 261.19 351.47 262.405 351.401 263.619C351.366 264.314 351.314 265.112 351.14 265.806C350.897 266.778 350.342 267.455 349.596 268.097C348.624 268.913 346.993 268.358 346.368 267.403C345.674 266.327 345.744 265.216 345.674 264.001C345.657 263.567 345.64 263.116 345.587 262.682C345.57 262.439 345.518 262.214 345.501 261.971C345.57 262.682 345.501 261.971 345.466 261.814C345.362 261.363 345.223 260.912 345.067 260.478C344.997 260.304 344.928 260.148 344.876 259.975C344.841 259.923 344.824 259.87 344.789 259.818C344.616 259.523 344.425 259.246 344.234 258.968C344.321 259.107 344.043 258.742 343.956 258.656C343.783 258.482 343.592 258.326 343.401 258.17C343.366 258.135 343.332 258.117 343.314 258.1C343.28 258.1 343.245 258.065 343.175 258.031C342.985 257.944 342.811 257.822 342.62 257.736C342.568 257.718 342.273 257.597 342.152 257.527C342.03 257.493 341.839 257.423 341.805 257.406C341.301 257.267 340.798 257.18 340.295 257.093C340.243 257.093 340.208 257.093 340.173 257.076C340.139 257.076 340.104 257.076 340.052 257.076C339.792 257.076 339.531 257.076 339.288 257.076C338.716 257.076 338.143 257.128 337.588 257.198C337.327 257.232 337.067 257.267 336.824 257.302C336.703 257.319 336.633 257.336 336.599 257.336C336.581 257.336 336.512 257.354 336.373 257.389C335.02 257.701 333.649 258.048 332.26 258.135C331.115 258.204 329.866 257.388 329.553 256.26C329.258 255.184 329.571 253.692 330.664 253.136L330.612 253.119Z" fill="#EE9F87"/>
<path d="M323.879 253.969C326.534 252.633 329.796 251.956 332.763 252.008C335.609 252.06 338.386 252.841 340.642 254.629C342.55 256.139 343.887 258.465 344.338 260.842C344.563 262.04 344.737 263.255 344.668 264.47C344.633 265.164 344.581 265.963 344.407 266.657C344.164 267.629 343.609 268.306 342.863 268.948C341.891 269.764 340.26 269.208 339.635 268.254C338.941 267.177 339.01 266.067 338.941 264.852C338.924 264.418 338.906 263.967 338.854 263.533C338.837 263.29 338.785 263.064 338.768 262.821C338.837 263.533 338.768 262.821 338.733 262.665C338.629 262.214 338.49 261.762 338.334 261.328C338.264 261.155 338.195 260.999 338.143 260.825C338.108 260.773 338.091 260.721 338.056 260.669C337.883 260.374 337.692 260.096 337.501 259.818C337.588 259.957 337.31 259.593 337.223 259.506C337.05 259.332 336.859 259.176 336.668 259.02C336.633 258.985 336.598 258.968 336.581 258.951C336.546 258.951 336.512 258.916 336.442 258.881C336.251 258.794 336.078 258.673 335.887 258.586C335.835 258.569 335.54 258.447 335.418 258.378C335.297 258.343 335.106 258.274 335.071 258.256C334.568 258.117 334.065 258.031 333.562 257.944C333.51 257.944 333.475 257.944 333.44 257.927C333.405 257.927 333.371 257.927 333.319 257.927C333.058 257.927 332.798 257.927 332.555 257.927C331.983 257.927 331.41 257.979 330.855 258.048C330.594 258.083 330.334 258.117 330.091 258.152C329.97 258.17 329.9 258.187 329.865 258.187C329.848 258.187 329.779 258.204 329.64 258.239C328.286 258.551 326.915 258.899 325.527 258.985C324.382 259.055 323.133 258.239 322.82 257.111C322.525 256.035 322.838 254.542 323.931 253.987L323.879 253.969Z" fill="#EE9F87"/>
<path d="M347.514 257.666C345.171 259.541 339.479 261.658 336.668 262.647C331.046 264.609 324.226 262.214 321.068 257.163L325.024 247.409L353.83 248.224L347.514 257.684V257.666Z" fill="#EE9F87"/>
<path d="M344.945 250.168C347.6 248.832 350.863 248.155 353.83 248.207C356.676 248.276 359.452 249.04 361.708 250.828C363.617 252.338 364.953 254.664 365.404 257.041C365.63 258.239 365.804 259.454 365.734 260.669C365.699 261.363 365.647 262.161 365.474 262.856C365.231 263.828 364.676 264.505 363.929 265.147C362.958 265.963 361.327 265.407 360.702 264.453C360.008 263.376 360.077 262.266 360.008 261.051C359.99 260.617 359.973 260.166 359.921 259.732C359.904 259.489 359.852 259.263 359.834 259.02C359.904 259.732 359.834 259.02 359.799 258.864C359.695 258.413 359.557 257.961 359.4 257.527C359.331 257.354 359.262 257.198 359.209 257.024C359.175 256.972 359.157 256.92 359.123 256.868C358.949 256.573 358.758 256.295 358.567 256.017C358.654 256.156 358.377 255.792 358.29 255.705C358.116 255.531 357.925 255.375 357.734 255.219C357.7 255.184 357.665 255.167 357.648 255.15C357.613 255.15 357.578 255.115 357.509 255.08C357.318 254.993 357.144 254.872 356.954 254.785C356.902 254.768 356.607 254.646 356.485 254.577C356.364 254.542 356.173 254.473 356.138 254.455C355.635 254.316 355.132 254.23 354.628 254.143C354.576 254.143 354.542 254.143 354.507 254.125C354.472 254.125 354.437 254.125 354.385 254.125C354.125 254.125 353.865 254.125 353.622 254.125C353.049 254.125 352.477 254.178 351.921 254.247C351.661 254.282 351.401 254.316 351.158 254.351C351.036 254.368 350.967 254.386 350.932 254.386C350.915 254.386 350.845 254.403 350.707 254.438C349.353 254.75 347.982 255.097 346.594 255.184C345.449 255.254 344.199 254.438 343.887 253.31C343.592 252.234 343.904 250.741 344.997 250.186L344.945 250.168Z" fill="#EE9F87"/>
<path d="M264.427 244.875C266.857 239.546 271.664 235.433 277.286 233.836C278.379 233.523 278.917 235.19 277.824 235.502C272.601 236.977 268.228 240.744 265.989 245.69C265.521 246.714 263.959 245.899 264.427 244.875Z" fill="#EE815E"/>
<path d="M377.656 417.588L377.204 423.958H352.858L352.372 417.588H377.656Z" fill="#FFAB91"/>
<path d="M223.908 255.792H270.067C270.31 262.075 271.594 272.905 271.594 272.905C282.475 274.693 293.546 275.456 304.513 276.428C314.734 277.331 360.441 275.752 370.02 277.661C377.933 279.223 382.115 279.674 384.25 289.411C387.425 303.938 380.658 417.588 380.658 417.588H349.336L343.297 325.721C327.592 328.862 311.263 328.133 295.16 327.04C276.332 325.773 242.528 322.631 234.511 305.552C230.103 296.145 221.826 262.092 223.908 255.792Z" fill="#072F53"/>
<path d="M223.908 255.792H270.067C270.31 262.075 271.594 272.905 271.594 272.905C282.475 274.693 293.546 275.456 304.513 276.428C313.814 277.244 323.098 278.025 332.399 278.824C347.427 285.089 359.348 296.44 360.511 314.96C361.708 337.783 359.053 363.505 347.114 383.587L343.314 325.703C327.61 328.845 311.281 328.116 295.177 327.022C276.349 325.755 242.546 322.614 234.528 305.535C230.121 296.128 221.843 262.075 223.926 255.774L223.908 255.792Z" fill="#27293B"/>
<path d="M377.204 423.958L401.672 433.174C406.288 434.91 409.342 439.318 409.342 444.247C409.342 444.924 408.804 445.462 408.127 445.462H355.34C351.991 445.462 349.474 442.425 350.082 439.145L352.876 423.975H377.239L377.204 423.958Z" fill="white"/>
<path d="M354.663 409.743C361.795 410.975 369.066 411.045 376.233 410.003C377.291 409.847 377.361 411.513 376.302 411.669C368.996 412.746 361.569 412.624 354.299 411.374C353.24 411.183 353.604 409.552 354.68 409.743H354.663Z" fill="#27293B"/>
<path d="M304.756 417.588L301.32 423.958H278.466L279.49 417.588H304.756Z" fill="#FFAB91"/>
<path d="M298.977 305.136C298.977 292.535 309.198 282.312 321.796 282.312C334.395 282.312 349.978 293.993 344.025 313.588L307.793 417.588H276.47L298.995 305.136H298.977Z" fill="#072F53"/>
<path d="M192.899 255.792H240.55C240.793 262.075 239.873 270.406 237.6 272.905C255.942 275.925 307.255 279.622 325.597 282.642C334.655 294.479 316.174 311.176 308.261 323.794C290.179 329.14 256.081 328.324 237.253 327.04C218.425 325.755 199.562 322.631 191.563 305.552C187.155 296.145 186.582 285.315 188.092 275.04C189.064 268.479 190.851 262.092 192.916 255.792H192.899Z" fill="#072F53"/>
<path d="M189.949 301.595C187.033 293.177 186.773 283.892 188.092 275.04C189.064 268.479 190.851 262.092 192.916 255.792H240.567C240.81 262.075 239.89 270.406 237.617 272.905C246.346 274.346 262.553 275.925 279.108 277.522C253.495 297.395 220.455 308.243 189.966 301.595H189.949Z" fill="#27293B"/>
<path d="M301.32 423.958L325.788 433.174C330.403 434.91 333.458 439.318 333.458 444.247C333.458 444.924 332.92 445.462 332.243 445.462H276.627C273.33 445.462 271.004 442.251 272.028 439.11L278.466 423.958H301.32Z" fill="white"/>
<path d="M281.78 409.743C288.912 410.975 296.183 411.045 303.35 410.003C304.409 409.847 304.478 411.513 303.42 411.669C296.114 412.746 288.687 412.624 281.416 411.374C280.357 411.183 280.722 409.552 281.798 409.743H281.78Z" fill="#27293B"/>
<path d="M195.189 131.034C216.308 122.651 239.977 122.616 261.113 130.912C271.456 134.974 277.755 145.995 276.505 157.537C272.41 195.409 273.625 232.968 278.952 271.031C250.649 291.667 216.013 297.534 183.962 286.183C175.147 246.523 172.336 199.366 176.101 157.294C177.16 145.422 184.569 135.252 195.172 131.034H195.189Z" fill="#FCA311"/>
<path d="M217.002 292.761C238.745 292.761 260.419 285.61 279.473 271.742L279.889 271.43L279.82 270.909C274.232 231.041 273.434 193.986 277.373 157.641C277.425 157.173 277.078 156.739 276.609 156.687C276.141 156.652 275.707 156.982 275.655 157.45C271.716 193.777 272.497 230.816 278.032 270.631C249.868 290.973 215.909 296.388 184.708 285.523C176.032 246.194 173.203 199.505 176.969 157.364C177.003 156.895 176.656 156.461 176.188 156.426C175.719 156.374 175.286 156.739 175.251 157.207C171.451 199.696 174.314 246.766 183.129 286.356L183.233 286.825L183.684 286.981C194.582 290.834 205.809 292.743 217.019 292.743L217.002 292.761Z" fill="#DB6E00"/>
<path d="M178.149 161.633C178.149 149.501 186.079 139.677 195.883 139.677C205.67 139.677 213.618 149.501 213.618 161.633V199.488H179.502L178.149 161.633Z" fill="#FCA311"/>
<path d="M213.618 199.488V256.607L181.411 252.668L179.502 199.488H213.618Z" fill="#FFAB91"/>
<path d="M260.194 265.91V253.431L213.011 239.841C204.907 239.841 181.411 244.51 181.411 251.939C181.741 275.387 260.194 265.91 260.194 265.91Z" fill="#FFAB91"/>
<path d="M272.896 258.291C275.551 256.955 278.813 256.278 281.781 256.33C284.626 256.382 287.403 257.163 289.659 258.951C291.568 260.461 292.904 262.786 293.355 265.164C293.581 266.362 293.754 267.577 293.685 268.792C293.65 269.486 293.598 270.284 293.424 270.979C293.181 271.95 292.626 272.627 291.88 273.27C290.908 274.085 289.277 273.53 288.652 272.575C287.958 271.499 288.028 270.388 287.958 269.173C287.941 268.74 287.923 268.288 287.871 267.854C287.854 267.611 287.802 267.386 287.785 267.143C287.854 267.854 287.785 267.143 287.75 266.987C287.646 266.535 287.507 266.084 287.351 265.65C287.281 265.477 287.212 265.32 287.16 265.147C287.125 265.095 287.108 265.043 287.073 264.991C286.9 264.696 286.709 264.418 286.518 264.14C286.605 264.279 286.327 263.914 286.24 263.828C286.067 263.654 285.876 263.498 285.685 263.342C285.65 263.307 285.616 263.29 285.598 263.272C285.563 263.272 285.529 263.238 285.459 263.203C285.268 263.116 285.095 262.995 284.904 262.908C284.852 262.89 284.557 262.769 284.436 262.7C284.314 262.665 284.123 262.595 284.088 262.595C283.585 262.457 283.082 262.37 282.579 262.283C282.527 262.283 282.492 262.283 282.457 262.266C282.423 262.266 282.388 262.266 282.336 262.266C282.076 262.266 281.815 262.266 281.572 262.266C281 262.266 280.427 262.318 279.872 262.387C279.611 262.422 279.351 262.457 279.108 262.491C278.987 262.509 278.917 262.526 278.883 262.526C278.865 262.526 278.796 262.543 278.657 262.578C277.303 262.89 275.933 263.238 274.544 263.324C273.399 263.394 272.15 262.578 271.837 261.45C271.542 260.374 271.855 258.881 272.948 258.326L272.896 258.291Z" fill="#FFAB91"/>
<path d="M265.799 259.142C268.454 257.805 271.716 257.128 274.683 257.18C277.529 257.232 280.306 258.013 282.562 259.801C284.47 261.311 285.807 263.637 286.258 266.015C286.483 267.212 286.657 268.427 286.587 269.642C286.553 270.336 286.501 271.135 286.327 271.829C286.084 272.801 285.529 273.478 284.783 274.12C283.811 274.936 282.18 274.38 281.555 273.426C280.861 272.35 280.93 271.239 280.861 270.024C280.844 269.59 280.826 269.139 280.774 268.705C280.757 268.462 280.705 268.236 280.687 267.993C280.757 268.705 280.687 267.993 280.653 267.837C280.549 267.386 280.41 266.935 280.254 266.501C280.184 266.327 280.115 266.171 280.063 265.997C280.028 265.945 280.011 265.893 279.976 265.841C279.802 265.546 279.612 265.268 279.421 264.991C279.507 265.129 279.23 264.765 279.143 264.678C278.97 264.505 278.779 264.348 278.588 264.192C278.553 264.158 278.518 264.14 278.501 264.123C278.466 264.123 278.432 264.088 278.362 264.053C278.171 263.967 277.998 263.845 277.807 263.758C277.755 263.741 277.46 263.619 277.338 263.55C277.217 263.515 277.026 263.446 276.991 263.429C276.488 263.29 275.985 263.203 275.482 263.116C275.43 263.116 275.395 263.116 275.36 263.099C275.325 263.099 275.291 263.099 275.239 263.099C274.978 263.099 274.718 263.099 274.475 263.099C273.902 263.099 273.33 263.151 272.775 263.22C272.514 263.255 272.254 263.29 272.011 263.324C271.89 263.342 271.82 263.359 271.785 263.359C271.768 263.359 271.699 263.376 271.56 263.411C270.206 263.724 268.835 264.071 267.447 264.157C266.302 264.227 265.052 263.411 264.74 262.283C264.445 261.207 264.757 259.714 265.851 259.159L265.799 259.142Z" fill="#FFAB91"/>
<path d="M259.065 259.992C261.72 258.656 264.983 257.979 267.95 258.031C270.796 258.083 273.573 258.864 275.828 260.651C277.737 262.161 279.073 264.487 279.525 266.865C279.75 268.063 279.924 269.278 279.854 270.493C279.82 271.187 279.768 271.985 279.594 272.679C279.351 273.651 278.796 274.328 278.05 274.971C277.078 275.786 275.447 275.231 274.822 274.276C274.128 273.2 274.197 272.089 274.128 270.874C274.11 270.44 274.093 269.989 274.041 269.555C274.024 269.312 273.972 269.087 273.954 268.844C274.024 269.555 273.954 268.844 273.92 268.688C273.815 268.236 273.677 267.785 273.52 267.351C273.451 267.177 273.382 267.021 273.33 266.848C273.295 266.796 273.278 266.744 273.243 266.692C273.069 266.396 272.878 266.119 272.688 265.841C272.774 265.98 272.497 265.615 272.41 265.529C272.236 265.355 272.045 265.199 271.855 265.043C271.82 265.008 271.785 264.991 271.768 264.973C271.733 264.973 271.698 264.939 271.629 264.904C271.438 264.817 271.265 264.696 271.074 264.609C271.022 264.591 270.727 264.47 270.605 264.4C270.484 264.366 270.293 264.296 270.258 264.279C269.755 264.14 269.252 264.053 268.748 263.967C268.696 263.967 268.662 263.967 268.627 263.949C268.592 263.949 268.558 263.949 268.505 263.949C268.245 263.949 267.985 263.949 267.742 263.949C267.169 263.949 266.597 264.001 266.041 264.071C265.781 264.105 265.521 264.14 265.278 264.175C265.156 264.192 265.087 264.21 265.052 264.21C265.035 264.21 264.965 264.227 264.827 264.262C263.473 264.574 262.102 264.921 260.714 265.008C259.569 265.077 258.319 264.262 258.007 263.133C257.712 262.057 258.024 260.565 259.118 260.009L259.065 259.992Z" fill="#FFAB91"/>
<path d="M282.7 263.689C280.358 265.563 274.666 267.681 271.855 268.67C266.232 270.631 259.413 268.236 256.254 263.186L260.211 253.431L289.017 254.247L282.7 263.706V263.689Z" fill="#FFAB91"/>
<path d="M280.132 256.191C282.787 254.854 286.049 254.178 289.017 254.23C291.863 254.282 294.639 255.063 296.895 256.85C298.804 258.36 300.14 260.686 300.591 263.064C300.817 264.262 300.99 265.477 300.921 266.692C300.886 267.386 300.834 268.184 300.661 268.878C300.418 269.85 299.862 270.527 299.116 271.169C298.145 271.985 296.513 271.43 295.889 270.475C295.195 269.399 295.264 268.288 295.194 267.073C295.177 266.639 295.16 266.188 295.108 265.754C295.09 265.511 295.038 265.286 295.021 265.043C295.09 265.754 295.021 265.043 294.986 264.886C294.882 264.435 294.743 263.984 294.587 263.55C294.518 263.376 294.448 263.22 294.396 263.047C294.362 262.995 294.344 262.943 294.309 262.89C294.136 262.595 293.945 262.318 293.754 262.04C293.841 262.179 293.563 261.814 293.477 261.728C293.303 261.554 293.112 261.398 292.921 261.242C292.887 261.207 292.852 261.19 292.834 261.172C292.8 261.172 292.765 261.137 292.696 261.103C292.505 261.016 292.331 260.894 292.14 260.808C292.088 260.79 291.793 260.669 291.672 260.599C291.55 260.565 291.359 260.495 291.325 260.478C290.822 260.339 290.318 260.252 289.815 260.166C289.763 260.166 289.728 260.166 289.694 260.148C289.659 260.148 289.624 260.148 289.572 260.148C289.312 260.148 289.052 260.148 288.809 260.148C288.236 260.148 287.663 260.2 287.108 260.27C286.848 260.304 286.587 260.339 286.344 260.374C286.223 260.391 286.154 260.408 286.119 260.408C286.102 260.408 286.032 260.426 285.893 260.461C284.54 260.773 283.169 261.12 281.781 261.207C280.635 261.276 279.386 260.461 279.074 259.332C278.779 258.256 279.091 256.764 280.184 256.208L280.132 256.191Z" fill="#FFAB91"/>
<path d="M199.632 250.897C202.061 245.569 206.868 241.455 212.49 239.859C213.583 239.546 214.121 241.212 213.028 241.525C207.805 243 203.432 246.766 201.193 251.713C200.725 252.737 199.163 251.921 199.632 250.897Z" fill="#FF8A65"/>
<path d="M310.569 306.125C311.489 305.813 311.94 307.236 311.038 307.548C302.795 310.36 296.721 318.066 295.836 326.71C295.732 327.664 294.275 327.317 294.379 326.38C295.333 317.233 301.893 309.093 310.587 306.125H310.569Z" fill="#27293B"/>
<path d="M188.265 283.18C199.163 286.356 210.564 287.623 221.896 287.016C233.227 286.408 244.437 283.926 254.953 279.691C260.905 277.296 266.597 274.328 271.976 270.822C272.792 270.302 273.59 271.551 272.792 272.072C263.143 278.355 252.402 282.937 241.209 285.662C230.069 288.37 218.512 289.255 207.093 288.231C200.603 287.658 194.2 286.46 187.953 284.638C187.033 284.378 187.363 282.902 188.283 283.18H188.265Z" fill="#DB6E00"/>
<path d="M300.14 306.125C300.522 305.24 301.841 305.934 301.459 306.819C300.053 310.048 299.151 313.467 298.752 316.956C298.7 317.355 298.214 317.598 297.849 317.511C297.416 317.424 297.242 317.008 297.294 316.608C297.711 312.981 298.682 309.458 300.14 306.108V306.125Z" fill="#27293B"/>
<path d="M297.311 277.886H385.777L399.069 220.072H310.604L297.311 277.886Z" fill="#B8B8B8"/>
<path d="M299.654 277.886H388.119L401.412 220.072H312.946L299.654 277.886Z" fill="#E5E5E5"/>
<path d="M242.91 278.737H299.654V274.485H242.91V278.737Z" fill="#B8B8B8"/>
<path d="M219.952 136.536C223.18 141.673 229.01 145.093 235.118 145.214C240.498 145.336 246.589 142.507 248.203 137.005C248.48 136.085 249.938 136.414 249.66 137.334C248.289 141.968 244.125 145.093 239.561 146.203C234.58 147.418 229.201 146.29 224.915 143.565C222.416 141.968 220.282 139.851 218.703 137.334C218.182 136.519 219.449 135.703 219.952 136.519V136.536Z" fill="#DB6E00"/>
<path d="M179.485 197.821H214.659C215.614 197.821 215.683 199.314 214.729 199.314H179.554C178.6 199.314 178.531 197.821 179.485 197.821Z" fill="#DB6E00"/>
<path d="M217.453 173.679L215.961 198.03C215.961 198.984 214.469 199.054 214.469 198.099L215.961 173.748C215.961 172.793 217.453 172.724 217.453 173.679Z" fill="#DB6E00"/>
<path d="M178.079 179.719C178.808 186.019 179.554 192.302 180.283 198.602C180.387 199.557 178.895 199.626 178.791 198.672C178.062 192.371 177.316 186.088 176.587 179.788C176.483 178.833 177.975 178.764 178.079 179.719Z" fill="#DB6E00"/>
<path d="M272.913 65.0797C274.596 66.555 275.846 68.5336 276.453 70.7032C277.408 74.0877 276.714 77.9755 274.354 80.5963C272.011 83.2171 268.02 84.3453 264.74 83.0262C265.989 77.3854 267.221 71.7446 268.471 66.1211L272.896 65.0797H272.913Z" fill="#74342E"/>
<path d="M271.282 65.0797C272.965 66.555 274.215 68.5336 274.822 70.7032C275.777 74.0877 275.082 77.9755 272.722 80.5963C270.38 83.2171 266.389 84.3453 263.109 83.0262C264.358 77.3854 265.59 71.7446 266.84 66.1211L271.265 65.0797H271.282Z" fill="#4E342E"/>
<path d="M225.314 115.326L227.605 93.5615L249.903 95.9046L246.415 129.055C238.017 127.806 230.156 122.46 225.332 115.326H225.314Z" fill="#FF8A65"/>
<path d="M223.735 130.392L225.314 115.326C230.156 122.477 238.017 127.823 246.398 129.055L246.016 132.718C245.374 138.879 239.856 143.34 233.696 142.697C227.535 142.055 223.076 136.536 223.718 130.374L223.735 130.392Z" fill="#FFAB91"/>
<path d="M248.133 119.631C259.309 120.585 269.165 112.185 270.12 100.886L273.052 66.3467L232.55 62.9102L229.618 97.4494C228.663 108.748 236.958 118.676 248.133 119.631Z" fill="#FFAB91"/>
<path d="M220.056 89.0142C219.726 92.9541 222.642 96.4253 226.581 96.7551C230.52 97.0849 233.991 94.169 234.32 90.2291C234.65 86.2892 231.735 82.8179 227.796 82.4882C223.856 82.1584 220.386 85.0743 220.056 89.0142Z" fill="#FFAB91"/>
<path d="M247.595 86.5843C247.595 86.4628 247.63 86.3413 247.665 86.2198C247.786 85.8379 247.995 85.5082 248.307 85.2305C248.602 84.9528 248.949 84.7792 249.348 84.6751C249.556 84.623 249.765 84.623 249.973 84.623C250.181 84.623 250.407 84.6577 250.615 84.7271L251.17 84.9875C251.17 84.9875 251.621 85.3693 251.639 85.3693C251.777 85.5082 251.899 85.6817 251.986 85.8726C252.038 85.9594 252.09 86.133 252.09 86.1677C252.125 86.2718 252.159 86.3586 252.194 86.4628C252.194 86.4801 252.246 87.0702 252.246 87.1049C252.211 87.3132 252.177 87.5215 252.142 87.7298C252.055 87.9207 251.968 88.0943 251.882 88.2852C251.76 88.4414 251.621 88.5976 251.5 88.7538C251.344 88.8753 251.17 88.9794 251.014 89.1009C250.823 89.1704 250.632 89.2398 250.441 89.3092C250.233 89.3266 250.025 89.3439 249.817 89.3613C249.608 89.3266 249.4 89.2919 249.192 89.2571C248.88 89.1704 248.619 89.0142 248.411 88.8059C248.237 88.7017 248.099 88.5455 248.012 88.372C247.873 88.2158 247.769 88.0422 247.734 87.8339C247.63 87.643 247.595 87.4521 247.595 87.2264C247.543 87.0182 247.561 86.8099 247.613 86.6016L247.595 86.5843Z" fill="#3E2723"/>
<path d="M265.243 88.2852C265.243 88.1637 265.278 88.0422 265.313 87.9207C265.434 87.5389 265.642 87.2091 265.955 86.9314C266.25 86.6537 266.597 86.4801 266.996 86.376C267.204 86.3239 267.412 86.3239 267.621 86.3239C267.829 86.3239 268.055 86.3586 268.263 86.428L268.818 86.6884C268.818 86.6884 269.269 87.0702 269.287 87.0702C269.425 87.2091 269.547 87.3826 269.634 87.5736C269.686 87.6604 269.738 87.8339 269.738 87.8686C269.772 87.9728 269.807 88.0595 269.842 88.1637C269.842 88.181 269.894 88.7712 269.894 88.8059C269.859 89.0142 269.825 89.2224 269.79 89.4307C269.703 89.6216 269.616 89.7952 269.53 89.9861C269.408 90.1423 269.269 90.2985 269.148 90.4547C268.992 90.5762 268.818 90.6804 268.662 90.8019C268.471 90.8713 268.28 90.9407 268.089 91.0101C267.881 91.0275 267.673 91.0449 267.465 91.0622C267.256 91.0275 267.048 90.9928 266.84 90.9581C266.527 90.8713 266.267 90.7151 266.059 90.5068C265.885 90.4027 265.747 90.2465 265.66 90.0729C265.521 89.9167 265.417 89.7431 265.382 89.5348C265.278 89.3439 265.243 89.153 265.243 88.9274C265.191 88.7191 265.209 88.5108 265.261 88.3025L265.243 88.2852Z" fill="#3E2723"/>
<path d="M244.819 77.854C246.415 76.5523 248.394 75.8059 250.459 75.8059C252.593 75.8059 254.589 76.6911 256.168 78.0796C256.567 78.4268 256.48 79.1384 256.116 79.4681C255.699 79.85 255.126 79.7632 254.727 79.4161C252.315 77.2812 248.602 77.2639 246.138 79.2946C245.166 80.093 243.83 78.6524 244.819 77.854Z" fill="#3E2723"/>
<path d="M263.022 78.4268C264.619 77.125 266.597 76.3787 268.662 76.3787C270.796 76.3787 272.792 77.2639 274.371 78.6524C274.77 78.9995 274.683 79.7112 274.319 80.0409C273.902 80.4228 273.33 80.336 272.931 79.9889C270.519 77.854 266.805 77.8367 264.341 79.8674C263.369 80.6658 262.033 79.2252 263.022 78.4268Z" fill="#3E2723"/>
<path d="M261.686 88.91C261.686 84.3627 265.382 80.6831 269.911 80.6831C274.44 80.6831 278.136 84.38 278.136 88.91C278.136 93.44 274.44 97.137 269.911 97.137C265.382 97.137 261.686 93.44 261.686 88.91ZM262.432 88.91C262.432 93.0408 265.781 96.3906 269.911 96.3906C274.041 96.3906 277.39 93.0408 277.39 88.91C277.39 84.7792 274.041 81.4294 269.911 81.4294C265.781 81.4294 262.432 84.7792 262.432 88.91Z" fill="black"/>
<path d="M241.556 86.9835C241.556 82.4361 245.253 78.7565 249.782 78.7565C254.311 78.7565 258.007 82.4534 258.007 86.9835C258.007 91.5135 254.311 95.2104 249.782 95.2104C245.253 95.2104 241.556 91.5135 241.556 86.9835ZM242.303 86.9835C242.303 91.1143 245.652 94.4641 249.782 94.4641C253.912 94.4641 257.261 91.1143 257.261 86.9835C257.261 82.8526 253.912 79.5029 249.782 79.5029C245.652 79.5029 242.303 82.8526 242.303 86.9835Z" fill="black"/>
<path d="M263.352 84.6924L263.681 84.0155C261.616 83.0088 259.17 82.7485 256.931 83.2865L257.105 84.0155C259.17 83.5122 261.443 83.7552 263.352 84.6924Z" fill="black"/>
<path d="M242.789 84.0155L242.979 83.2866C237.756 81.8807 232.377 81.2906 226.98 81.5162L227.015 82.2625C232.342 82.0369 237.652 82.627 242.806 84.0155H242.789Z" fill="black"/>
<path d="M221.948 86.5322C222.971 84.8834 224.846 83.9461 226.789 84.1717C228.629 84.38 230.208 85.7685 230.798 87.5042C231.11 88.4241 229.687 88.8753 229.375 87.9728C228.958 86.7405 227.848 85.8206 226.564 85.6644C225.297 85.4908 223.943 86.1677 223.284 87.2612C222.781 88.0769 221.444 87.3827 221.965 86.5669L221.948 86.5322Z" fill="#FF8A65"/>
<path d="M231.127 83.113C233.748 81.2038 236.403 79.2599 238.624 76.8994C240.845 74.5389 242.684 71.6925 243.344 68.4989C249.157 69.5577 255.109 71.2586 260.957 72.0743C266.805 72.8901 273.208 72.3173 277.876 68.7072C282.614 65.045 284.817 58.3975 283.186 52.6352C281.555 46.8729 276.21 42.3602 270.258 41.7007C264.306 41.0585 258.111 44.3388 255.3 49.6152C249.279 46.5952 241.383 46.0224 235.379 49.0598C232.932 50.2921 230.485 52.479 230.659 55.2213C226.164 55.5511 222.434 58.2066 220.16 62.0944C217.87 65.9649 217.609 70.9809 219.501 75.077C221.392 79.1731 226.702 82.332 231.127 83.113Z" fill="#74342E"/>
<path d="M231.127 83.113C233.539 81.3427 237.548 79.5723 239.596 77.3854C241.661 75.1985 243.327 72.5777 243.951 69.6444C249.313 70.6164 254.797 72.1958 260.194 72.9422C265.59 73.6885 271.473 73.1678 275.777 69.8354C280.15 66.4682 282.162 60.3414 280.67 55.0304C279.178 49.7193 274.25 45.5538 268.766 44.9637C263.282 44.3735 257.573 47.3936 254.988 52.2533C249.452 49.4763 242.164 48.9383 236.628 51.7327C234.372 52.8782 232.134 54.8742 232.273 57.4082C228.143 57.7206 224.707 60.1679 222.59 63.7433C220.49 67.3187 220.247 71.9355 221.982 75.7018C223.718 79.4682 227.049 82.384 231.145 83.113H231.127Z" fill="#4E342E"/>
<path d="M259.291 105.989C259.343 105.537 259.725 105.347 260.124 105.347C261.321 105.347 262.519 104.6 263.091 103.559C263.699 102.465 263.56 101.059 262.866 100.035C262.05 98.8205 260.541 98.6122 259.482 97.6924C258.476 96.8245 257.99 95.436 258.719 94.2384C259.222 93.4053 260.402 94.3079 259.916 95.1236C259.621 95.6096 260.124 96.2865 260.489 96.5815C261.096 97.0675 261.859 97.3279 262.519 97.7271C263.803 98.4734 264.653 99.7578 264.896 101.216C265.399 104.253 262.901 106.822 259.933 106.839C259.534 106.839 259.239 106.371 259.291 106.006V105.989Z" fill="#3E2723"/>
<path d="M246.294 106.77C248.307 110.519 252.697 112.22 256.706 110.779C257.608 110.449 258.077 111.873 257.174 112.202C252.576 113.851 247.352 111.89 245.044 107.586C244.593 106.735 245.843 105.919 246.294 106.77Z" fill="#3E2723"/>
<path d="M245.756 113.313C245.843 112.949 246.259 112.619 246.658 112.758C248.532 113.383 250.389 114.007 252.263 114.615C252.645 114.736 252.923 115.083 252.819 115.517C252.732 115.882 252.315 116.212 251.916 116.073C250.042 115.448 248.185 114.823 246.311 114.216C245.929 114.094 245.652 113.747 245.756 113.313Z" fill="#FF8A65"/>
<path d="M375.92 278.65C379.426 278.824 382.219 281.271 383.66 284.36C385.499 288.352 385.204 293.021 385.256 297.291C385.36 306.924 385.378 316.574 385.273 326.207C385.083 345.403 384.51 364.616 383.538 383.795C382.983 394.643 382.306 405.491 381.508 416.321C381.421 417.414 379.686 417.519 379.773 416.39C381.143 397.888 382.15 379.352 382.792 360.798C383.434 342.244 383.694 323.69 383.59 305.136C383.59 302.55 383.556 299.964 383.521 297.36C383.486 294.844 383.538 292.31 383.278 289.793C382.861 285.766 380.744 280.611 376.007 280.368C374.896 280.316 374.81 278.581 375.938 278.633L375.92 278.65Z" fill="#27293B"/>
<path d="M290.11 346.028L293.945 326.224C294.153 325.13 295.854 325.512 295.628 326.606L282.076 396.674L278.241 416.477C278.032 417.571 276.332 417.189 276.54 416.095C281.052 392.734 285.581 369.389 290.093 346.028H290.11Z" fill="#27293B"/>
<path d="M297.311 278.737H388.119C388.519 278.737 388.866 278.459 388.97 278.06L393.534 258.222C393.638 257.753 393.343 257.284 392.891 257.18C392.423 257.076 391.954 257.371 391.85 257.822L387.443 276.984H298.405L311.298 220.905H400.336L395.529 241.82C395.425 242.288 395.72 242.757 396.171 242.861C396.64 242.965 397.108 242.67 397.212 242.219L402.262 220.246C402.314 219.985 402.262 219.725 402.089 219.517C401.915 219.309 401.672 219.187 401.412 219.187H310.604C310.205 219.187 309.84 219.465 309.753 219.864L296.461 277.678C296.409 277.938 296.461 278.199 296.635 278.407C296.808 278.615 297.051 278.737 297.311 278.737Z" fill="#B8B8B8"/>
</svg>
