<svg width="71" height="70" viewBox="0 0 71 70" fill="none" xmlns="http://www.w3.org/2000/svg">
<path d="M59.7298 7.83199C60.5214 7.0099 61.308 6.1821 62.1075 5.36716C62.7418 4.72093 63.3868 4.0847 64.0376 3.45563C65.2225 2.30971 66.6355 1.95657 68.1873 2.45983C69.7469 2.96523 70.6808 4.10043 70.9254 5.72459C71.1342 7.11213 70.6694 8.29951 69.6718 9.28601C66.3924 12.5279 63.1186 15.7748 59.8371 19.0138C59.6626 19.1861 59.5818 19.3534 59.5825 19.6021C59.5889 25.4511 59.5889 31.3008 59.5811 37.1498C59.5811 37.4071 59.6647 37.5101 59.9028 37.6037C65.8174 39.9313 69.5209 44.179 70.6594 50.444C71.9566 57.5876 68.5176 64.5489 62.1661 68.0059C60.0473 69.159 57.7776 69.821 55.3627 69.9654C50.5329 70.2542 46.3503 68.7351 42.7784 65.4861C42.6496 65.3688 42.4194 65.3138 42.2356 65.3138C33.7867 65.3052 25.3371 65.3066 16.8882 65.3066C14.8859 65.3066 12.8843 65.3023 10.8821 65.3116C10.5603 65.3131 10.3121 65.2151 10.0869 64.9892C7.19285 62.0869 4.29527 59.1874 1.39769 56.2894C1.10378 55.9963 0.973633 55.6603 0.973633 55.235C0.980784 37.1634 0.979354 19.091 0.979354 1.01939C0.979354 0.209454 1.18745 0 1.99122 0C20.8555 0 39.7199 0 58.5849 0C59.3722 0 59.5868 0.213028 59.5868 0.992224C59.5868 3.11249 59.5868 5.23348 59.5868 7.35375C59.5868 7.48171 59.5868 7.60967 59.5868 7.73692C59.6347 7.76837 59.6826 7.79982 59.7305 7.83128L59.7298 7.83199ZM2.4024 1.41542V54.8297C2.55472 54.8297 2.68344 54.8297 2.81215 54.8297C5.35076 54.8297 7.88865 54.8297 10.4272 54.8304C11.1638 54.8304 11.3833 55.0534 11.3898 55.7911C11.4105 58.3761 11.432 60.961 11.4548 63.5459C11.4556 63.6596 11.4656 63.7733 11.4706 63.8726H41.178C36.7615 57.5947 36.1873 51.1288 40.0939 44.4042C44.4917 37.9769 50.5872 35.6957 58.1544 36.9918V20.7573C58.1208 20.7345 58.0865 20.7123 58.0529 20.6894C57.9013 20.8724 57.764 21.0697 57.5959 21.2363C50.2075 28.5579 42.8177 35.878 35.42 43.191C35.2169 43.3912 34.9473 43.5563 34.6777 43.6514C32.4695 44.4328 30.2527 45.1898 28.0416 45.9633C27.7148 46.0776 27.4159 46.1205 27.1484 45.856C26.8803 45.5901 26.9246 45.2856 27.0319 44.961C27.777 42.7035 28.5085 40.4417 29.2658 38.1885C29.3602 37.909 29.539 37.6294 29.7492 37.4207C35.4986 31.7118 41.2573 26.0123 47.0132 20.3106C47.0997 20.2248 47.1798 20.1326 47.3178 19.9839C47.0961 19.9839 46.9667 19.9839 46.8373 19.9839C45.3713 19.9839 43.9053 19.9839 42.4401 19.9839C42.3328 19.9839 42.2249 19.9903 42.1183 19.9782C41.745 19.9353 41.4669 19.6443 41.459 19.2955C41.4511 18.9359 41.74 18.6299 42.1319 18.5906C42.2385 18.5799 42.3464 18.5863 42.4537 18.5863C44.4438 18.5863 46.4339 18.592 48.4241 18.5763C48.6114 18.5749 48.8374 18.4791 48.9776 18.3519C49.4617 17.9115 49.9172 17.4383 50.3806 16.9757C50.4499 16.9064 50.5079 16.8249 50.6151 16.6955C50.4263 16.6955 50.3098 16.6955 50.1932 16.6955C47.7147 16.6955 45.2354 16.6955 42.7569 16.6955C42.5545 16.6955 42.3507 16.7055 42.1491 16.6905C41.7522 16.6605 41.4626 16.3638 41.459 16.0028C41.4554 15.6411 41.7429 15.3409 42.1369 15.303C42.2671 15.2908 42.3986 15.298 42.5302 15.298C45.5808 15.298 48.6322 15.2951 51.6828 15.303C51.9502 15.303 52.1469 15.2372 52.3421 15.0421C54.2056 13.182 56.0778 11.3298 57.9549 9.48331C58.1323 9.30889 58.1945 9.13232 58.1938 8.88855C58.1859 6.52952 58.1887 4.1712 58.1887 1.81217C58.1887 1.68564 58.1887 1.55839 58.1887 1.41471H2.4024V1.41542ZM61.0563 15.8641C59.7834 14.5946 58.5406 13.3543 57.2799 12.0968C48.5606 20.7338 39.8114 29.4014 31.1065 38.024C32.3758 39.2936 33.6172 40.5353 34.8765 41.7942C43.5871 33.1666 52.3307 24.5068 61.0563 15.8641ZM54.2135 37.9997C45.7231 38.0183 38.8811 44.8838 38.9125 53.3528C38.944 61.8246 45.7954 68.645 54.2578 68.6271C62.7168 68.6093 69.5646 61.7452 69.5538 53.2941C69.5431 44.8545 62.6488 37.9812 54.2135 37.9997ZM66.8672 10.1138C67.568 9.41254 68.3003 8.74415 68.9553 8.00713C69.8971 6.94771 69.7827 5.34142 68.7565 4.36135C67.7496 3.40058 66.1592 3.37985 65.1266 4.33919C64.4988 4.92252 63.9024 5.54015 63.2924 6.1435C63.2188 6.21641 63.153 6.29719 63.1129 6.34151C64.3658 7.60038 65.5979 8.83851 66.8672 10.1138ZM3.51438 56.2501C5.67184 58.4068 7.87863 60.6136 9.99676 62.731V56.2501H3.51438ZM58.4362 11.0253C59.674 12.2627 60.9147 13.5037 62.1289 14.7168C62.5695 14.2693 63.0421 13.7903 63.4605 13.3657C62.2434 12.1505 61.0012 10.9109 59.7598 9.67061C59.3322 10.1081 58.8681 10.5835 58.4362 11.0253ZM30.3149 39.4245C29.7929 41.0193 29.2758 42.5991 28.7324 44.259C30.3857 43.6857 31.9482 43.1439 33.4999 42.6049C32.433 41.5397 31.3925 40.501 30.3142 39.4237L30.3149 39.4245ZM60.9154 8.61119C62.1154 9.81644 63.3561 11.0624 64.5832 12.2949C64.9579 11.9003 65.3555 11.4821 65.7245 11.0932C64.5224 9.89221 63.286 8.65765 62.0567 7.42953C61.682 7.81698 61.288 8.22588 60.9154 8.61119Z" fill="white"/>
<path d="M46.5134 6.00476C49.0742 6.00476 51.635 6.00476 54.1957 6.00476C54.9266 6.00476 55.1525 6.2328 55.1525 6.96982C55.1525 7.98206 55.1525 8.9943 55.1525 10.0058C55.1518 10.7457 54.9266 10.9759 54.2007 10.9766C49.067 10.9766 43.9333 10.9766 38.8003 10.9766C38.1167 10.9766 37.8807 10.7378 37.88 10.0473C37.8786 8.9993 37.8779 7.95204 37.88 6.90405C37.8814 6.24924 38.1303 6.00548 38.7961 6.00548C41.369 6.00405 43.9412 6.00548 46.5141 6.00548L46.5134 6.00476ZM39.2966 9.55546H53.7345V7.42661H39.2966V9.55546Z" fill="white"/>
<path d="M26.6649 55.9291C26.4082 55.6453 26.2452 55.458 26.0743 55.2786C24.4288 53.5486 24.7992 51.3483 26.09 49.9707C26.893 49.1136 28.0737 48.8456 29.1013 49.2802C30.2254 49.7556 30.7739 50.6549 30.839 51.8465C30.9062 53.0854 30.3906 54.1355 29.6991 55.1177C29.644 55.1956 29.584 55.2693 29.526 55.3451C29.476 55.4108 29.4266 55.4766 29.3194 55.6188C29.7348 55.6946 30.0953 55.7718 30.46 55.824C31.5612 55.982 32.6424 55.8283 33.718 55.5953C34.167 55.498 34.5296 55.6896 34.6247 56.0613C34.7312 56.4788 34.491 56.8341 34.0119 56.9435C32.0947 57.3817 30.1925 57.4003 28.3132 56.7347C28.1924 56.6918 28.0093 56.7197 27.8928 56.7833C26.1222 57.7484 24.3809 57.7034 22.689 56.6139C22.0597 56.2086 21.4912 55.7089 20.8655 55.2979C20.4221 55.0069 19.9523 54.7203 19.4524 54.558C18.5292 54.2578 17.6933 54.543 16.9582 55.1435C16.3646 55.6274 15.9599 56.2558 15.6195 56.9306C15.4679 57.2316 15.2226 57.3645 14.8894 57.3252C14.5812 57.2887 14.3902 57.1036 14.3245 56.8098C14.2973 56.6897 14.2958 56.5389 14.3452 56.4309C15.0052 54.9855 15.947 53.8017 17.5081 53.272C18.8174 52.8273 20.0503 53.0918 21.183 53.8374C21.7786 54.2299 22.3421 54.6717 22.9164 55.097C23.6043 55.606 24.3294 56.0499 25.2111 56.0713C25.6738 56.0828 26.14 55.9848 26.6649 55.9305V55.9291ZM29.4674 52.1382C29.4552 51.9552 29.4545 51.8237 29.4367 51.6943C29.2951 50.6842 28.2238 50.1344 27.4101 50.6849C26.6635 51.1896 26.3217 51.9559 26.3746 52.8352C26.4318 53.7759 27.0325 54.4114 27.7883 54.9054C27.852 54.9469 28.0107 54.9412 28.0594 54.8918C28.8274 54.1091 29.3737 53.2112 29.4674 52.1389V52.1382Z" fill="white"/>
<path d="M16.7488 7.40304C13.473 7.40304 10.1978 7.40304 6.92195 7.40304C6.86259 7.40304 6.80252 7.40304 6.74317 7.40304C6.18611 7.40018 5.84644 7.13425 5.84644 6.70319C5.84644 6.27356 6.18825 6.00549 6.7446 6.00549C13.4265 6.00549 20.1091 6.00549 26.791 6.00549C27.4732 6.00549 27.8572 6.458 27.6198 6.97985C27.4646 7.32012 27.1714 7.40519 26.8253 7.40447C25.0983 7.4009 23.3714 7.40304 21.6437 7.40376C20.0118 7.40376 18.38 7.40376 16.7481 7.40376L16.7488 7.40304Z" fill="white"/>
<path d="M24.6292 29.1348C21.3654 29.1348 18.1017 29.1348 14.838 29.1348C14.7307 29.1348 14.6228 29.1405 14.5169 29.1291C14.1429 29.0876 13.8648 28.7981 13.8562 28.4492C13.8469 28.0897 14.1344 27.7837 14.5255 27.7423C14.6199 27.7322 14.7157 27.738 14.8108 27.738C21.3383 27.738 27.8657 27.738 34.3931 27.738C34.5125 27.738 34.6327 27.7308 34.75 27.7444C35.1261 27.7859 35.4028 28.0747 35.4114 28.4235C35.42 28.7824 35.1325 29.0905 34.7414 29.1305C34.5998 29.1448 34.4561 29.1369 34.313 29.1369C31.0851 29.1369 27.8571 29.1369 24.6292 29.1369V29.1348Z" fill="white"/>
<path d="M8.91976 15.155C9.63415 15.155 10.3485 15.1536 11.0629 15.155C11.7036 15.1564 11.9597 15.4059 11.9604 16.035C11.9625 17.4869 11.9625 18.9388 11.9604 20.3906C11.9597 21.0047 11.7015 21.2685 11.098 21.2699C9.63343 21.2728 8.16963 21.2728 6.7051 21.2699C6.10084 21.2692 5.84412 21.0054 5.84341 20.3906C5.84126 18.9388 5.84126 17.4869 5.84341 16.035C5.84484 15.4066 6.10084 15.1572 6.74157 15.155C7.4674 15.1529 8.19394 15.155 8.91976 15.155ZM7.25787 19.8502H10.533V16.5769H7.25787V19.8502Z" fill="white"/>
<path d="M39.5634 18.216C39.5634 18.9538 39.567 19.6915 39.5627 20.4299C39.5591 20.9954 39.2931 21.2685 38.7339 21.2699C37.2457 21.2742 35.7576 21.2742 34.2695 21.2699C33.7267 21.2685 33.45 20.9961 33.4478 20.4592C33.4428 18.9595 33.4428 17.4604 33.4478 15.9606C33.4493 15.4417 33.726 15.1593 34.2395 15.1579C35.7512 15.1521 37.2636 15.1521 38.7753 15.1579C39.2866 15.16 39.5577 15.4438 39.5619 15.9664C39.5684 16.7162 39.5634 17.4661 39.5634 18.216ZM38.1461 16.5783H34.8759V19.8473H38.1461V16.5783Z" fill="white"/>
<path d="M11.9605 45.6816C11.9605 46.3958 11.9619 47.1099 11.9605 47.8241C11.9583 48.4632 11.708 48.7205 11.0802 48.7212C9.62781 48.7234 8.17544 48.7234 6.72308 48.7212C6.10737 48.7205 5.84565 48.4646 5.84422 47.8591C5.84064 46.3951 5.84136 44.9318 5.84422 43.4677C5.84493 42.878 6.10809 42.6077 6.68804 42.607C8.164 42.6042 9.64068 42.6035 11.1166 42.607C11.7002 42.6085 11.9576 42.8751 11.9605 43.4677C11.964 44.2055 11.9612 44.9432 11.9612 45.6809L11.9605 45.6816ZM10.5396 47.3065V44.0325H7.26369V47.3065H10.5396Z" fill="white"/>
<path d="M11.9604 27.3662C11.9604 28.1039 11.9639 28.8416 11.9596 29.5801C11.9561 30.147 11.6915 30.4186 11.1316 30.42C9.64343 30.4243 8.15531 30.4243 6.66718 30.42C6.12442 30.4186 5.84696 30.1462 5.84482 29.6101C5.83981 28.1103 5.83981 26.6113 5.84482 25.1115C5.84625 24.5911 6.12156 24.3101 6.63572 24.308C8.14744 24.3023 9.65988 24.3023 11.1716 24.308C11.6836 24.3101 11.9539 24.5932 11.9582 25.1165C11.9646 25.8664 11.9596 26.6163 11.9596 27.3662H11.9604ZM7.26572 25.722V28.9932H10.5373V25.722H7.26572Z" fill="white"/>
<path d="M8.88328 39.5724C8.16889 39.5724 7.45451 39.5738 6.74012 39.5724C6.09939 39.5709 5.84339 39.3215 5.84267 38.6917C5.84053 37.2398 5.84053 35.7879 5.84267 34.336C5.84339 33.7205 6.10011 33.4582 6.70437 33.4575C8.16889 33.4546 9.6327 33.4546 11.0972 33.4575C11.7015 33.4582 11.9582 33.7212 11.9596 34.3367C11.9618 35.7886 11.9618 37.2405 11.9596 38.6924C11.9582 39.32 11.7008 39.5702 11.0615 39.5724C10.3356 39.5745 9.6091 39.5724 8.88328 39.5724ZM10.5373 38.1555V34.885H7.26572V38.1555H10.5373Z" fill="white"/>
<path d="M14.6198 9.57907C17.2163 9.57907 19.8121 9.57907 22.4087 9.57907C22.5159 9.57907 22.6239 9.57335 22.7297 9.58479C23.1202 9.62696 23.4084 9.93578 23.3977 10.2932C23.3876 10.6413 23.1102 10.9301 22.7348 10.9709C22.6053 10.9852 22.473 10.9773 22.3422 10.9773C17.1734 10.9773 12.0047 10.9773 6.83595 10.9773C6.19164 10.9773 5.83409 10.7193 5.84625 10.2625C5.8584 9.8164 6.20165 9.57835 6.83022 9.57835C9.42675 9.57835 12.0226 9.57835 14.6191 9.57835L14.6198 9.57907Z" fill="white"/>
<path d="M22.6347 16.6962C20.0382 16.6962 17.4424 16.6962 14.8458 16.6962C14.7386 16.6962 14.6306 16.7019 14.5248 16.6905C14.1329 16.6483 13.8476 16.3423 13.8561 15.9821C13.8647 15.6346 14.1436 15.3458 14.5183 15.3037C14.6242 15.2922 14.7321 15.2979 14.8394 15.2979C20.0439 15.2979 25.2484 15.2979 30.4529 15.2979C30.548 15.2979 30.6445 15.2929 30.7382 15.3029C31.1265 15.3444 31.4147 15.6525 31.4061 16.0121C31.3975 16.3609 31.1201 16.6483 30.7439 16.6898C30.6381 16.7012 30.5301 16.6955 30.4229 16.6955C27.8263 16.6955 25.2305 16.6955 22.634 16.6955L22.6347 16.6962Z" fill="white"/>
<path d="M22.6355 24.4482C25.232 24.4482 27.8278 24.4482 30.4243 24.4482C30.5316 24.4482 30.6396 24.4425 30.7454 24.4539C31.1201 24.4968 31.399 24.7863 31.4069 25.133C31.4147 25.4926 31.1287 25.7986 30.7375 25.84C30.6196 25.8522 30.4994 25.8458 30.3807 25.8458C25.1998 25.8458 20.0196 25.8458 14.8387 25.8458C14.2116 25.8458 13.8662 25.6048 13.8562 25.1602C13.8455 24.7034 14.2016 24.4475 14.8473 24.4475C17.4438 24.4475 20.0397 24.4475 22.6362 24.4475L22.6355 24.4482Z" fill="white"/>
<path d="M22.0555 34.9966C19.6499 34.9966 17.2443 34.9966 14.8387 34.9966C14.7315 34.9966 14.6235 35.0023 14.5176 34.9909C14.1429 34.9487 13.8655 34.6599 13.8562 34.3117C13.8469 33.9522 14.1336 33.6462 14.5248 33.604C14.6192 33.594 14.715 33.599 14.8101 33.599C19.6456 33.599 24.4804 33.599 29.3159 33.599C29.411 33.599 29.5076 33.594 29.6012 33.604C29.9752 33.6455 30.2527 33.9343 30.262 34.2839C30.2713 34.6427 29.9838 34.9501 29.5934 34.9909C29.4875 35.0023 29.3796 34.9959 29.2723 34.9959C26.8667 34.9959 24.4611 34.9959 22.0555 34.9959V34.9966Z" fill="white"/>
<path d="M20.2699 36.8874C22.1392 36.8874 24.0085 36.8839 25.8777 36.8896C26.5185 36.8917 26.8832 37.445 26.5807 37.939C26.4134 38.2121 26.1502 38.2879 25.8456 38.2871C24.8094 38.2828 23.7739 38.2857 22.7377 38.2857C20.1183 38.2857 17.4989 38.2857 14.8795 38.2857C14.7844 38.2857 14.6886 38.2893 14.5935 38.2836C14.1566 38.2593 13.8448 37.9569 13.8555 37.5701C13.8662 37.1955 14.1694 36.901 14.5899 36.8917C15.137 36.8789 15.6854 36.8874 16.2332 36.8874C17.5783 36.8874 18.9241 36.8874 20.2692 36.8874H20.2699Z" fill="white"/>
<path d="M20.2991 18.5871C22.109 18.5871 23.919 18.5871 25.7289 18.5871C25.8361 18.5871 25.9441 18.5807 26.0499 18.5942C26.4189 18.6436 26.6928 18.9495 26.6871 19.2955C26.6821 19.6286 26.4197 19.9203 26.0657 19.9739C25.9606 19.9896 25.8519 19.9839 25.7446 19.9839C22.1012 19.9839 18.4577 19.9846 14.8143 19.9846C14.8021 19.9846 14.7907 19.9846 14.7785 19.9846C14.1965 19.9825 13.8475 19.7144 13.8554 19.2755C13.8632 18.8459 14.2015 18.5871 14.7621 18.5864C15.8934 18.5849 17.0247 18.5864 18.1552 18.5864C18.8696 18.5864 19.584 18.5864 20.2984 18.5864L20.2991 18.5871Z" fill="white"/>
<path d="M19.7737 42.7486C21.4763 42.7486 23.179 42.7464 24.8809 42.75C25.3514 42.7507 25.6754 43.0338 25.6861 43.432C25.6975 43.8402 25.3622 44.1361 24.8759 44.1461C24.8044 44.1476 24.7329 44.1461 24.6614 44.1461C22.0184 44.1461 19.3753 44.1461 16.7323 44.1461C16.018 44.1461 15.3036 44.1547 14.5892 44.1418C14.1673 44.134 13.8655 43.838 13.8555 43.4627C13.8448 43.0774 14.1587 42.7729 14.5942 42.75C14.7129 42.7436 14.8323 42.7479 14.951 42.7479C16.5586 42.7479 18.1654 42.7479 19.7729 42.7479L19.7737 42.7486Z" fill="white"/>
<path d="M17.483 46.0376C18.4348 46.0376 19.3866 46.0291 20.3384 46.0405C20.9376 46.0476 21.3124 46.5974 21.0056 47.0506C20.8797 47.2365 20.5901 47.4145 20.372 47.418C18.4448 47.4466 16.5169 47.4395 14.5897 47.4309C14.1564 47.4287 13.8424 47.1021 13.8546 46.7175C13.8667 46.3436 14.1707 46.0462 14.5911 46.0412C15.5551 46.0305 16.5183 46.0376 17.4823 46.0376H17.483Z" fill="white"/>
<path d="M41.0171 53.307C41.0228 45.9926 46.9331 40.095 54.25 40.1014C61.5311 40.1079 67.4672 46.0498 67.4514 53.3156C67.4357 60.6308 61.4947 66.5376 54.1663 66.5255C46.9088 66.5133 41.0106 60.5843 41.0164 53.307H41.0171ZM54.2328 41.494C47.7061 41.4826 42.4516 46.7182 42.3979 53.2877C42.3443 59.7858 47.6675 65.1194 54.2192 65.1315C60.7188 65.1437 66.0356 59.8787 66.0541 53.4114C66.0735 46.8054 60.8168 41.5061 54.2335 41.494H54.2328Z" fill="white"/>
<path d="M53.4685 48.4503C53.4685 46.8661 53.4699 45.2827 53.4685 43.6986C53.4685 43.3898 53.5564 43.0988 53.8539 42.9966C54.0541 42.9273 54.328 42.9366 54.5225 43.0195C54.83 43.1503 54.8701 43.467 54.8693 43.7808C54.8658 45.924 54.8679 48.0678 54.8679 50.211C54.8679 50.9966 54.8836 51.7837 54.8593 52.5686C54.8508 52.8509 54.9602 52.9911 55.184 53.129C57.5367 54.5738 59.8843 56.0271 62.2327 57.4797C62.6325 57.727 62.7862 58.0001 62.7126 58.3096C62.5946 58.8043 62.0847 59.0073 61.617 58.7249C60.7711 58.2145 59.9344 57.6898 59.0942 57.1701C57.3936 56.1193 55.6967 55.0613 53.9898 54.0212C53.6244 53.7988 53.4592 53.5236 53.4635 53.0926C53.4778 51.5449 53.4692 49.9965 53.4692 48.4481L53.4685 48.4503Z" fill="white"/>
<path d="M45.1853 54.2928C45.043 54.2928 44.8993 54.3064 44.7584 54.29C44.3859 54.2478 44.1106 53.954 44.1041 53.608C44.0977 53.2663 44.3708 52.9446 44.7391 52.9117C45.033 52.8853 45.3341 52.8846 45.628 52.9146C45.9977 52.9518 46.2272 53.2313 46.2308 53.5887C46.2344 53.9619 45.9963 54.2378 45.6123 54.2878C45.4721 54.3057 45.3277 54.2907 45.1853 54.2907C45.1853 54.2914 45.1853 54.2921 45.1853 54.2935V54.2928Z" fill="white"/>
<path d="M63.3152 52.9124C63.469 52.9124 63.627 52.8916 63.7765 52.9166C64.1283 52.9746 64.3815 53.2827 64.3729 53.6115C64.365 53.931 64.1226 54.2377 63.7851 54.2756C63.469 54.3113 63.1429 54.3121 62.8268 54.277C62.4593 54.2363 62.2412 53.9453 62.2462 53.585C62.2512 53.2312 62.4865 52.9603 62.8526 52.9109C63.0042 52.8909 63.1608 52.9074 63.3145 52.9074C63.3145 52.9088 63.3145 52.9102 63.3145 52.9116L63.3152 52.9124Z" fill="white"/>
<path d="M50.5966 61.1797C50.475 61.5922 50.2798 62.0397 49.8908 62.3514C49.6484 62.5458 49.3445 62.5101 49.0985 62.3071C48.8696 62.1183 48.7524 61.8596 48.8818 61.5772C49.0291 61.2555 49.2015 60.9381 49.4117 60.655C49.5883 60.417 49.8715 60.3691 50.1554 60.4785C50.44 60.5878 50.578 60.8087 50.5959 61.1797H50.5966Z" fill="white"/>
<path d="M54.9323 62.6623C54.9323 62.8046 54.9473 62.949 54.9294 63.0891C54.8829 63.4587 54.5797 63.7318 54.2351 63.7296C53.8918 63.7275 53.5843 63.4516 53.55 63.0813C53.5264 62.8225 53.5314 62.5594 53.5443 62.2985C53.5664 61.871 53.8446 61.6022 54.2429 61.6036C54.6391 61.6051 54.9087 61.876 54.9351 62.3064C54.9423 62.4243 54.9366 62.5437 54.9366 62.6623C54.9351 62.6623 54.9337 62.6623 54.9316 62.6623H54.9323Z" fill="white"/>
<path d="M58.8582 44.7388C59.426 44.7466 59.7621 45.1856 59.5912 45.6216C59.4675 45.9376 59.2851 46.2371 59.0899 46.5166C58.9075 46.7775 58.5314 46.8369 58.2532 46.686C57.9572 46.5252 57.7977 46.2428 57.9128 45.9426C58.0537 45.5737 58.279 45.2306 58.5092 44.906C58.5893 44.7931 58.7931 44.7681 58.8575 44.7388H58.8582Z" fill="white"/>
<path d="M46.6292 49.95C46.2423 49.8263 45.7911 49.639 45.4822 49.2487C45.2898 49.0057 45.3263 48.704 45.528 48.4581C45.7167 48.2286 45.977 48.1171 46.2574 48.2443C46.5784 48.3902 46.8945 48.5632 47.1784 48.7712C47.4237 48.9499 47.4501 49.2423 47.3486 49.5168C47.2449 49.797 47.0247 49.9457 46.6292 49.9493V49.95Z" fill="white"/>
<path d="M58.5348 60.4227C59.1348 60.437 59.2549 60.9146 59.4852 61.2727C59.6625 61.5486 59.7426 61.8339 59.5488 62.1377C59.2935 62.5373 58.7157 62.5737 58.4311 62.1849C58.2431 61.9289 58.0829 61.6451 57.957 61.3535C57.7704 60.921 58.1122 60.4327 58.5355 60.4227H58.5348Z" fill="white"/>
<path d="M47.4121 57.9628C47.4 58.5197 46.2708 59.1952 45.7695 58.9465C45.3269 58.7263 45.2289 58.1265 45.6172 57.822C45.8839 57.6125 46.1921 57.4403 46.5054 57.3087C46.9387 57.1271 47.4221 57.4953 47.4121 57.9628Z" fill="white"/>
<path d="M49.8943 46.7875C49.305 46.7789 48.6385 45.6394 48.9217 45.1254C49.1556 44.7015 49.762 44.6408 50.0559 45.0354C50.2454 45.2892 50.4063 45.5737 50.5285 45.866C50.7102 46.2992 50.3526 46.7946 49.8935 46.7875H49.8943Z" fill="white"/>
<path d="M61.0571 49.3045C61.0779 48.7297 61.5169 48.6025 61.8623 48.3852C62.1376 48.2122 62.4158 48.1057 62.7297 48.2915C63.1524 48.5417 63.1931 49.1336 62.787 49.4324C62.5488 49.6076 62.2864 49.7577 62.0161 49.8771C61.5656 50.0765 61.0571 49.7312 61.0571 49.3052V49.3045Z" fill="white"/>
</svg>
