<svg width="165" height="148" viewBox="0 0 165 148" fill="none" xmlns="http://www.w3.org/2000/svg">
<g clip-path="url(#clip0_1_1692)">
<path d="M130.239 51.6567C130.239 51.6567 136.564 42.8753 146.138 53.348C156.674 64.878 147.184 70.2167 147.184 70.2167L130.239 51.6567Z" fill="#FFA7DA"/>
<path d="M147.184 70.2166L138.454 77.7186L73.2831 133.839L72.551 134.464L43.3002 143.589L57.7021 115.619L58.1176 115.259L121.608 59.2705L130.239 51.6567L147.184 70.2166Z" fill="#FF4D63"/>
<path d="M64.2898 115.307C64.2725 115.243 64.2905 115.155 64.3481 115.112L126.139 62.5961C126.215 62.5203 126.345 62.5408 126.408 62.6208C126.471 62.7008 126.464 62.8274 126.384 62.8904L64.5965 115.419C64.5165 115.482 64.3899 115.474 64.3269 115.394C64.32 115.368 64.3002 115.346 64.2932 115.32L64.2898 115.307Z" fill="#1C1A49"/>
<path d="M73.4813 125.385C73.464 125.32 73.482 125.232 73.5396 125.189L134.517 72.1164C134.597 72.0535 134.723 72.0611 134.786 72.1411C134.849 72.2211 134.842 72.3477 134.762 72.4107L73.788 125.496C73.7115 125.572 73.5814 125.552 73.5184 125.472C73.4986 125.449 73.4788 125.427 73.4719 125.401L73.4813 125.385Z" fill="#1C1A49"/>
<path d="M73.283 133.839L72.5509 134.464L54.6947 140.038L43.3002 143.589L48.7801 132.944L57.702 115.619L58.1175 115.259L64.4706 115.259L64.0094 126.4L73.794 125.467L73.283 133.839Z" fill="white"/>
<path d="M54.6948 140.037L43.3003 143.589L48.7802 132.944C51.385 133.367 53.7768 135.01 54.5663 137.027C54.8306 137.703 54.9891 138.45 54.879 139.227C54.8543 139.496 54.778 139.78 54.6913 140.025L54.6948 140.037Z" fill="#1C1A49"/>
<path d="M147.184 70.2166L144.246 72.734L143.92 73.0151L142.085 74.5864L141.772 74.8641L138.454 77.7186L121.608 59.2705L124.886 56.3712L125.212 56.0901L127.014 54.4999L127.34 54.2188L130.239 51.6567L147.184 70.2166Z" fill="#7897DD"/>
<path d="M144.246 72.7338L143.92 73.015L127.014 54.4997L127.341 54.2186L144.246 72.7338Z" fill="white"/>
<path d="M142.085 74.5864L141.772 74.8641L124.886 56.3712L125.212 56.0901L142.085 74.5864Z" fill="white"/>
<path d="M24.0451 125.759L28.3927 95.8049L28.4047 95.7463L87.4052 13.0855L87.4972 12.964C103.732 5.11198 110.763 24.3771 110.763 24.3771L110.253 25.1088L51.3604 109.928L24.0451 125.759Z" fill="#7897DD"/>
<path d="M24.0452 125.759L25.8996 112.999L28.3928 95.8047L30.5733 102.238L41.1625 100.743L44.1549 109.948L51.3605 109.927L35.7872 118.958L24.0452 125.759Z" fill="white"/>
<path d="M24.045 125.759L25.8994 112.999C26.1948 113.017 26.4902 113.034 26.7762 113.068C29.8839 113.509 33.732 115.938 35.7741 118.962L24.0321 125.762L24.045 125.759Z" fill="#1C1A49"/>
<path d="M44.1549 109.948L104.397 25.1553" stroke="#492A51" stroke-linecap="round" stroke-linejoin="round"/>
<path d="M41.1624 100.743L96.7126 22.1489" stroke="#492A51" stroke-linecap="round" stroke-linejoin="round"/>
<path d="M30.7029 101.843L90.5527 17.2388" stroke="#492A51" stroke-linecap="round" stroke-linejoin="round"/>
<path d="M87.4052 13.0855L87.4972 12.964C103.732 5.11198 110.763 24.3771 110.763 24.3771L110.253 25.1088C106.112 25.8725 101.765 24.8365 98.0663 22.8103C94.2823 20.7238 91.1405 17.6764 88.3798 14.3468C88.0521 13.9502 87.7175 13.5278 87.4086 13.0984L87.4052 13.0855Z" fill="#FFB18A"/>
<path d="M94.2406 14.576L94.2948 14.5199C102.159 13.5477 105.864 20.1951 105.864 20.1951L105.601 20.5563C103.545 20.9411 101.386 20.4261 99.5496 19.4095C97.6675 18.3775 96.1112 16.8568 94.7279 15.2067C94.5623 15.0019 94.3967 14.7971 94.244 14.5889L94.2406 14.576Z" fill="#1C1A49"/>
</g>
<defs>
<clipPath id="clip0_1_1692">
<rect width="115.11" height="139.174" fill="white" transform="translate(134.432) rotate(75)"/>
</clipPath>
</defs>
</svg>
