<svg width="134" height="141" viewBox="0 0 134 141" fill="none" xmlns="http://www.w3.org/2000/svg">
<path d="M0.26972 115.981L1.8518 113.64L3.48107 115.817L0.59526 116.564C-0.0159953 116.68 -0.138257 116.589 0.26972 115.981Z" fill="#5A4848"/>
<path fill-rule="evenodd" clip-rule="evenodd" d="M53.2779 7.16327L121.537 110.024C121.695 110.262 121.804 110.529 121.859 110.809C121.914 111.089 121.913 111.377 121.856 111.657C121.8 111.937 121.689 112.203 121.529 112.44C121.37 112.677 121.165 112.88 120.927 113.038L90.6984 133.09C90.2181 133.409 89.631 133.523 89.0661 133.409C88.5013 133.295 88.0049 132.961 87.6862 132.481L19.4258 29.6272C19.2679 29.3893 19.1583 29.1227 19.1035 28.8425C19.0486 28.5622 19.0495 28.274 19.1061 27.9941C19.1627 27.7142 19.2739 27.4483 19.4333 27.2114C19.5927 26.9745 19.7973 26.7714 20.0352 26.6136L50.2642 6.56125C50.7437 6.24153 51.3306 6.12535 51.8957 6.23824C52.4608 6.35114 52.958 6.68387 53.2779 7.16327Z" fill="url(#paint0_linear_1_701)"/>
<path fill-rule="evenodd" clip-rule="evenodd" d="M53.2779 7.16327L121.537 110.024C121.695 110.262 121.804 110.529 121.859 110.809C121.914 111.089 121.913 111.377 121.856 111.657C121.8 111.937 121.689 112.203 121.529 112.44C121.37 112.677 121.165 112.88 120.927 113.038L90.6984 133.09C90.2181 133.409 89.631 133.523 89.0661 133.409C88.5013 133.295 88.0049 132.961 87.6862 132.481L19.4258 29.6272C19.2679 29.3893 19.1583 29.1227 19.1035 28.8425C19.0486 28.5622 19.0495 28.274 19.1061 27.9941C19.1627 27.7142 19.2739 27.4483 19.4333 27.2114C19.5927 26.9745 19.7973 26.7714 20.0352 26.6136L50.2642 6.56125C50.7437 6.24153 51.3306 6.12535 51.8957 6.23824C52.4608 6.35114 52.958 6.68387 53.2779 7.16327Z" fill="url(#paint1_linear_1_701)"/>
<path d="M44.7304 18.5064L45.4567 19.6008L54.8131 13.392L54.0854 12.2972L44.7304 18.5064ZM50.8906 17.6426L51.133 18.008L55.8098 14.9033L55.5668 14.5333L50.8906 17.6426ZM52.1368 19.5207L52.3779 19.8858L57.0561 16.7814L56.8145 16.4043L52.1368 19.5207ZM53.376 21.3974L53.6188 21.7613L58.297 18.6569L58.0542 18.2929L53.376 21.3974ZM54.6238 23.2684L54.8662 23.6338L59.5323 20.5091L59.2912 20.144L54.6238 23.2684ZM57.1062 27.0092L57.3486 27.3746L62.0268 24.2702L61.7841 23.9062L57.1062 27.0092ZM58.3525 28.8873L58.5935 29.2524L63.2717 26.148L63.0307 25.7829L58.3525 28.8873ZM59.5917 30.764L59.8344 31.128L64.5123 28.025L64.2699 27.6596L59.5917 30.764ZM60.8394 32.635L61.0819 33.0004L65.7586 29.8957L65.5176 29.5306L60.8394 32.635ZM54.0173 26.3846L54.2597 26.75L60.7797 22.3816L60.5372 22.0162L54.0173 26.3846ZM57.1605 37.2453L57.8868 38.3398L67.2429 32.1323L66.4994 30.999L57.1605 37.2453ZM63.3215 36.3773L63.5643 36.7412L68.2425 33.6368L67.9997 33.2729L63.3215 36.3773ZM64.5678 38.2554L64.8088 38.6205L69.487 35.5161L69.246 35.151L64.5678 38.2554ZM65.8141 40.1335L66.0568 40.4975L70.7348 37.3945L70.4663 36.975L65.8141 40.1335ZM67.0618 42.0045L67.3043 42.3699L71.9811 39.2652L71.7069 38.852L67.0618 42.0045ZM69.5168 45.6984L69.7595 46.0624L74.4332 42.9511L74.1904 42.5872L69.5168 45.6984ZM70.7645 47.5694L71.0055 47.9345L75.6837 44.8301L75.4427 44.465L70.7645 47.5694ZM72.0108 49.4475L72.2535 49.8115L76.913 46.7048L76.6705 46.3394L72.0108 49.4475ZM73.2585 51.3185L73.501 51.6839L78.1778 48.5792L77.9364 48.2156L73.2585 51.3185ZM66.4364 45.0681L66.6789 45.4335L73.213 41.0975L72.9461 40.7287L66.4364 45.0681ZM69.5796 55.9289L70.3059 57.0233L79.6393 50.8039L78.9133 49.708L69.5796 55.9289ZM75.7406 55.0608L75.9834 55.4248L80.6616 52.3204L80.4188 51.9564L75.7406 55.0608ZM76.9869 56.9389L77.228 57.304L81.9062 54.1996L81.6651 53.8345L76.9869 56.9389ZM78.2261 58.8156L78.4689 59.1796L83.1468 56.0766L82.9043 55.7112L78.2261 58.8156ZM79.4724 60.6937L79.7149 61.0591L84.3917 57.9544L84.1186 57.5577L79.4724 60.6937ZM81.9545 64.436L82.1973 64.7999L86.8755 61.6955L86.6327 61.3316L81.9545 64.436ZM83.2008 66.3141L83.4433 66.6795L88.0841 63.5335L87.843 63.1684L83.2008 66.3141ZM84.4471 68.1922L84.6885 68.5559L89.3315 65.4059L89.089 65.0405L84.4471 68.1922ZM85.6863 70.0689L85.9288 70.4343L90.607 67.3298L90.3642 66.9659L85.6863 70.0689ZM78.8656 63.8114L79.1081 64.1767L85.6422 59.8407L85.3663 59.4287L78.8656 63.8114ZM81.9683 74.6314L82.696 75.7261L92.0493 69.5107L91.3233 68.4149L81.9683 74.6314ZM88.1293 73.7633L88.3721 74.1273L93.0503 71.0229L92.8075 70.6589L88.1293 73.7633ZM89.3756 75.6414L89.6181 76.0068L94.2948 72.9021L94.0535 72.5384L89.3756 75.6414ZM90.6219 77.5196L90.8629 77.8846L95.5411 74.7802L95.2987 74.4148L90.6219 77.5196ZM91.8611 79.3962L92.1036 79.7616L96.7818 76.6572L96.539 76.2932L91.8611 79.3962ZM94.3432 83.1385L94.586 83.5024L99.2639 80.3995L99.0164 80.0005L94.3432 83.1385ZM95.5895 85.0166L95.832 85.382L100.509 82.2773L100.257 81.8775L95.5895 85.0166ZM96.8358 86.8947L97.0768 87.2598L101.755 84.1554L101.513 83.79L96.8358 86.8947ZM98.0835 88.7657L98.326 89.1311L103.004 86.0267L102.761 85.6627L98.0835 88.7657ZM91.2614 82.5153L91.5039 82.8807L98.038 78.5447L97.7969 78.1796L91.2614 82.5153ZM94.4046 93.376L95.1323 94.4708L104.487 88.263L103.761 87.1672L94.4046 93.376ZM116.174 105.875L106.818 112.082L107.545 113.177L116.9 106.969L116.174 105.875ZM100.545 92.4625L100.787 92.8262L105.463 89.7303L105.221 89.3649L100.545 92.4625ZM101.793 94.3335L102.034 94.6986L106.711 91.5939L106.47 91.2302L101.793 94.3335ZM103.039 96.2116L103.28 96.5767L107.959 93.4723L107.716 93.1069L103.039 96.2116ZM104.286 98.0897L104.528 98.4537L109.207 95.3492L108.964 94.9853L104.286 98.0897ZM106.75 101.817L106.993 102.181L111.671 99.0776L111.423 98.7096L106.75 101.817ZM107.996 103.695L108.239 104.06L112.916 100.955L112.67 100.582L107.996 103.695ZM109.243 105.573L109.484 105.938L114.162 102.833L113.918 102.453L109.243 105.573ZM110.489 107.451L110.732 107.815L115.41 104.71L115.167 104.347L110.489 107.451ZM103.67 101.194L103.903 101.537L110.438 97.2006L110.197 96.8355L103.67 101.194Z" fill="#71612E"/>
<path fill-rule="evenodd" clip-rule="evenodd" d="M118.204 21.7242L133.346 44.5418C133.665 45.0221 133.78 45.6092 133.665 46.174C133.551 46.7389 133.217 47.2353 132.737 47.554L113.299 60.4532C112.819 60.7718 112.231 60.8866 111.667 60.7723C111.102 60.6581 110.605 60.3242 110.287 59.8441L95.1455 37.0254C94.8269 36.5451 94.7121 35.958 94.8264 35.3931C94.9406 34.8283 95.2745 34.3319 95.7546 34.0131L115.191 21.1151C115.672 20.7965 116.259 20.6817 116.824 20.796C117.388 20.9102 117.885 21.2441 118.204 21.7242Z" fill="#C1272D"/>
<path fill-rule="evenodd" clip-rule="evenodd" d="M118.204 21.7242L133.346 44.5418C133.665 45.0221 133.78 45.6092 133.665 46.174C133.551 46.7389 133.217 47.2353 132.737 47.554L113.299 60.4532C112.819 60.7718 112.231 60.8866 111.667 60.7723C111.102 60.6581 110.605 60.3242 110.287 59.8441L95.1455 37.0254C94.8269 36.5451 94.7121 35.958 94.8264 35.3931C94.9406 34.8283 95.2745 34.3319 95.7546 34.0131L115.191 21.1151C115.672 20.7965 116.259 20.6817 116.824 20.796C117.388 20.9102 117.885 21.2441 118.204 21.7242Z" fill="#072F53"/>
<path style="mix-blend-mode:overlay" fill-rule="evenodd" clip-rule="evenodd" d="M118.204 21.7242L133.346 44.5418C133.665 45.0221 133.78 45.6092 133.665 46.174C133.551 46.7389 133.217 47.2353 132.737 47.554L113.299 60.4532C112.819 60.7718 112.231 60.8866 111.667 60.7723C111.102 60.6581 110.605 60.3242 110.287 59.8441L95.1455 37.0254C94.8269 36.5451 94.7121 35.958 94.8264 35.3931C94.9406 34.8283 95.2745 34.3319 95.7546 34.0131L115.191 21.1151C115.672 20.7965 116.259 20.6817 116.824 20.796C117.388 20.9102 117.885 21.2441 118.204 21.7242Z" fill="url(#paint2_linear_1_701)"/>
<path fill-rule="evenodd" clip-rule="evenodd" d="M20.2775 83.1484L1.74782 113.784L3.3714 115.836L38.6857 110.748C38.6857 110.748 35.7669 94.1641 20.2775 83.1484Z" fill="white"/>
<path fill-rule="evenodd" clip-rule="evenodd" d="M20.2594 82.7195L1.74787 113.785L3.37145 115.837L38.8424 110.814C38.8424 110.814 35.7485 93.7441 20.2594 82.7195Z" fill="#F1AE66"/>
<path fill-rule="evenodd" clip-rule="evenodd" d="M84.8526 39.8569L89.4186 46.7376L24.8288 89.5989C24.8288 89.5989 21.0259 90.0124 19.5028 87.7635C18.1091 85.7077 20.2614 82.7179 20.2614 82.7179L84.8526 39.8569Z" fill="#F1AE66"/>
<path fill-rule="evenodd" clip-rule="evenodd" d="M84.8526 39.8569L89.4186 46.7376L24.8288 89.5989C24.8288 89.5989 21.0259 90.0124 19.5028 87.7635C18.1091 85.7077 20.2614 82.7179 20.2614 82.7179L84.8526 39.8569Z" fill="#D32214"/>
<path fill-rule="evenodd" clip-rule="evenodd" d="M84.8526 39.8569L89.4186 46.7376L24.8288 89.5989C24.8288 89.5989 21.0259 90.0124 19.5028 87.7635C18.1091 85.7077 20.2614 82.7179 20.2614 82.7179L84.8526 39.8569Z" fill="#072F53"/>
<path fill-rule="evenodd" clip-rule="evenodd" d="M99.192 61.469L103.478 67.928L38.8882 110.789C38.8882 110.789 34.907 110.981 33.9077 109.475C32.7747 107.767 34.6021 104.33 34.6021 104.33L99.192 61.469Z" fill="#072F53"/>
<path style="mix-blend-mode:overlay" fill-rule="evenodd" clip-rule="evenodd" d="M99.1141 61.4881L103.4 67.9471L38.8101 110.81C38.8101 110.81 34.8292 111 33.8299 109.494C32.6969 107.786 34.5239 104.351 34.5239 104.351L99.1141 61.4881Z" fill="url(#paint3_linear_1_701)"/>
<path fill-rule="evenodd" clip-rule="evenodd" d="M89.4174 46.7385L99.1917 61.468L34.5991 104.329C34.5991 104.329 27.7853 103.257 25.3026 99.5174C22.8998 95.8947 24.8248 89.5993 24.8248 89.5993L89.4174 46.7385Z" fill="#F1AE66"/>
<path fill-rule="evenodd" clip-rule="evenodd" d="M89.4174 46.7385L99.1917 61.468L34.5991 104.329C34.5991 104.329 27.7853 103.257 25.3026 99.5174C22.8998 95.8947 24.8248 89.5993 24.8248 89.5993L89.4174 46.7385Z" fill="#072F53"/>
<path style="mix-blend-mode:overlay" fill-rule="evenodd" clip-rule="evenodd" d="M89.1332 46.681L98.9076 61.4105L34.315 104.271C34.315 104.271 27.5011 103.199 25.0184 99.4599C22.6156 95.8372 24.5406 89.5418 24.5406 89.5418L89.1332 46.681Z" fill="url(#paint4_linear_1_701)"/>
<path style="mix-blend-mode:screen" opacity="0.6" d="M88.0133 47.6431L23.9598 89.6211C24.2492 89.6325 24.539 89.6255 24.8274 89.5999C24.7973 89.7491 24.6989 90.0529 24.6604 90.2432L89.564 46.9633L89.4173 46.7385L88.0133 47.6431Z" fill="url(#paint5_linear_1_701)"/>
<path style="mix-blend-mode:overlay" opacity="0.8" d="M98.0131 62.3142L34.5219 105.138C34.623 104.866 34.7412 104.601 34.8759 104.344C34.7339 104.316 34.4097 104.289 34.2194 104.25L99.2395 61.1475L99.3899 61.3686L98.0131 62.3142Z" fill="url(#paint6_linear_1_701)"/>
<g style="mix-blend-mode:multiply">
<path opacity="0.09" d="M91.1728 36.9487L85.2111 40.7191L84.4046 41.2292C84.3329 41.2747 84.2616 41.3188 84.1914 41.3646C83.8933 41.5517 83.9981 41.4851 83.7919 41.6161C83.7801 41.6263 83.7713 41.6394 83.7664 41.6539C83.7615 41.6684 83.7606 41.6839 83.7638 41.6988C83.7712 41.8274 83.8872 42.0707 84.0796 42.4023C85.1051 43.7546 87.1659 46.0797 88.6404 47.9993C92.0311 52.4055 95.124 56.8832 98.0406 61.593C99.2868 63.6061 100.675 66.2575 101.576 67.7059C101.879 68.102 102.101 68.3367 102.215 68.3398C102.224 68.3405 102.233 68.3387 102.24 68.3345L102.638 68.0828L102.803 67.9784L103.019 67.8421L103.808 67.3417L109.638 63.6516L111.499 62.4737L112.826 61.6328C111.366 58.8058 110.617 57.4008 108.958 54.6787C106.08 49.962 102.93 45.403 99.5206 41.023C97.5588 38.503 96.5037 37.2967 94.3627 34.9157L93.0358 35.7553L91.1728 36.9487Z" fill="url(#paint7_linear_1_701)"/>
<path opacity="0.18" d="M91.3993 36.8011L85.3447 40.6316L84.5329 41.1523L84.3102 41.283L83.9037 41.5389C83.89 41.5497 83.8789 41.5631 83.8709 41.5782C83.863 41.5934 83.8586 41.61 83.8578 41.6269C83.837 41.7674 83.9121 41.9971 84.049 42.3195C85.1831 43.7865 87.1795 45.9736 88.7015 47.9542C92.0907 52.3601 95.1847 56.8395 98.1002 61.5477C99.3891 63.6295 100.676 66.1749 101.644 67.7632C101.953 68.0954 102.18 68.2835 102.31 68.2752C102.32 68.2751 102.329 68.2724 102.338 68.2674L102.739 68.0121L102.914 67.9011L103.134 67.7626C103.401 67.5931 103.668 67.4238 103.937 67.2547L109.873 63.4982L111.734 62.3204L113.061 61.4794C111.601 58.6525 110.85 57.2472 109.191 54.5251C106.315 49.8077 103.165 45.2487 99.7543 40.8695C97.7828 38.3737 96.7292 37.1604 94.5876 34.7823L93.2621 35.6293L91.3993 36.8011Z" fill="url(#paint8_linear_1_701)"/>
<path opacity="0.27" d="M91.625 36.6528L85.4807 40.5428L84.648 41.0696L84.4279 41.2094L84.0083 41.4701C83.9767 41.4928 83.9543 41.5253 83.9449 41.5619C83.8995 41.6977 83.9315 41.9307 84.0104 42.242C85.2571 43.8188 87.1863 45.8745 88.7552 47.919C92.1444 52.325 95.2387 56.803 98.1539 61.5125C99.4859 63.6619 100.674 66.1031 101.702 67.8273C102.02 68.0962 102.249 68.2398 102.399 68.2166C102.409 68.2163 102.418 68.2136 102.425 68.2085L102.834 67.9501L103.008 67.8391L103.232 67.6984L104.051 67.1805L110.088 63.3582L111.952 62.1823L113.279 61.3427C111.819 58.5158 111.069 57.1094 109.41 54.3887C106.534 49.6715 103.383 45.1124 99.9731 40.7329C98.0127 38.2132 96.9562 37.0066 94.8151 34.6257L93.4883 35.4652L91.625 36.6528Z" fill="url(#paint9_linear_1_701)"/>
<path opacity="0.36" d="M91.8569 36.5133L85.6203 40.4607L84.7768 40.9955L84.5514 41.1387L84.1263 41.3896C84.0899 41.4146 84.0613 41.4486 84.0435 41.4879C83.9701 41.6342 83.9656 41.8544 83.9861 42.156C85.344 43.8422 87.2059 45.7666 88.8156 47.8681C92.2048 52.274 95.2974 56.7532 98.2144 61.4616C99.5938 63.6866 100.692 66.0253 101.774 67.8883C102.097 68.0947 102.33 68.1928 102.5 68.1559L102.526 68.1465L102.94 67.8834L103.115 67.7724L103.342 67.6281L104.173 67.1024L110.317 63.2124L112.178 62.0345L113.505 61.195C112.045 58.3666 111.295 56.9616 109.636 54.2409C106.759 49.5239 103.609 44.9649 100.199 40.5851C98.2374 38.065 97.1823 36.8587 95.0412 34.4778L93.7144 35.3173L91.8569 36.5133Z" fill="url(#paint10_linear_1_701)"/>
<path opacity="0.45" d="M92.0788 36.3576L85.747 40.362L84.8898 40.9043L84.6638 41.0575C84.416 41.2137 84.4192 41.2129 84.2364 41.3267C84.1959 41.3543 84.1617 41.3896 84.1358 41.4302C84.0248 41.6338 83.9626 41.8583 83.9538 42.0874C85.4215 43.8828 87.2179 45.6747 88.8808 47.8384C92.27 52.2443 95.3641 56.7237 98.2793 61.4333C99.6957 63.7188 100.689 65.9522 101.839 67.9524C102.169 68.0953 102.401 68.1511 102.594 68.0971C102.603 68.0952 102.612 68.092 102.62 68.0876L103.041 67.8215L103.215 67.7104L103.447 67.5642L104.293 67.0282L110.545 63.065L112.406 61.8871L113.733 61.0476C112.273 58.2192 111.522 56.8139 109.862 54.0932C106.987 49.3757 103.836 44.8167 100.425 40.4375C98.465 37.9177 97.4103 36.7101 95.2689 34.3305L93.9421 35.17L92.0788 36.3576Z" fill="url(#paint11_linear_1_701)"/>
<path opacity="0.55" d="M92.3057 36.21L85.8863 40.2784L85.0128 40.8335L84.7805 40.9811L84.3481 41.245C84.3028 41.2744 84.2629 41.3107 84.2301 41.3525C84.0859 41.547 83.9815 41.7657 83.9223 41.9971C85.5027 43.9022 87.2317 45.5627 88.9418 47.7888C92.331 52.1947 95.425 56.6741 98.3404 61.3822C99.8036 63.7387 100.693 65.8654 101.905 68.0034C102.242 68.0837 102.49 68.098 102.689 68.0264C102.698 68.0229 102.707 68.0188 102.716 68.0142L103.142 67.7447L103.317 67.6337L103.552 67.4852L104.411 66.9404L110.763 62.9198L112.628 61.7383L113.953 60.8985C112.494 58.0702 111.744 56.6652 110.085 53.9445C107.208 49.2276 104.057 44.6687 100.648 40.289C98.6875 37.7693 97.631 36.5627 95.49 34.1818L94.1628 35.0227L92.3057 36.21Z" fill="url(#paint12_linear_1_701)"/>
<path opacity="0.64" d="M92.5338 36.0627L86.0233 40.183L85.1498 40.7381L84.9125 40.8877L84.4708 41.1671C84.42 41.2008 84.3739 41.2405 84.3338 41.2854C84.1555 41.4763 84.0079 41.6915 83.8958 41.9239C85.5831 43.9376 87.2492 45.4676 89.0027 47.7526C92.3918 52.1584 95.4844 56.6375 98.401 61.3473C99.9044 63.7708 100.702 65.7889 101.973 68.0682C102.249 68.0963 102.527 68.062 102.786 67.9682C102.796 67.965 102.805 67.9609 102.813 67.956C102.988 67.845 103.029 67.8197 103.246 67.6834L103.421 67.5724L103.66 67.4217L104.533 66.8667L110.993 62.78L112.854 61.6021L114.181 60.7612C112.721 57.9342 111.971 56.5292 110.312 53.8072C107.435 49.0903 104.285 44.5314 100.875 40.1517C98.9134 37.6317 97.8584 36.4254 95.7174 34.0445L94.3905 34.884L92.5338 36.0627Z" fill="url(#paint13_linear_1_701)"/>
<path opacity="0.73" d="M92.7618 35.9172L86.1601 40.0966L85.2662 40.6622L85.0237 40.8151L84.5765 41.0993C84.5219 41.1336 84.4702 41.172 84.4221 41.2142C84.2152 41.4033 84.029 41.6122 83.8665 41.8374C85.6679 43.9611 87.2642 45.3578 89.0677 47.7058C92.4568 52.1117 95.5508 56.591 98.4663 61.2991C100.01 63.791 100.702 65.708 102.042 68.1234C102.334 68.0937 102.618 68.0189 102.884 67.9018L102.911 67.8882L103.348 67.6106L103.541 67.5002C103.618 67.4499 103.699 67.4005 103.784 67.3459L104.672 66.7836L111.226 62.6253L113.087 61.446L114.414 60.6065C112.954 57.7796 112.203 56.3743 110.544 53.6522C107.668 48.9348 104.517 44.3758 101.107 39.9967C99.1464 37.477 98.0914 36.2707 95.9504 33.8898L94.6235 34.7293L92.7618 35.9172Z" fill="url(#paint14_linear_1_701)"/>
<path opacity="0.82" d="M92.9894 35.7719L86.2969 40.009L85.3893 40.5821L85.1433 40.7373L84.6891 41.0259C84.6277 41.0627 84.5686 41.103 84.5123 41.1466C84.2724 41.3364 84.0453 41.5404 83.8324 41.7576C85.7449 43.9907 87.274 45.256 89.1249 47.6652C92.5141 52.071 95.6081 56.5504 98.5232 61.2599C100.108 63.8189 100.71 65.6334 102.104 68.1846C102.406 68.0979 102.698 67.9825 102.976 67.8403L103.002 67.8264L103.445 67.5444C103.507 67.507 103.57 67.4671 103.634 67.4245L103.889 67.2783L104.79 66.7068L111.455 62.4933L113.319 61.3015L114.644 60.4617C113.184 57.6348 112.435 56.2284 110.776 53.5078C107.899 48.7906 104.749 44.2316 101.339 39.8522C99.3784 37.3325 98.3219 36.126 96.1809 33.745L94.854 34.5846L92.9894 35.7719Z" fill="url(#paint15_linear_1_701)"/>
<path opacity="0.91" d="M93.2175 35.6221L86.4344 39.9156L85.517 40.4926L85.266 40.6497L84.8033 40.9425C84.7384 40.985 84.6767 41.0266 84.6146 41.0696C84.3648 41.2428 84.1236 41.4249 83.8087 41.6694C85.8339 44.0123 87.3 45.1471 89.1932 47.6134C92.5838 52.0196 95.6764 56.4987 98.5933 61.2071C100.222 63.8308 100.725 65.5453 102.179 68.234C102.544 68.0611 102.814 67.9221 103.079 67.7678C103.079 67.7678 103.098 67.757 103.105 67.7512L103.555 67.4675C103.617 67.4273 103.681 67.3876 103.748 67.3454L103.999 67.1869L104.914 66.6066L111.685 62.3209L113.546 61.143L114.873 60.3035C113.413 57.4752 112.663 56.0701 111.004 53.3495C108.127 48.6326 104.977 44.0736 101.567 39.6939C99.6054 37.1739 98.5506 35.9662 96.4093 33.5867L95.0825 34.4262L93.2175 35.6221Z" fill="url(#paint16_linear_1_701)"/>
<path d="M101.791 39.5647C99.8073 37.0622 98.7755 35.8387 96.633 33.4575L95.3074 34.2987L93.4462 35.4765L86.5709 39.8274L85.6403 40.4164L85.3853 40.5785L84.7095 41.0067L83.7789 41.5956C85.9139 44.0476 87.2889 45.0638 89.2545 47.5802C92.6073 52.0152 95.6999 56.487 98.6528 61.1749C100.301 63.8833 100.731 65.474 102.244 68.3026L103.175 67.7136L103.851 67.2854L104.106 67.1247C104.416 66.9285 104.726 66.7306 105.036 66.5358L111.918 62.1846L113.779 61.0067L115.106 60.1672C113.646 57.3389 112.87 55.9478 111.235 53.213C108.28 48.4813 105.19 44.0144 101.791 39.5647Z" fill="url(#paint17_linear_1_701)"/>
</g>
<path d="M106.241 35.5029C104.183 32.8959 103.108 31.6319 100.851 29.1902L86.556 38.643L86.2251 38.8613C85.4653 39.3655 84.9875 39.6813 84.1361 40.2439C86.3798 42.7672 87.4441 44.0541 89.4711 46.677C92.8858 51.2751 96.0481 56.0553 98.944 60.9966C100.56 63.8823 101.314 65.3578 102.758 68.3994L104.847 67.0169L105.178 66.7985L119.472 57.344C118.101 54.298 117.356 52.8052 115.759 49.8923C112.883 44.9064 109.704 40.101 106.241 35.5029Z" fill="url(#paint18_linear_1_701)"/>
<path style="mix-blend-mode:screen" opacity="0.4" d="M94.2553 43.4961C92.2232 40.8766 91.1546 39.5962 88.9069 37.0928L86.487 38.6937C88.7307 41.217 89.7964 42.4968 91.8266 45.1188C95.2439 49.7168 98.4065 54.4987 101.3 59.4431C102.914 62.3313 103.669 63.8085 105.108 66.849L107.528 65.2481C106.106 62.2065 105.348 60.7273 103.737 57.8294C100.845 52.8793 97.6797 48.0941 94.2553 43.4961Z" fill="url(#paint19_linear_1_701)"/>
<path style="mix-blend-mode:multiply" opacity="0.4" d="M101.307 59.4334C102.919 62.3227 103.676 63.7989 105.113 66.839L104.771 67.0656C103.337 64.026 102.581 62.5485 100.965 59.66C98.0698 54.7167 94.9073 49.9349 91.4916 45.3358C89.4597 42.7149 88.3935 41.4305 86.1506 38.9104L86.492 38.6838C88.7344 41.2068 89.8015 42.4869 91.8333 45.1078C95.2515 49.7056 98.414 54.488 101.307 59.4334Z" fill="url(#paint20_linear_1_701)"/>
<path style="mix-blend-mode:screen" opacity="0.4" d="M99.267 40.1803C97.2349 37.5608 96.1678 36.2807 93.92 33.7773L91.4987 35.3779C93.7424 37.9012 94.8081 39.181 96.8383 41.803C100.256 46.4007 103.419 51.1826 106.312 56.1273C107.926 59.0141 108.681 60.4927 110.12 63.5332L112.539 61.9323C111.117 58.8907 110.36 57.4115 108.749 54.5136C105.859 49.5624 102.693 44.7771 99.267 40.1803Z" fill="url(#paint21_linear_1_701)"/>
<path style="mix-blend-mode:multiply" opacity="0.4" d="M106.318 56.1202C107.932 59.0084 108.688 60.4856 110.125 63.5258L109.783 63.7524C108.349 60.7128 107.592 59.2353 105.977 56.3453C103.081 51.4026 99.9184 46.6208 96.5036 42.0212C94.4718 39.4003 93.4052 38.1173 91.1623 35.5971L91.5038 35.3705C93.7447 37.8933 94.8118 39.1734 96.8434 41.7957C100.262 46.3928 103.426 51.1749 106.318 56.1202Z" fill="url(#paint22_linear_1_701)"/>
<path style="mix-blend-mode:multiply" opacity="0.4" d="M111.56 52.6541C113.173 55.542 113.929 57.0196 115.366 60.0597L115.025 60.2863C113.589 57.2465 112.834 55.7692 111.218 52.8807C108.322 47.9371 105.16 43.1548 101.744 38.5548C99.7135 35.9268 98.6455 34.651 96.404 32.1311L96.7455 31.9045C98.9878 34.4275 100.055 35.709 102.086 38.3299C105.504 42.9275 108.667 47.7095 111.56 52.6541Z" fill="url(#paint23_linear_1_701)"/>
<path style="mix-blend-mode:screen" opacity="0.4" d="M104.511 36.6562C102.462 34.0481 101.384 32.7821 99.1247 30.3296C98.1583 30.9708 97.6737 31.2912 96.7062 31.9307C98.962 34.3944 100.036 35.664 102.076 38.2733C105.528 42.8717 108.704 47.6712 111.587 52.6464C113.19 55.5531 113.936 57.0403 115.325 60.09L117.746 58.4893C116.368 55.4433 115.621 53.9516 114.022 51.0427C111.145 46.0597 107.969 41.2554 104.511 36.6562Z" fill="url(#paint24_linear_1_701)"/>
<path fill-rule="evenodd" clip-rule="evenodd" d="M47.9984 25.5341C48.4265 26.1788 48.6539 26.9359 48.6516 27.7098C48.6494 28.4836 48.4176 29.2394 47.9858 29.8816C47.5539 30.5238 46.9413 31.0234 46.2254 31.3173C45.5096 31.6113 44.7226 31.6863 43.9641 31.5329C43.2056 31.3795 42.5096 31.0046 41.9642 30.4556C41.4188 29.9067 41.0485 29.2082 40.9 28.4487C40.7516 27.6892 40.8318 26.9028 41.1304 26.1889C41.429 25.4749 41.9326 24.8656 42.5776 24.4379C43.4419 23.8648 44.4984 23.6584 45.5149 23.8639C46.5314 24.0695 47.4247 24.6702 47.9984 25.5341Z" fill="#FBFBFB"/>
<defs>
<linearGradient id="paint0_linear_1_701" x1="125.97" y1="32.8775" x2="30.2525" y2="96.6116" gradientUnits="userSpaceOnUse">
<stop stop-color="#F0C55D"/>
<stop offset="0.66" stop-color="#EEC35C"/>
<stop offset="0.73" stop-color="#EAC05B"/>
<stop offset="0.74" stop-color="#A3883E"/>
<stop offset="0.75" stop-color="#7C692E"/>
</linearGradient>
<linearGradient id="paint1_linear_1_701" x1="125.97" y1="32.8775" x2="30.2525" y2="96.6116" gradientUnits="userSpaceOnUse">
<stop stop-color="#F0C55D"/>
<stop offset="0.66" stop-color="#EEC35C"/>
<stop offset="0.73" stop-color="#EAC05B"/>
<stop offset="0.74" stop-color="#A3883E"/>
<stop offset="0.75" stop-color="#7C692E"/>
</linearGradient>
<linearGradient id="paint2_linear_1_701" x1="103.068" y1="23.9587" x2="125.317" y2="57.448" gradientUnits="userSpaceOnUse">
<stop stop-color="#171717"/>
<stop offset="0.04" stop-color="#1C1C1C"/>
<stop offset="0.1" stop-color="#2C2C2C"/>
<stop offset="0.16" stop-color="#464646"/>
<stop offset="0.23" stop-color="#6A6A6A"/>
<stop offset="0.25" stop-color="#757575"/>
<stop offset="0.35" stop-color="#B3B3B3"/>
<stop offset="0.53" stop-color="#E6E6E6"/>
<stop offset="0.75" stop-color="#E6E6E6"/>
<stop offset="0.87" stop-color="#CCCCCC"/>
<stop offset="1" stop-color="#E6E6E6"/>
</linearGradient>
<linearGradient id="paint3_linear_1_701" x1="69.6794" y1="90.3252" x2="65.3932" y2="83.8663" gradientUnits="userSpaceOnUse">
<stop/>
<stop offset="0.16" stop-color="#050505"/>
<stop offset="0.36" stop-color="#151515"/>
<stop offset="0.58" stop-color="#2F2F2F"/>
<stop offset="0.81" stop-color="#535353"/>
<stop offset="1" stop-color="#757575"/>
</linearGradient>
<linearGradient id="paint4_linear_1_701" x1="64.4938" y1="84.2472" x2="54.7195" y2="69.5177" gradientUnits="userSpaceOnUse">
<stop stop-color="#B8B8B8"/>
<stop offset="0.43" stop-color="#8F8F8F"/>
<stop offset="0.65" stop-color="#8F8F8F"/>
<stop offset="1" stop-color="#E8E8E8"/>
</linearGradient>
<linearGradient id="paint5_linear_1_701" x1="24.1816" y1="89.6749" x2="89.9295" y2="46.7137" gradientUnits="userSpaceOnUse">
<stop stop-color="#B8B8B8"/>
<stop offset="0.31" stop-color="#B6B6B6"/>
<stop offset="0.46" stop-color="#AEAEAE"/>
<stop offset="0.58" stop-color="#A1A1A1"/>
<stop offset="0.68" stop-color="#8F8F8F"/>
<stop offset="0.76" stop-color="#777777"/>
<stop offset="0.84" stop-color="#595959"/>
<stop offset="0.91" stop-color="#363636"/>
<stop offset="0.98" stop-color="#0F0F0F"/>
<stop offset="1"/>
</linearGradient>
<linearGradient id="paint6_linear_1_701" x1="34.7573" y1="104.886" x2="99.8873" y2="60.9974" gradientUnits="userSpaceOnUse">
<stop stop-color="#B8B8B8"/>
<stop offset="0.31" stop-color="#B6B6B6"/>
<stop offset="0.46" stop-color="#AEAEAE"/>
<stop offset="0.58" stop-color="#A1A1A1"/>
<stop offset="0.68" stop-color="#8F8F8F"/>
<stop offset="0.76" stop-color="#777777"/>
<stop offset="0.84" stop-color="#595959"/>
<stop offset="0.91" stop-color="#363636"/>
<stop offset="0.98" stop-color="#0F0F0F"/>
<stop offset="1"/>
</linearGradient>
<linearGradient id="paint7_linear_1_701" x1="108.181" y1="63.992" x2="90.8193" y2="36.6707" gradientUnits="userSpaceOnUse">
<stop stop-color="#B8B8B8"/>
<stop offset="0.43" stop-color="#8F8F8F"/>
<stop offset="0.65" stop-color="#8F8F8F"/>
<stop offset="1" stop-color="#E8E8E8"/>
</linearGradient>
<linearGradient id="paint8_linear_1_701" x1="108.302" y1="63.9097" x2="90.9406" y2="36.5886" gradientUnits="userSpaceOnUse">
<stop stop-color="#B8B8B8"/>
<stop offset="0.43" stop-color="#8F8F8F"/>
<stop offset="0.65" stop-color="#8F8F8F"/>
<stop offset="1" stop-color="#E8E8E8"/>
</linearGradient>
<linearGradient id="paint9_linear_1_701" x1="108.424" y1="63.8289" x2="91.0626" y2="36.5076" gradientUnits="userSpaceOnUse">
<stop stop-color="#B8B8B8"/>
<stop offset="0.43" stop-color="#8F8F8F"/>
<stop offset="0.65" stop-color="#8F8F8F"/>
<stop offset="1" stop-color="#E8E8E8"/>
</linearGradient>
<linearGradient id="paint10_linear_1_701" x1="108.544" y1="63.7474" x2="91.1824" y2="36.426" gradientUnits="userSpaceOnUse">
<stop stop-color="#B8B8B8"/>
<stop offset="0.43" stop-color="#8F8F8F"/>
<stop offset="0.65" stop-color="#8F8F8F"/>
<stop offset="1" stop-color="#E8E8E8"/>
</linearGradient>
<linearGradient id="paint11_linear_1_701" x1="108.666" y1="63.6656" x2="91.3051" y2="36.3443" gradientUnits="userSpaceOnUse">
<stop stop-color="#B8B8B8"/>
<stop offset="0.43" stop-color="#8F8F8F"/>
<stop offset="0.65" stop-color="#8F8F8F"/>
<stop offset="1" stop-color="#E8E8E8"/>
</linearGradient>
<linearGradient id="paint12_linear_1_701" x1="108.789" y1="63.5834" x2="91.4284" y2="36.2625" gradientUnits="userSpaceOnUse">
<stop stop-color="#B8B8B8"/>
<stop offset="0.43" stop-color="#8F8F8F"/>
<stop offset="0.65" stop-color="#8F8F8F"/>
<stop offset="1" stop-color="#E8E8E8"/>
</linearGradient>
<linearGradient id="paint13_linear_1_701" x1="108.911" y1="63.5052" x2="91.5496" y2="36.1843" gradientUnits="userSpaceOnUse">
<stop stop-color="#B8B8B8"/>
<stop offset="0.43" stop-color="#8F8F8F"/>
<stop offset="0.65" stop-color="#8F8F8F"/>
<stop offset="1" stop-color="#E8E8E8"/>
</linearGradient>
<linearGradient id="paint14_linear_1_701" x1="109.034" y1="63.4238" x2="91.6729" y2="36.1029" gradientUnits="userSpaceOnUse">
<stop stop-color="#B8B8B8"/>
<stop offset="0.43" stop-color="#8F8F8F"/>
<stop offset="0.65" stop-color="#8F8F8F"/>
<stop offset="1" stop-color="#E8E8E8"/>
</linearGradient>
<linearGradient id="paint15_linear_1_701" x1="109.158" y1="63.3443" x2="91.7968" y2="36.0234" gradientUnits="userSpaceOnUse">
<stop stop-color="#B8B8B8"/>
<stop offset="0.43" stop-color="#8F8F8F"/>
<stop offset="0.65" stop-color="#8F8F8F"/>
<stop offset="1" stop-color="#E8E8E8"/>
</linearGradient>
<linearGradient id="paint16_linear_1_701" x1="109.28" y1="63.261" x2="91.9187" y2="35.94" gradientUnits="userSpaceOnUse">
<stop stop-color="#B8B8B8"/>
<stop offset="0.43" stop-color="#8F8F8F"/>
<stop offset="0.65" stop-color="#8F8F8F"/>
<stop offset="1" stop-color="#E8E8E8"/>
</linearGradient>
<linearGradient id="paint17_linear_1_701" x1="109.387" y1="63.1911" x2="92.0264" y2="35.8702" gradientUnits="userSpaceOnUse">
<stop stop-color="#B8B8B8"/>
<stop offset="0.43" stop-color="#8F8F8F"/>
<stop offset="0.65" stop-color="#8F8F8F"/>
<stop offset="1" stop-color="#E8E8E8"/>
</linearGradient>
<linearGradient id="paint18_linear_1_701" x1="112.328" y1="62.3783" x2="93.5863" y2="34.1357" gradientUnits="userSpaceOnUse">
<stop stop-color="#A68974"/>
<stop offset="0.02" stop-color="#A18570"/>
<stop offset="0.25" stop-color="#6E5B4D"/>
<stop offset="0.29" stop-color="#735F51"/>
<stop offset="0.34" stop-color="#816C5C"/>
<stop offset="0.39" stop-color="#98806F"/>
<stop offset="0.45" stop-color="#B89C89"/>
<stop offset="0.5" stop-color="#E1C1AA"/>
<stop offset="0.51" stop-color="#E7C6AF"/>
<stop offset="0.64" stop-color="#EED1BC"/>
<stop offset="0.74" stop-color="#FFEADA"/>
<stop offset="0.96" stop-color="#D0B09B"/>
</linearGradient>
<linearGradient id="paint19_linear_1_701" x1="107.471" y1="65.6028" x2="88.7298" y2="37.3615" gradientUnits="userSpaceOnUse">
<stop stop-color="#B8B8B8"/>
<stop offset="0.43" stop-color="#8F8F8F"/>
<stop offset="0.65" stop-color="#8F8F8F"/>
<stop offset="1" stop-color="#E8E8E8"/>
</linearGradient>
<linearGradient id="paint20_linear_1_701" x1="106.081" y1="66.5235" x2="87.3392" y2="38.2809" gradientUnits="userSpaceOnUse">
<stop stop-color="#B8B8B8"/>
<stop offset="0.43" stop-color="#8F8F8F"/>
<stop offset="0.65" stop-color="#8F8F8F"/>
<stop offset="1" stop-color="#E8E8E8"/>
</linearGradient>
<linearGradient id="paint21_linear_1_701" x1="112.499" y1="62.2651" x2="93.7571" y2="34.0225" gradientUnits="userSpaceOnUse">
<stop stop-color="#B8B8B8"/>
<stop offset="0.43" stop-color="#8F8F8F"/>
<stop offset="0.65" stop-color="#8F8F8F"/>
<stop offset="1" stop-color="#E8E8E8"/>
</linearGradient>
<linearGradient id="paint22_linear_1_701" x1="111.108" y1="63.1891" x2="92.3661" y2="34.9465" gradientUnits="userSpaceOnUse">
<stop stop-color="#B8B8B8"/>
<stop offset="0.43" stop-color="#8F8F8F"/>
<stop offset="0.65" stop-color="#8F8F8F"/>
<stop offset="1" stop-color="#E8E8E8"/>
</linearGradient>
<linearGradient id="paint23_linear_1_701" x1="116.366" y1="59.6998" x2="97.6243" y2="31.4572" gradientUnits="userSpaceOnUse">
<stop stop-color="#B8B8B8"/>
<stop offset="0.43" stop-color="#8F8F8F"/>
<stop offset="0.65" stop-color="#8F8F8F"/>
<stop offset="1" stop-color="#E8E8E8"/>
</linearGradient>
<linearGradient id="paint24_linear_1_701" x1="117.76" y1="58.7735" x2="99.0186" y2="30.531" gradientUnits="userSpaceOnUse">
<stop stop-color="#B8B8B8"/>
<stop offset="0.43" stop-color="#8F8F8F"/>
<stop offset="0.65" stop-color="#8F8F8F"/>
<stop offset="1" stop-color="#E8E8E8"/>
</linearGradient>
</defs>
</svg>
