<svg width="103" height="58" viewBox="0 0 103 58" fill="none" xmlns="http://www.w3.org/2000/svg">
<mask id="mask0_1_175" style="mask-type:luminance" maskUnits="userSpaceOnUse" x="0" y="0" width="103" height="58">
<path d="M102.715 0H0V58H102.715V0Z" fill="white"/>
</mask>
<g mask="url(#mask0_1_175)">
<path d="M28.8414 31.9887C30.9928 31.9887 32.5991 31.5906 33.6148 30.8058C34.6206 30.0282 35.3153 28.682 35.6791 26.8045C36.0187 25.0487 35.8888 23.8229 35.2954 23.1627C34.6876 22.4867 33.3737 22.1445 31.3908 22.1445H27.9527L26.0467 31.9901H28.8414V31.9887ZM17.5956 44.1171C17.4358 44.1171 17.2846 44.0455 17.1833 43.9209C17.082 43.7978 17.0406 43.6345 17.0706 43.477L22.1222 17.3856C22.1707 17.1335 22.3918 16.9517 22.6472 16.9517H33.535C36.9559 16.9517 39.5038 17.884 41.1045 19.7242C42.7137 21.573 43.2116 24.158 42.581 27.4074C42.3242 28.7307 41.8848 29.9608 41.2714 31.0607C40.658 32.162 39.8476 33.1816 38.8619 34.091C37.6821 35.1995 36.3468 36.0029 34.8959 36.4755C33.4693 36.9423 31.6361 37.1786 29.4477 37.1786H25.0396L23.7813 43.6804C23.7328 43.9324 23.5131 44.1157 23.2563 44.1157H17.5941L17.5956 44.1171Z" fill="black"/>
<path d="M28.3936 22.68H31.3909C33.7847 22.68 34.615 23.207 34.8975 23.5206C35.3654 24.0419 35.4553 25.1418 35.1528 26.7013C34.8147 28.447 34.187 29.6844 33.2883 30.3789C32.3681 31.0907 30.8716 31.4502 28.8401 31.4502H26.6945L28.3922 22.6786L28.3936 22.68ZM33.5351 16.4146H22.6473C22.1351 16.4146 21.6943 16.7783 21.5973 17.2838L16.5457 43.3752C16.4844 43.6903 16.5671 44.0154 16.7697 44.2631C16.9723 44.5109 17.2761 44.6541 17.5957 44.6541H23.2579C23.77 44.6541 24.2108 44.2889 24.3078 43.7848L25.4819 37.717H29.4493C31.6933 37.717 33.5821 37.4707 35.063 36.9867C36.5866 36.4897 37.9875 35.6476 39.2272 34.4833C40.2529 33.5367 41.0975 32.4727 41.738 31.3227C42.3785 30.1727 42.8379 28.8896 43.1047 27.509C43.7666 24.0892 43.2288 21.351 41.5055 19.3704C39.7978 17.4084 37.1158 16.4146 33.5336 16.4146M25.3963 32.5257H28.8401C31.1227 32.5257 32.8232 32.0946 33.9402 31.231C35.0572 30.3675 35.8119 28.9268 36.2028 26.9061C36.578 24.967 36.4068 23.5994 35.6907 22.8017C34.9731 22.004 33.5408 21.6059 31.3895 21.6059H27.5105L25.3963 32.5257ZM33.5336 17.4886C36.8091 17.4886 39.1987 18.3507 40.6994 20.0779C42.2017 21.8035 42.6539 24.2123 42.0547 27.3057C41.8079 28.5802 41.3913 29.7445 40.8036 30.8C40.2158 31.8554 39.4483 32.8221 38.4996 33.6971C37.3683 34.7597 36.1129 35.5159 34.7306 35.967C33.3482 36.4195 31.5878 36.6444 29.4479 36.6444H24.5974L23.255 43.5815H17.5928L22.6444 17.4901H33.5322" fill="white"/>
<path d="M55.5632 37.1801C55.4034 37.1801 55.2522 37.1085 55.1509 36.9839C55.0496 36.8608 55.0083 36.6975 55.0382 36.54L57.2723 24.9958C57.4848 23.8974 57.4321 23.1098 57.1253 22.7775C56.937 22.5742 56.3721 22.2333 54.6987 22.2333H50.65L47.841 36.7462C47.7925 36.9983 47.5714 37.1801 47.3161 37.1801H41.6981C41.5383 37.1801 41.3871 37.1085 41.2858 36.9839C41.1845 36.8608 41.1432 36.6975 41.1731 36.54L46.2247 10.4486C46.2732 10.1965 46.4943 10.0146 46.7497 10.0146H52.3676C52.5274 10.0146 52.6786 10.0863 52.7799 10.2094C52.8812 10.334 52.9226 10.4958 52.8926 10.6534L51.6743 16.9503H56.0297C59.348 16.9503 61.5977 17.5375 62.9073 18.7447C64.2426 19.9778 64.6592 21.9469 64.1456 24.602L61.7946 36.7433C61.7461 36.9954 61.5264 37.1773 61.2696 37.1773H55.5632V37.1801Z" fill="black"/>
<path d="M52.3675 9.47754H46.7496C46.2374 9.47754 45.7966 9.84272 45.6996 10.3468L40.648 36.4382C40.5866 36.7533 40.6694 37.0784 40.8734 37.3261C41.0774 37.5739 41.3798 37.7171 41.6994 37.7171H47.3173C47.8295 37.7171 48.2703 37.3533 48.3673 36.8478L51.0921 22.7688H54.7C56.3691 22.7688 56.72 23.1269 56.7343 23.1426C56.8356 23.2515 56.9683 23.7584 56.7486 24.8941L54.5145 36.4382C54.4532 36.7533 54.5359 37.0784 54.7399 37.3261C54.9439 37.5739 55.2464 37.7171 55.5659 37.7171H61.2723C61.7845 37.7171 62.2253 37.3533 62.3223 36.8478L64.6719 24.7065C65.224 21.8566 64.7518 19.7185 63.2696 18.3508C61.8558 17.0476 59.4876 16.4146 56.0296 16.4146H52.3233L53.4189 10.7564C53.4802 10.4413 53.3975 10.1163 53.1949 9.8685C52.9909 9.62075 52.6885 9.47754 52.3689 9.47754M52.3689 10.5516L51.0265 17.4887H56.031C59.1795 17.4887 61.3522 18.0401 62.5463 19.1428C63.7418 20.2455 64.0998 22.0327 63.6219 24.5017L61.2709 36.643H55.5645L57.7986 25.0989C58.0525 23.7856 57.9598 22.8891 57.5175 22.4123C57.0753 21.9354 56.1366 21.6962 54.6986 21.6962H50.2091L47.3159 36.6445H41.698L46.7496 10.553H52.3675" fill="white"/>
<path d="M73.0333 31.9887C75.1846 31.9887 76.791 31.5906 77.8067 30.8058C78.8125 30.0282 79.5072 28.682 79.871 26.8045C80.2106 25.0487 80.0807 23.8229 79.4873 23.1627C78.8795 22.4867 77.5656 22.1445 75.5827 22.1445H72.1446L70.2386 31.9901H73.0333V31.9887ZM61.7875 44.1171C61.6277 44.1171 61.4765 44.0455 61.3752 43.9209C61.2739 43.7978 61.2325 43.6345 61.2625 43.477L66.3141 17.3856C66.3626 17.1335 66.5837 16.9517 66.839 16.9517H77.7269C81.1493 16.9517 83.6957 17.884 85.2964 19.7242C86.9056 21.573 87.402 24.158 86.7729 27.4074C86.5161 28.7307 86.0767 29.9608 85.4633 31.0607C84.8499 32.162 84.0395 33.1816 83.0538 34.091C81.874 35.1995 80.5387 36.0029 79.0878 36.4755C77.6612 36.9423 75.828 37.1786 73.6396 37.1786H69.2315L67.9732 43.6804C67.9247 43.9324 67.7036 44.1157 67.4482 44.1157H61.786L61.7875 44.1171Z" fill="black"/>
<path d="M72.5853 22.68H75.5825C77.9764 22.68 78.8067 23.207 79.0891 23.5206C79.5585 24.0419 79.6469 25.1418 79.3445 26.7013C79.0064 28.447 78.3787 29.6844 77.4799 30.3789C76.5598 31.0907 75.0633 31.4502 73.0318 31.4502H70.8862L72.5838 22.6786L72.5853 22.68ZM77.7267 16.4146H66.8389C66.3268 16.4146 65.886 16.7783 65.7889 17.2838L60.7374 43.3752C60.676 43.6903 60.7588 44.0154 60.9613 44.2631C61.1639 44.5109 61.4678 44.6541 61.7873 44.6541H67.4495C67.9616 44.6541 68.4025 44.2889 68.4995 43.7848L69.6736 37.717H73.6409C75.885 37.717 77.7738 37.4707 79.2546 36.9867C80.7782 36.4897 82.1791 35.6476 83.4203 34.4833C84.446 33.5367 85.2905 32.4727 85.9311 31.3227C86.5716 30.1727 87.031 28.8896 87.2978 27.509C87.9597 24.0892 87.4219 21.351 85.6985 19.3704C83.9909 17.4084 81.3089 16.4146 77.7267 16.4146ZM69.5894 32.5257H73.0332C75.3158 32.5257 77.0163 32.0946 78.1333 31.231C79.2503 30.3675 80.005 28.9268 80.3959 26.9061C80.7711 24.967 80.5999 23.5994 79.8837 22.8017C79.1662 22.004 77.7339 21.6059 75.5825 21.6059H71.7036L69.5894 32.5257ZM77.7267 17.4886C81.0022 17.4886 83.3917 18.3507 84.8925 20.0779C86.3947 21.8035 86.847 24.2123 86.2478 27.3057C86.001 28.5802 85.5844 29.7445 84.9967 30.8C84.4089 31.8554 83.6414 32.8221 82.6927 33.6971C81.5614 34.7597 80.306 35.5159 78.9236 35.967C77.5413 36.4195 75.7808 36.6444 73.6409 36.6444H68.7905L67.4481 43.5815H61.7859L66.8375 17.4901H77.7253" fill="white"/>
</g>
</svg>
