<svg width="71" height="105" viewBox="0 0 71 105" fill="none" xmlns="http://www.w3.org/2000/svg">
<path d="M19.1155 5.80425C25.0842 -3.02321 38.8618 0.944271 39.2217 11.5941L39.7378 26.8678C39.8988 31.6306 43.1082 35.748 47.6876 37.0668L62.3732 41.2957C72.6131 44.2445 73.0972 58.5738 63.0798 62.207L48.7132 67.4177C44.2333 69.0425 41.3091 73.3673 41.47 78.13L41.9862 93.4037C42.346 104.054 28.8677 108.942 22.3167 100.538L12.9215 88.4844C9.99182 84.7258 4.97513 83.2812 0.495198 84.906L-13.8714 90.1167C-23.8889 93.75 -32.7031 82.4419 -26.7344 73.6144L-18.1743 60.9544C-15.5051 57.0067 -15.6814 51.7891 -18.6111 48.0305L-28.0062 35.9772C-34.5572 27.5728 -26.5264 15.6956 -16.2865 18.6443L-1.60095 22.8733C2.97845 24.192 7.88617 22.412 10.5555 18.4642L19.1155 5.80425Z" fill="#072F53"/>
</svg>
