<svg width="16" height="14" viewBox="0 0 16 14" fill="none" xmlns="http://www.w3.org/2000/svg">
<path d="M15.9972 2.04695C15.3973 2.31233 14.764 2.47819 14.0975 2.57771C14.764 2.17964 15.2973 1.54937 15.5306 0.786405C14.8973 1.1513 14.1975 1.41668 13.4309 1.58254C12.831 0.952267 11.9645 0.554199 11.0314 0.554199C9.23169 0.554199 7.76528 2.01378 7.76528 3.80508C7.76528 4.07046 7.79861 4.30267 7.86527 4.53487C5.16575 4.40218 2.73285 3.10847 1.0998 1.11813C0.833185 1.61571 0.666548 2.14647 0.666548 2.74357C0.666548 3.87143 1.23311 4.8666 2.13295 5.4637C1.59972 5.43053 1.0998 5.29784 0.633221 5.06563V5.0988C0.633221 6.69107 1.76635 8.01796 3.26609 8.31651C2.99947 8.38286 2.69952 8.41603 2.39957 8.41603C2.19961 8.41603 1.96632 8.38286 1.76635 8.34969C2.19961 9.64341 3.39939 10.6054 4.83247 10.6054C3.69934 11.4679 2.29959 11.9986 0.76653 11.9986C0.499911 11.9986 0.233292 11.9986 0 11.9655C1.46641 12.8943 3.1661 13.425 5.03244 13.425C11.0647 13.425 14.3641 8.4492 14.3641 4.13681C14.3641 4.00412 14.3641 3.83826 14.3641 3.70557C14.9973 3.27433 15.5639 2.7104 15.9972 2.04695Z" fill="#131313"/>
</svg>
