<svg width="70" height="70" viewBox="0 0 70 70" fill="none" xmlns="http://www.w3.org/2000/svg">
<path d="M42.597 69.9993C42.5991 64.7705 42.6012 59.5416 42.6027 54.3127C42.6034 51.0804 42.6027 47.8481 42.6027 44.6151C42.6027 44.4868 42.6027 44.3584 42.6027 44.1937C42.7581 44.1823 42.8829 44.1652 43.0084 44.1645C43.7093 44.1616 44.411 44.1631 45.1119 44.1623C45.4261 44.1623 45.5835 44.3145 45.584 44.6187C45.584 49.2415 45.584 53.8642 45.584 58.487C45.584 58.6524 45.584 58.8171 45.584 59.0546C45.7551 58.9811 45.8863 58.9419 45.9997 58.8735C47.6689 57.8681 48.6822 56.4747 48.6772 54.4447C48.6658 50.1071 48.658 45.7696 48.6858 41.432C48.6922 40.4658 48.3499 39.7036 47.6903 39.0476C46.6421 38.0051 45.3586 37.3398 44.0038 36.8036C40.9933 35.6113 37.8651 34.9168 34.6271 35.0038C30.9085 35.1036 27.3368 35.9222 24.0346 37.7127C23.2267 38.1512 22.4908 38.6953 21.9068 39.4198C21.4761 39.9539 21.2472 40.5486 21.2494 41.2531C21.2615 45.7689 21.2522 50.2847 21.2565 54.8005C21.2579 56.4569 22.6634 58.4414 24.2171 59.0068C24.2371 59.0139 24.2628 59.004 24.3448 58.9968V58.5255C24.3448 53.9027 24.3448 49.28 24.3448 44.6572C24.3448 44.3292 24.514 44.1647 24.8525 44.1638C25.542 44.163 26.2315 44.178 26.9203 44.1559C27.2498 44.1452 27.3346 44.2557 27.3339 44.5802C27.3254 51.9604 27.3268 59.3398 27.3275 66.72C27.3275 67.8131 27.3311 68.9062 27.3332 69.9993H24.3376C24.3398 67.5036 24.3391 65.0079 24.3476 62.5129C24.3483 62.2833 24.2713 62.1963 24.0467 62.1243C20.8693 61.0996 18.9605 58.9369 18.3166 55.6654C18.2488 55.3196 18.2581 54.9552 18.2574 54.5994C18.2531 50.167 18.2681 45.7339 18.2481 41.3015C18.2381 39.1103 19.2992 37.5074 20.9314 36.2032C22.7325 34.7635 24.8254 33.9043 27.0102 33.2511C29.8703 32.3954 32.791 31.8592 35.783 32.0196C40.0884 32.2507 44.2142 33.1976 47.9549 35.4573C48.8234 35.9821 49.5949 36.6317 50.2516 37.4132C51.1801 38.5178 51.6792 39.7727 51.6763 41.2302C51.6678 45.7104 51.6849 50.1905 51.6692 54.6707C51.6571 58.0128 49.2412 61.1702 46.0175 62.0794C45.6824 62.1742 45.574 62.3054 45.5768 62.6562C45.5954 65.1042 45.5897 67.5521 45.5911 70H42.5955L42.597 69.9993Z" fill="white"/>
<path d="M60.8542 69.9992C60.8563 64.8652 60.8585 59.7319 60.8606 54.5979C60.8606 52.7917 60.8606 50.9855 60.8606 49.1786C60.8606 49.0503 60.8606 48.9212 60.8606 48.7579C61.0161 48.7465 61.1416 48.7294 61.2671 48.7287C61.968 48.7258 62.6697 48.7273 63.3706 48.7265C63.6848 48.7265 63.8422 48.8787 63.8426 49.1829C63.8426 53.3543 63.8426 57.5257 63.8426 61.6964C63.8426 61.849 63.8426 62.0023 63.8426 62.1784C63.9246 62.1784 63.9824 62.1905 64.0323 62.177C64.8459 61.9574 65.5932 61.6115 66.2014 61.0097C66.6885 60.5277 66.9366 59.9551 66.9352 59.257C66.9273 54.8004 66.9209 50.3438 66.9395 45.8879C66.943 44.9873 66.6378 44.2443 66.0581 43.5889C65.2645 42.6912 64.2676 42.0694 63.203 41.5567C61.0995 40.5435 58.8762 39.9274 56.5587 39.6807C55.4756 39.5659 54.3818 39.5488 53.2644 39.486V36.606C53.2922 36.5938 53.3229 36.5689 53.3543 36.5682C57.8829 36.4427 62.1513 37.3803 66.0603 39.7292C67.1897 40.408 68.1609 41.2786 68.9054 42.3839C69.6099 43.4307 69.9407 44.5801 69.9343 45.8422C69.9222 48.278 69.9307 50.7146 69.9307 53.1511C69.9307 55.1712 69.9222 57.192 69.9329 59.2121C69.9429 61.029 69.1906 62.4701 67.8008 63.5967C66.7562 64.4438 65.5476 64.9501 64.2355 65.2061C63.9396 65.2638 63.8291 65.3651 63.8341 65.6852C63.8555 67.1228 63.8462 68.561 63.8483 69.9985H60.8528L60.8542 69.9992Z" fill="white"/>
<path d="M6.08204 69.9993C6.08418 68.5262 6.07776 67.0523 6.09559 65.5791C6.09915 65.286 5.93372 65.2596 5.72907 65.2176C4.23735 64.9095 2.87826 64.322 1.75377 63.2695C0.615014 62.2035 0.00035653 60.8964 0.00035653 59.3213C0.00035653 54.7705 -0.00106959 50.2191 0.00178265 45.6683C0.00320877 43.6546 0.960848 42.1052 2.41406 40.8195C4.15678 39.2786 6.23963 38.3702 8.42872 37.6785C11.0428 36.8528 13.7189 36.4599 16.4635 36.5618C16.5219 36.564 16.5804 36.5718 16.6653 36.5797V39.5431C16.3537 39.5431 16.0378 39.5446 15.7226 39.5431C12.8205 39.5267 10.0452 40.1364 7.37981 41.2588C6.30309 41.7123 5.28484 42.2749 4.40564 43.0571C3.76674 43.6254 3.2241 44.265 3.05368 45.1385C3.01802 45.3232 3.00162 45.515 3.00162 45.7033C2.99877 50.2184 3.00448 54.7342 2.99521 59.2493C2.99378 59.9623 3.24834 60.5435 3.74891 61.0283C4.38852 61.6473 5.16647 61.9981 6.08846 62.2249C6.08846 62.0266 6.08846 61.8783 6.08846 61.7307C6.08846 57.5714 6.08846 53.4129 6.08846 49.2536C6.08846 48.9023 6.25864 48.7264 6.59901 48.7259C7.28854 48.7259 7.97806 48.743 8.66688 48.7202C8.99988 48.7095 9.07974 48.8236 9.07903 49.1445C9.06976 55.8936 9.0719 62.6434 9.0719 69.3925C9.0719 69.5943 9.07618 69.7961 9.07831 69.9979H6.08275L6.08204 69.9993Z" fill="white"/>
<path d="M63.939 26.6702C63.8299 27.7284 63.8292 28.8123 63.5875 29.8391C63.1589 31.6602 62.0401 33.0485 60.3944 33.9285C57.6776 35.3802 54.8931 35.4045 52.1821 33.947C49.9752 32.7605 48.8164 30.8152 48.6931 28.3138C48.6318 27.071 48.6268 25.8146 48.7402 24.5767C48.984 21.9163 50.4166 20.0131 52.8538 19.0077C55.8793 17.7598 58.8207 18.0115 61.4433 20.088C63.0398 21.3522 63.7928 23.0907 63.8378 25.1272C63.8492 25.6377 63.8392 26.149 63.8392 26.6595C63.872 26.6631 63.9048 26.6659 63.9376 26.6695L63.939 26.6702ZM51.7321 26.641H51.6772C51.6772 27.0802 51.6723 27.5202 51.678 27.9594C51.7022 29.7029 52.5386 30.9179 54.1337 31.5754C55.6197 32.1886 57.1336 32.1629 58.5939 31.4912C60.0828 30.806 60.8336 29.6002 60.8572 27.9587C60.87 27.0681 60.8729 26.1768 60.8565 25.2862C60.8279 23.7374 60.1413 22.5573 58.7522 21.8699C57.1115 21.057 55.4229 21.0663 53.7779 21.8678C52.6563 22.414 51.9254 23.331 51.7485 24.5788C51.653 25.2534 51.7314 25.9529 51.7314 26.641H51.7321Z" fill="white"/>
<path d="M5.98362 26.6367C6.10342 25.5442 6.08203 24.4133 6.3701 23.368C7.08245 20.7839 8.90075 19.2365 11.4521 18.5891C13.9649 17.9516 16.3679 18.2675 18.5071 19.8141C20.2391 21.0662 21.1411 22.8175 21.236 24.9431C21.2916 26.1867 21.3016 27.4424 21.1925 28.6803C20.9614 31.3115 19.5653 33.2196 17.1637 34.2364C14.0547 35.5535 11.0421 35.2854 8.37095 33.0948C6.86069 31.8563 6.14763 30.1699 6.09272 28.2168C6.07775 27.6948 6.09058 27.1715 6.09058 26.6488C6.05493 26.6452 6.01856 26.6409 5.98291 26.6374L5.98362 26.6367ZM18.2853 26.6759C18.2753 26.6759 18.2654 26.6752 18.2561 26.6744C18.2561 26.2352 18.2589 25.7952 18.2561 25.356C18.2418 23.6475 17.4496 22.4232 15.8944 21.7451C14.4598 21.119 12.983 21.119 11.5291 21.7044C9.94681 22.3419 9.0783 23.6561 9.0726 25.361C9.06903 26.2281 9.0619 27.0952 9.07474 27.9622C9.09898 29.6208 9.86623 30.823 11.3736 31.5061C12.854 32.1764 14.3763 32.175 15.8688 31.5525C17.1202 31.0305 17.9559 30.0993 18.1777 28.7359C18.2875 28.0613 18.2547 27.3633 18.2868 26.6766L18.2853 26.6759Z" fill="white"/>
<path d="M13.7104 8.36387C13.6983 7.24935 13.6227 6.127 13.9685 5.04244C14.7643 2.5453 16.4935 1.00652 18.9827 0.350505C21.4221 -0.292675 23.7781 -0.0267036 25.9037 1.41011C27.7527 2.6601 28.7524 4.44133 28.828 6.67891C28.8736 8.03016 28.9413 9.40279 28.7616 10.7341C28.3787 13.5721 26.6802 15.4417 23.9849 16.286C21.0043 17.2194 18.1962 16.815 15.7989 14.6794C14.4726 13.4979 13.8031 11.9577 13.7154 10.1815C13.6854 9.57749 13.7104 8.96997 13.7104 8.36458V8.36387ZM25.8253 8.39738C25.8345 8.39738 25.8438 8.39738 25.8531 8.39738C25.8531 7.92248 25.8595 7.44687 25.8517 6.97197C25.8274 5.48881 25.1607 4.36931 23.8636 3.6698C22.429 2.89541 20.9102 2.83053 19.3828 3.35534C17.618 3.96144 16.6924 5.30342 16.6931 7.16165C16.6931 8.06438 16.6817 8.96712 16.6967 9.86985C16.7159 11.0735 17.1915 12.0832 18.1777 12.7691C19.9154 13.9785 21.7872 14.0455 23.6847 13.1899C24.9061 12.6394 25.6427 11.6525 25.8124 10.3184C25.893 9.68802 25.826 9.03842 25.826 8.39738H25.8253Z" fill="white"/>
<path d="M56.2208 8.42161C56.2344 9.524 56.3078 10.6349 55.9677 11.7081C55.1626 14.2487 53.4071 15.8082 50.865 16.4392C48.1754 17.1074 45.6426 16.7181 43.4514 14.9197C41.9953 13.7246 41.186 12.1416 41.1168 10.2542C41.0647 8.82163 41.012 7.36771 41.1895 5.95157C41.5076 3.42164 42.9893 1.64398 45.3288 0.714862C48.3422 -0.481652 51.2558 -0.222098 53.8506 1.84221C55.3566 3.04015 56.1203 4.67733 56.2158 6.60473C56.2458 7.20869 56.2208 7.81622 56.2208 8.42161ZM53.2081 8.4102C53.2188 8.4102 53.2288 8.4102 53.2395 8.4102C53.2395 7.94671 53.2431 7.48393 53.2395 7.02045C53.2267 5.46027 52.5143 4.31082 51.1367 3.60846C49.7962 2.92463 48.3829 2.86901 46.9489 3.29257C45.3887 3.75321 44.0047 5.07593 44.0746 7.18588C44.1031 8.04012 44.0746 8.89651 44.0803 9.75146C44.091 11.3444 44.8304 12.5017 46.2465 13.1927C47.7083 13.9065 49.2293 13.93 50.7367 13.346C52.1115 12.8126 52.9942 11.8179 53.1946 10.3319C53.2794 9.70226 53.2089 9.05195 53.2089 8.41162L53.2081 8.4102Z" fill="white"/>
<path d="M42.5266 22.0953C42.5401 23.1977 42.6164 24.3086 42.2806 25.3825C41.4941 27.8974 39.7656 29.4612 37.2585 30.1101C34.5639 30.8074 32.0147 30.4374 29.7992 28.6454C28.3125 27.4432 27.4939 25.8431 27.4211 23.9285C27.3677 22.5302 27.3006 21.1105 27.4768 19.7308C27.8269 16.9969 29.442 15.1479 32.0154 14.258C34.9396 13.2469 37.7412 13.5614 40.1992 15.5658C41.6695 16.7652 42.4246 18.3774 42.5216 20.277C42.5523 20.8809 42.5266 21.4877 42.5266 22.0938V22.0953ZM30.4196 22.0696C30.4081 22.0696 30.3974 22.0696 30.386 22.0696C30.386 22.5331 30.3825 22.9959 30.386 23.4594C30.4017 25.0217 31.1269 26.1604 32.5031 26.8621C33.761 27.5031 35.0915 27.5751 36.4527 27.235C38.1441 26.8122 39.6344 25.4581 39.5503 23.2248C39.5189 22.3826 39.5517 21.5384 39.5439 20.6948C39.5296 19.181 38.8465 18.0529 37.5209 17.3413C36.2025 16.6332 34.7935 16.5413 33.3745 16.9491C31.7786 17.4076 30.6834 18.4073 30.4331 20.1137C30.3397 20.7526 30.4181 21.4164 30.4181 22.0689L30.4196 22.0696Z" fill="white"/>
</svg>
